<?xml version="1.0" encoding="utf-8"?>
<!-- Generator: Adobe Illustrator 24.2.0, SVG Export Plug-In . SVG Version: 6.00 Build 0)  -->
<svg version="1.1" id="Layer_1" xmlns="http://www.w3.org/2000/svg" xmlns:xlink="http://www.w3.org/1999/xlink" x="0px" y="0px"
	 width="88.5px" height="79.3px" viewBox="0 0 88.5 79.3" style="enable-background:new 0 0 88.5 79.3;" xml:space="preserve">
<style type="text/css">
	.st0{fill:#FFFFFF;}
</style>
<g>
	<g>
		<path class="st0" d="M88.5,79.3c-2,0-4,0-5.9,0c-0.2-0.3-0.3-0.4-0.3-0.5C82.1,74,82.1,74,77.2,74c-7.8,0-15.6,0-23.3,0
			c-3.6,0-3.6,0-3.7,3.7c0,0.4,0,1,0,1.6h-6.1c-0.1,0-0.2-0.1-0.2-0.2c0-0.7,0-3,0-5.9c0-4.1,0.1-9.3,1.6-12.7
			c0.3-0.6,0.2-1.3,0.2-2c0-3.8,0-7.6,0-11.3c0-3.1,1.2-3.8,5-3.4c10.2,1,20.5,1.1,30.6,0c4-0.4,5.3,0.3,5.3,3.4
			c0,2.9,0.2,5.8,0,8.7c-0.2,3.1,0.7,5.9,1.8,8.7V79.3z M45.9,67.6c13.7,0,27.2,0,40.7,0c0.1-6.2-2.1-9.3-8-10.4
			c-8.2-1.6-16.5-1.6-24.7,0C48.1,58.3,45.8,61.4,45.9,67.6z M84.9,57.7c0-3.4-0.1-6.8,0-10.2c0-1.6-0.6-2-2.1-2
			c-4.3,0.1-8.6,0-12.9,0c-6.7,0-13.5,0-20.2,0c-0.7,0-2,0.6-2,1c-0.2,3.7-0.1,7.4-0.1,11.2c1.9-0.6,2.8-1.5,2.7-3.4
			c-0.2-2.9,0.4-3.7,3.3-3.9c3.9-0.2,7.9,0.2,11.9,0.3c0.6,0,1.6,0,2.2,0c4-0.1,7.8-0.4,11.8-0.3c1.9,0.1,3.1,1.3,2.8,3.5
			C82,55.9,82.6,57.2,84.9,57.7z M48.2,77.4c0.7-5.1,0.9-5.2,6-5.2c8.1,0,16.3,0,24.4,0c4.6,0,5.1,0.4,5.4,4.9
			c0,0.1,0.2,0.2,0.2,0.3c0.7,0,1.5,0,2.2,0c0-2.7,0-5.2,0-7.8c-13.6,0-27.1,0-40.8,0c0,1.4,0,2.6,0,3.9c0,1.3,0,2.6,0,3.9
			C46.8,77.4,47.5,77.4,48.2,77.4z M65.3,54.1c0.3-1.2-0.2-1.9-1.4-2c-3-0.1-6-0.4-9-0.2c-3.1,0.2-3.1,0.5-2.6,3.4
			C56.5,55,60.8,54.6,65.3,54.1z M80.4,55.5c-0.2-1.1,1.1-3-1.1-3.2c-3.6-0.3-7.2-0.3-10.8,0c-1.9,0.2-1.5,1.1-1.3,1.8
			C72.1,54.6,76,55,80.4,55.5z"/>
	</g>
	<path class="st0" d="M15.9,0H0v15.9h15.9V0z M11.9,11.9H4V4h8V11.9z M15.9,19.9H0v15.9h15.9V19.9z M11.9,31.8H4v-8h8V31.8z
		 M27.2,50.3l9.4,9.4L27.2,69l-2.8-2.8l4.6-4.6c-13.5-0.4-17.1-11.8-17.1-17.8l4,0c0,0.6,0.3,13.3,13,13.9l-4.5-4.5L27.2,50.3z
		 M64.2,29.2l-9.4-9.4l9.4-9.4l2.8,2.8l-4.6,4.6c13.5,0.4,17.1,11.8,17.1,17.8l-4,0c0-0.6-0.3-13.3-13-13.9l4.5,4.5L64.2,29.2z
		 M47.7,4H19.9V0h27.8V4z M47.7,15.9H19.9v-4h27.8V15.9z M47.7,9.9H19.9V6h27.8V9.9z M47.7,23.9H19.9v-4h27.8V23.9z M47.7,35.8H19.9
		v-4h27.8V35.8z M47.7,29.8H19.9v-4h27.8V29.8z"/>
</g>
</svg>
