<?xml version="1.0" encoding="utf-8"?>
<!-- Generator: Adobe Illustrator 24.2.0, SVG Export Plug-In . SVG Version: 6.00 Build 0)  -->
<svg version="1.1" id="Layer_1" xmlns="http://www.w3.org/2000/svg" xmlns:xlink="http://www.w3.org/1999/xlink" x="0px" y="0px"
	 width="32.8px" height="39.5px" viewBox="0 0 32.8 39.5" style="enable-background:new 0 0 32.8 39.5;" xml:space="preserve">
<style type="text/css">
	.st0{fill:#FFFFFF;}
	.st1{opacity:0.63;fill:#FFFFFF;}
</style>
<g>
	<g>
		<path class="st0" d="M0,37.5C0,25.7,0,13.8,0,2C0,2,0,1.9,0.1,1.8C0.3,1,0.8,0.4,1.6,0.1C1.8,0.1,1.9,0.1,2,0c9.6,0,19.2,0,28.8,0
			c0.1,0,0.1,0,0.2,0c0.9,0.2,1.5,0.7,1.7,1.6c0,0.1,0.1,0.2,0.1,0.4c0,11.8,0,23.6,0,35.4c0,0.1,0,0.1,0,0.2
			c-0.2,0.9-0.7,1.5-1.6,1.7c-0.1,0-0.2,0.1-0.4,0.1c-9.6,0-19.2,0-28.8,0c0,0-0.1,0-0.1,0c-0.9-0.2-1.6-0.9-1.8-1.8
			C0,37.6,0,37.5,0,37.5z M1.5,19.7c0,5.8,0,11.5,0,17.3c0,0.6,0.3,0.9,0.9,0.9c9.3,0,18.6,0,28,0c0.6,0,0.9-0.3,0.9-0.9
			c0-11.5,0-23.1,0-34.6c0-0.6-0.3-0.9-0.9-0.9c-9.2,0-18.5,0-27.7,0c-0.1,0-0.3,0-0.4,0c-0.4,0-0.7,0.3-0.8,0.6c0,0.1,0,0.2,0,0.4
			C1.5,8.2,1.5,14,1.5,19.7z"/>
		<path class="st0" d="M20.9,35.3c0.3-0.6,0.6-1.2,0.8-1.7c0.6-1.3,1.2-2.6,1.9-3.9c0.1-0.1,0.1-0.2,0.1-0.4c0-2,0-3.9,0-5.9
			c0-0.1,0-0.2,0-0.3c1.8-0.1,4.4,0.9,5.7,3.5c1.3,2.5,0.8,5.6-1.3,7.5C26,36.1,23,36.3,20.9,35.3z"/>
		<path class="st1" d="M16.3,29.8c2.1,0,4.2,0,6.4,0c-0.9,1.9-1.8,3.8-2.8,5.8C17.8,34.6,16.2,32.3,16.3,29.8z"/>
		<path class="st0" d="M24,18c-1.5,0-3.1,0-4.6,0c-0.5,0-0.8-0.3-1-0.7c-0.2-0.6,0.3-1.1,0.9-1.2c0,0,0.1,0,0.1,0c3.1,0,6.1,0,9.2,0
			c0.5,0,0.8,0.2,1,0.6c0.2,0.6-0.2,1.3-0.9,1.3c-0.5,0-1,0-1.5,0C26.1,18,25,18,24,18z"/>
		<path class="st0" d="M23.9,6.4c-1.6,0-3.1,0-4.7,0c-0.8,0-1.2-0.8-0.8-1.4c0.2-0.3,0.5-0.5,0.8-0.5c0.4,0,0.7,0,1.1,0
			c2.7,0,5.4,0,8.2,0c0.5,0,0.9,0.3,1,0.7c0.1,0.6-0.3,1.2-0.9,1.2C27.1,6.4,25.5,6.4,23.9,6.4z"/>
		<path class="st0" d="M24,12.2c-1.6,0-3.1,0-4.7,0c-0.7,0-1.2-0.7-0.9-1.4c0.2-0.3,0.5-0.5,0.9-0.5c0.3,0,0.6,0,1,0
			c2.8,0,5.5,0,8.3,0c0.5,0,0.9,0.3,1,0.7c0.1,0.6-0.3,1.1-0.9,1.2c-0.2,0-0.5,0-0.7,0C26.6,12.2,25.3,12.2,24,12.2z"/>
		<path class="st0" d="M9.2,24.3c-1.5,0-3.1,0-4.6,0c-0.6,0-1.1-0.5-1-1.1c0.1-0.4,0.4-0.7,0.8-0.7c0.1,0,0.1,0,0.2,0
			c3.1,0,6.1,0,9.2,0c0.5,0,0.9,0.3,1,0.8c0.1,0.6-0.3,1.1-0.8,1.1c-0.1,0-0.3,0-0.4,0C12.1,24.3,10.7,24.3,9.2,24.3z"/>
		<path class="st0" d="M9.2,30.1c-1.6,0-3.1,0-4.7,0c-0.4,0-0.7-0.2-0.9-0.5c-0.2-0.3-0.2-0.7,0.1-1c0.2-0.3,0.5-0.4,0.8-0.4
			c0.7,0,1.4,0,2.1,0c2.4,0,4.8,0,7.1,0c0.5,0,0.9,0.3,1,0.7c0.1,0.6-0.3,1.2-0.9,1.2c-0.7,0-1.4,0-2.1,0
			C11,30.1,10.1,30.1,9.2,30.1z"/>
		<path class="st0" d="M9.2,35.9c-1.6,0-3.1,0-4.7,0c-0.7,0-1.2-0.7-0.8-1.4c0.2-0.3,0.4-0.5,0.7-0.5c0.1,0,0.1,0,0.2,0
			c3.1,0,6.1,0,9.2,0c0.5,0,0.9,0.3,1,0.7c0.1,0.6-0.3,1.1-0.9,1.2C12.4,35.9,10.8,35.9,9.2,35.9C9.2,35.9,9.2,35.9,9.2,35.9z"/>
		<path class="st0" d="M4.6,16.6c0.1,0,0.2,0,0.3,0c3.6,0,7.2,0,10.7,0c0.4,0,0.6,0.1,0.6,0.4c0,0.3-0.2,0.4-0.6,0.4
			c-3.8,0-7.5,0-11.3,0c-0.4,0-0.6-0.1-0.6-0.5c0-3.8,0-7.5,0-11.3C3.8,5.2,4,5,4.2,5c0.3,0,0.4,0.2,0.4,0.6c0,3.6,0,7.2,0,10.7
			C4.6,16.4,4.6,16.5,4.6,16.6z"/>
		<path class="st0" d="M6.6,13c-0.6,1.1-1.1,2.2-1.7,3.4c0,0,0,0-0.1,0c0-0.2,0-0.3,0-0.5c-0.1-0.6,0.1-1.1,0.4-1.5
			c0.3-0.6,0.6-1.2,0.9-1.8c0.1-0.3,0.3-0.3,0.6-0.2c0.6,0.3,1.2,0.5,1.9,0.8c0.1,0,0.1,0,0.2,0.1c0.2-0.5,0.4-0.9,0.7-1.4
			c0.2-0.4,0.3-0.7,0.5-1.1c0.2-0.3,0.3-0.4,0.6-0.3c0.5,0.2,1,0.3,1.5,0.5c0.1,0,0.2,0,0.2-0.1c0.8-1.4,1.7-2.9,2.5-4.3
			c0,0,0,0,0-0.1c-0.1,0-0.2,0-0.3,0c0.5-0.4,0.9-0.7,1.4-1c-0.1,0.6-0.2,1.1-0.2,1.7c-0.1-0.1-0.1-0.2-0.2-0.3
			c-0.1,0.1-0.1,0.2-0.2,0.3c-0.9,1.5-1.7,2.9-2.6,4.4c-0.2,0.3-0.3,0.3-0.5,0.2c-0.6-0.2-1.1-0.3-1.7-0.5c0,0.1-0.1,0.1-0.1,0.2
			c-0.4,0.8-0.8,1.6-1.1,2.4c-0.1,0.3-0.3,0.3-0.6,0.2C7.9,13.6,7.3,13.3,6.6,13z"/>
		<path class="st0" d="M15.4,7.6c0,2.9,0,5.8,0,8.7c-0.5,0-1,0-1.5,0c0-0.1,0-0.1,0-0.2c0-2,0-4,0-6c0-0.1,0-0.2,0.1-0.3
			c0.4-0.7,0.8-1.4,1.2-2.1C15.3,7.7,15.3,7.6,15.4,7.6C15.4,7.6,15.4,7.6,15.4,7.6z"/>
		<path class="st0" d="M16.5,28.8c-0.1-3.4,2.8-6.4,6.4-6.4c0,2.1,0,4.3,0,6.4C20.8,28.8,18.7,28.8,16.5,28.8z M17,28.4
			c1.8,0,3.7,0,5.5,0c0-1.9,0-3.7,0-5.6C19.3,23,17,25.8,17,28.4z"/>
		<path class="st0" d="M13.3,16.4c-0.5,0-1,0-1.5,0c0-1.5,0-2.9,0-4.4c0.1,0,0.2,0.1,0.3,0.1c0.4,0.1,0.6,0,0.8-0.3
			c0.1-0.2,0.2-0.4,0.3-0.6C13.3,12.9,13.3,14.6,13.3,16.4z"/>
		<path class="st0" d="M11.1,16.4c-0.5,0-1,0-1.5,0c0-0.1,0-0.1,0-0.2c0-0.8,0-1.5,0-2.3c0-0.1,0-0.1,0-0.2c0.3-0.7,0.7-1.4,1-2.1
			c0,0,0,0,0.1,0c0.4,0.1,0.4,0.1,0.4,0.6c0,1.3,0,2.6,0,3.9C11.1,16.2,11.1,16.3,11.1,16.4z"/>
		<path class="st0" d="M7.4,16.3c0-0.8,0-1.7,0-2.5c0.5,0.2,1,0.4,1.5,0.6c0,0.6,0,1.3,0,1.9C8.4,16.3,7.9,16.3,7.4,16.3z"/>
		<path class="st0" d="M6.7,16.4c-0.5,0-0.9,0-1.4,0c0.5-0.9,0.9-1.8,1.4-2.7c0,0,0,0,0,0C6.7,14.5,6.7,15.4,6.7,16.4z"/>
	</g>
</g>
</svg>
