<?xml version="1.0" encoding="utf-8"?>
<!-- Generator: Adobe Illustrator 24.2.0, SVG Export Plug-In . SVG Version: 6.00 Build 0)  -->
<svg version="1.1" id="Layer_1" xmlns="http://www.w3.org/2000/svg" xmlns:xlink="http://www.w3.org/1999/xlink" x="0px" y="0px"
	 width="41.8px" height="39.5px" viewBox="0 0 41.8 39.5" style="enable-background:new 0 0 41.8 39.5;" xml:space="preserve">
<style type="text/css">
	.st0{fill:#FFFFFF;}
</style>
<g>
	<path class="st0" d="M16.6,25.5c0.2,0.9,0.4,1.8,0.6,2.7c0.3,1.6,0.7,3.2,1,4.8c0.1,0.4,0,0.8-0.2,1.2c-0.3,0.5-0.6,1-0.9,1.5
		c-0.7,1-1.9,1-2.6,0c-0.3-0.5-0.7-1-1-1.5c-0.2-0.4-0.3-0.8-0.2-1.2c0.3-1.5,0.6-3,0.9-4.6c0.1-0.5,0.5-0.8,0.9-0.6
		c0.4,0.2,0.4,0.5,0.4,0.8c-0.3,1.3-0.5,2.5-0.8,3.8c-0.2,0.6-0.1,1.2,0.3,1.7c0.2,0.2,0.3,0.5,0.5,0.7c0.2,0.3,0.3,0.3,0.5,0
		c0.3-0.4,0.6-0.9,0.9-1.4c0.1-0.1,0.1-0.3,0-0.4c-0.5-2.5-1-5.1-1.6-7.6c-0.1-0.3-0.2-0.4-0.5-0.1c-0.3,0.3-0.6,0.7-1,1
		c-0.7,0.8-1.7,0.7-2.4-0.1c-0.6-0.7-1.3-1.5-1.9-2.2C9.3,24,9.2,23.9,9,23.9c-2.2,0.1-4.2,0.7-5.8,2.3c-1.2,1.1-1.9,2.6-1.9,4.2
		c-0.1,2.3,0,4.7,0,7c0,0.5,0.2,0.7,0.7,0.7c0.9,0,1.8,0,2.7,0c0-0.2,0-0.3,0-0.5c0-1.3,0-2.5,0-3.8c0-0.3,0.1-0.6,0.5-0.8
		c0.5-0.2,0.9,0.2,0.9,0.7c0,1.3,0,2.5,0,3.8c0,0.1,0,0.3,0,0.5c0.2,0,0.4,0,0.5,0c6.4,0,12.7,0,19.1,0c0.1,0,0.3,0,0.4,0
		c0.4,0,0.7,0.3,0.7,0.6c0,0.4-0.2,0.6-0.6,0.7c-0.1,0-0.2,0-0.2,0c-7.9,0-15.8,0-23.8,0c-1,0-1.8-0.5-2-1.5C0,37.8,0,37.5,0,37.3
		c0-2,0-4,0-5.9c-0.1-4.8,3-7.6,6.8-8.4c0.9-0.2,1.9-0.2,2.9-0.3c0.7-0.1,1.3-0.2,1.9-0.4c0.1,0,0.2-0.2,0.2-0.3
		c0.1-0.9,0.1-1.8,0.1-2.7c0-0.1-0.2-0.3-0.3-0.4C10,17.6,8.9,16,8.6,14c-0.1-0.3-0.1-0.6-0.1-0.9c0-2,0-4.1,0-6.1
		C8.6,4.8,9.6,3,11.3,1.7c1.1-0.9,2.3-1.5,3.7-1.6c1.1-0.1,2.2,0.1,3.2,0.5c2.3,1.1,4,2.8,4.5,5.4c0.1,0.5,0.1,1,0.1,1.4
		c0,1.8,0,3.5,0,5.3c0,2.6-1.1,4.6-3.2,6c-0.3,0.2-0.4,0.4-0.4,0.7c0.1,0.8,0.1,1.6,0.1,2.4c0,0.2,0.1,0.3,0.3,0.4
		c1,0.4,2.1,0.3,3.2,0.4c0.6,0.1,1.1,0.2,1.7,0.3c0.4,0.1,0.7,0.4,0.6,0.8c-0.1,0.4-0.4,0.6-0.9,0.5c-0.6-0.1-1.3-0.2-1.9-0.3
		c-0.2,0-0.4,0.1-0.6,0.2c-0.6,0.7-1.3,1.4-1.9,2.1c-0.8,0.9-1.7,0.9-2.5,0.1C17.2,26.1,16.9,25.8,16.6,25.5z M21.6,8.7
		c-0.2,0-0.3-0.1-0.4-0.1C19.3,8.5,17.5,8,16,6.8c-0.3-0.2-0.5-0.2-0.8,0c-1.5,1.1-3.2,1.6-5,1.8C9.9,8.6,9.8,8.7,9.8,9
		c0,1.3,0,2.6,0,3.9c0.1,1.9,0.8,3.5,2.4,4.6c0.6,0.5,1.3,0.9,2,1.3c0.9,0.5,1.8,0.5,2.8,0c0.5-0.3,1-0.6,1.5-0.9
		c1.5-0.9,2.6-2.1,2.8-3.9C21.6,12.3,21.5,10.5,21.6,8.7z M21.5,7.3c0-0.1,0-0.2,0-0.3c0-0.1,0-0.2,0-0.4c-0.3-2-1.4-3.4-3.1-4.4
		c-1-0.6-2-1-3.2-0.9c-2.4,0.2-4.7,2.2-5.2,4.5C9.9,6.3,9.8,6.8,9.8,7.3c1.4,0,3.3-0.6,4.6-1.5c0.8-0.6,1.6-0.6,2.4,0
		C18.2,6.8,19.8,7.2,21.5,7.3z M13.3,19.9c-0.1,1-0.1,2-0.2,3c0,0.1,0.1,0.3,0.2,0.4c1.4,0.8,2.8,0.9,4.2,0.2c0.6-0.3,0.6-0.3,0.6-1
		c0-0.2,0-0.4,0-0.5c0-0.7-0.1-1.4-0.1-2.1C15.7,20.8,15.4,20.8,13.3,19.9z M10.9,23.8c0.4,0.4,0.7,0.8,1,1.1c0.8,0.9,0.8,0.9,1.5,0
		c0,0,0,0,0,0c-0.6-0.4-1.2-0.8-1.8-1.2c0,0,0-0.1,0.1-0.1C11.5,23.6,11.2,23.7,10.9,23.8z M17.9,24.8c0.2,0.2,0.4,0.4,0.6,0.6
		c0.2,0.2,0.3,0.2,0.5,0c0.3-0.4,0.6-0.7,1-1.1c0.2-0.2,0.3-0.4,0.5-0.6c-0.3-0.1-0.6-0.1-0.8-0.2c0,0,0,0.1,0.1,0.1
		C19,24,18.5,24.4,17.9,24.8z"/>
	<path class="st0" d="M39.7,36.1c0,0.5,0,1,0,1.5c0,1.1-0.8,1.9-1.8,1.9c-1,0-1.8-0.8-1.8-1.9c0-0.5,0-1,0-1.5c-1.4,0-2.7,0-4.1,0
		c0,0.5,0,1,0,1.5c0,1.1-0.8,1.9-1.8,1.9c-1,0-1.8-0.8-1.8-1.9c0-0.5,0-1,0-1.5c-0.2,0-0.3,0-0.5-0.1c-0.9-0.2-1.6-1-1.6-2
		c0-1.2,0-2.5,0-3.7c0-3.7,0-7.3,0-11c0-1.6,1-2.8,2.4-3.1c0.5-0.1,0.9-0.1,1.4-0.1c0-1.3,0-2.6,0-3.8c-0.2-0.1-0.5-0.2-0.7-0.4
		c-0.8-0.6-0.9-1.6-0.1-2.3c0.3-0.2,0.6-0.4,1-0.4c2.5,0,5,0,7.5,0c0.8,0,1.5,0.6,1.5,1.5c0,0.4,0-0.4,0,0c0,0.8-0.5,1.3-1.4,1.5
		c0,1.3,0,2.6,0,3.9c0.3,0,0.5,0,0.7,0c1.9,0,3.1,1.3,3.2,3.2c0,3.4,0,6.7,0,10.1c0,1.4,0,2.8,0,4.2C41.9,34.8,41.4,35.9,39.7,36.1z
		 M37.4,30.7c0-0.2,0-0.4,0-0.5c0-3.4,0-6.8,0-10.3c0-0.1,0-0.3,0-0.4c0.1-0.4,0.3-0.6,0.7-0.5c0.4,0,0.6,0.2,0.6,0.6
		c0,0.1,0,0.3,0,0.4c0,3.4,0,6.8,0,10.2c0,0.2,0,0.3,0,0.5c0.6,0,1.2,0,1.7,0c0-0.1,0-0.2,0-0.3c0-3.8,0-7.5,0-11.3
		c0-1.1-0.7-1.7-1.8-1.7c-3.1,0-6.1,0-9.2,0c-1.2,0-1.9,0.7-1.9,1.9c0,4.8,0,9.7,0,14.5c0,0.7,0.2,0.9,0.9,0.9c2.6,0,5.1,0,7.7,0
		c1.2,0,2.4,0,3.5,0c0.4,0,0.7-0.1,0.7-0.5c0-0.7,0-1.4,0-2.2c-0.2,0-0.4,0-0.5,0c-3.4,0-6.8,0-10.3,0c-0.6,0-0.8-0.3-0.8-0.7
		c0-0.4,0.3-0.6,0.8-0.6c1,0,2,0,3,0c0.2,0,0.5,0,0.7,0c0-0.2,0-0.4,0-0.6c0-3.4,0-6.8,0-10.2c0-0.2,0-0.3,0-0.5
		c0.1-0.4,0.3-0.6,0.7-0.5c0.4,0,0.6,0.2,0.6,0.6c0,0.1,0,0.3,0,0.4c0,3.4,0,6.8,0,10.2c0,0.2,0,0.3,0,0.5
		C35.6,30.7,36.5,30.7,37.4,30.7z M36.6,12.2c-1.6,0-3.3,0-4.9,0c-0.1,0-0.2,0.2-0.2,0.3c0,1,0,1.9,0,2.9c0,0.2,0,0.4,0,0.6
		c1.7,0,3.4,0,5.1,0C36.6,14.8,36.6,13.5,36.6,12.2z M34.1,10.9C34.1,10.9,34.1,10.9,34.1,10.9c1,0,2,0,3,0c0.9,0,0.9,0,0.9-1
		c0-0.5,0,0.6-0.6,0.6c-2.1,0-4.1,0-6.2,0c-1.3,0-1.1-1.4-1.1-0.1c0,0.3,0.1,0.4,0.4,0.4C31.7,10.9,32.9,10.9,34.1,10.9z M29.7,36
		c0,0.6,0,1.1,0,1.7c0,0.3,0.2,0.5,0.5,0.4c0.2,0,0.4-0.2,0.4-0.4c0.1-0.6,0-1.1,0-1.7C30.3,36,30,36,29.7,36z M37.4,36
		c0,0.6,0,1.1,0,1.7c0,0.3,0.2,0.5,0.5,0.4c0.2,0,0.4-0.2,0.4-0.4c0.1-0.6,0-1.1,0-1.7C38.1,36,37.8,36,37.4,36z"/>
	<path class="st0" d="M15.6,17c-0.7-0.2-1.3-0.4-1.9-0.6c-0.4-0.2-0.5-0.5-0.4-0.9c0.2-0.3,0.5-0.5,0.9-0.3c0.9,0.4,1.8,0.4,2.7,0
		c0.4-0.2,0.8,0,0.9,0.3c0.2,0.3,0,0.7-0.4,0.9C16.9,16.7,16.3,16.8,15.6,17z"/>
	<path class="st0" d="M30.7,24.3c0,1.5,0,3,0,4.5c0,0.2-0.1,0.5-0.2,0.7c-0.3,0.4-0.9,0.2-1-0.3c0-0.2,0-0.3,0-0.5
		c0-2.9,0-5.9,0-8.8c0-0.1,0-0.1,0-0.2c0-0.5,0.3-0.8,0.7-0.8c0.4,0,0.6,0.3,0.6,0.8C30.7,21.2,30.7,22.8,30.7,24.3z"/>
</g>
</svg>
