<?xml version="1.0" encoding="utf-8"?>
<!-- Generator: Adobe Illustrator 24.2.0, SVG Export Plug-In . SVG Version: 6.00 Build 0)  -->
<svg version="1.1" id="Layer_1" xmlns="http://www.w3.org/2000/svg" xmlns:xlink="http://www.w3.org/1999/xlink" x="0px" y="0px"
	 width="36.9px" height="39.8px" viewBox="0 0 36.9 39.8" style="enable-background:new 0 0 36.9 39.8;" xml:space="preserve">
<style type="text/css">
	.st0{fill:#FFFFFF;}
</style>
<g>
	<g>
		<path class="st0" d="M0.4,39.6c-0.5-0.4-0.5-0.5-0.3-1.1c0.3-0.9,0.6-1.9,0.9-2.8c-0.4,0-0.7,0-1,0c0-0.4,0-0.9,0-1.3
			c1.5,0,3,0,4.6,0c0-4.9,0-9.7,0-14.5c-0.2,0-0.3,0-0.5,0c-0.6,0-0.8-0.2-0.8-0.8c0-0.8,0-1.6,0-2.4c0-0.6,0.2-0.8,0.8-0.8
			c0.2,0,0.3,0,0.5,0c0-1.8,0-3.5,0-5.2c0.5,0,0.9,0,1.3,0c0,1.7,0,3.5,0,5.2c1,0,1.9,0,2.9,0c0.1,0,0.2-0.2,0.3-0.3
			c0.9-1.2,1.9-2.4,2.8-3.7c0.7-0.9,1.5-1.3,2.6-1.3c2.6,0,5.1,0,7.7,0c1.4,0,2.6,0.6,3.2,1.9c0.2,0.4,0.3,1,0.3,1.5
			c0,4.1,0,8.2,0,12.3c0,0,0,0.1,0,0.2c-0.7,0-1.4,0-2.2,0c0.1,0.9,0.2,1.8,0.3,2.7c-0.5,0-0.9,0-1.4,0c0,0.2,0,0.3,0,0.4
			c0,2.1,0,4.2,0,6.3c0,0.2,0.1,0.5,0.2,0.7c0.3,0.7,0.7,1.3,1,2c0.3,0.6,0.2,0.8-0.3,1.2c-3.2,0-6.4,0-9.6,0
			c-0.5-0.3-0.6-0.6-0.3-1.2c0.3-0.7,0.7-1.4,1-2c0.1-0.2,0.1-0.4,0.1-0.6c0-2.1,0-4.2,0-6.4c0-0.1,0-0.2,0-0.4c-0.5,0-0.9,0-1.4,0
			c0.1-0.7,0.2-1.4,0.2-2.1c0.4-3,0.7-6,1.1-9c0.1-0.7,0.1-1.4,0.1-2.1h-0.1c-0.7,1-1.5,2-2.2,3c-0.5,0.7-1.1,1-1.9,1
			c-1.3,0-2.6,0-3.9,0c-0.1,0-0.3,0-0.4,0c0,4.9,0,9.7,0,14.5c1.5,0,3,0,4.6,0c0,0.5,0,0.9,0,1.3c-0.4,0-0.7,0-1,0
			c0.3,1,0.6,1.9,0.9,2.8c0.2,0.6,0.2,0.7-0.3,1.1C6.8,39.6,3.6,39.6,0.4,39.6z M15.7,17.9c0,0.2-0.1,0.4-0.1,0.6
			c-0.2,1.9-0.4,3.8-0.7,5.7c-0.1,0.7,0.1,1,0.9,1c1.7,0,3.4,0,5.2,0c0.7,0,0.9-0.3,0.9-1c-0.2-1.3-0.3-2.5-0.4-3.8
			c-0.1-0.8-0.2-1.7-0.3-2.5C19.3,17.9,17.5,17.9,15.7,17.9z M3.2,38.3c0-0.5,0-0.9,0-1.3c0.4,0,0.9,0,1.3,0c0,0.4,0,0.8,0,1.3
			c0.4,0,0.9,0,1.3,0c0-0.4,0-0.9,0-1.3c0.5,0,0.9,0,1.3,0c0,0.4,0,0.9,0,1.3c0.6,0,1.1,0,1.7,0c-0.3-0.8-0.5-1.6-0.8-2.4
			c0-0.1-0.2-0.2-0.3-0.2c-1.7,0-3.4,0-5.2,0c-0.1,0-0.3,0.1-0.3,0.2C2,36.3,1.9,36.7,1.8,37c-0.1,0.4-0.3,0.8-0.4,1.2
			C2.1,38.3,2.6,38.3,3.2,38.3z M11.3,14.8c-0.5,0.7-1,1.3-1.4,1.9c-0.2,0.3-0.5,0.5-1,0.5c-1.3,0-2.6,0-3.9,0c-0.1,0-0.3,0-0.4,0
			c0,0.5,0,0.9,0,1.3c2,0,3.9,0,5.8,0c0.2,0,0.5-0.1,0.6-0.3c0.6-0.7,1.1-1.5,1.7-2.2C12.2,15.6,11.7,15.2,11.3,14.8z M17.7,35.6
			c0-2.2,0-4.4,0-6.6c-0.7,0-1.3,0-1.9,0c0,2.2,0,4.4,0,6.6C16.4,35.6,17.1,35.6,17.7,35.6z M21,29.1c-0.7,0-1.3,0-1.9,0
			c0,2.2,0,4.4,0,6.5c0.7,0,1.3,0,1.9,0C21,33.4,21,31.3,21,29.1z M24.3,25.1c0-2.9,0-5.7,0-8.5c-0.7,0-1.3,0-2,0
			c0.4,2.9,0.9,5.7,1.3,8.5C23.8,25.1,24.1,25.1,24.3,25.1z M22.1,26.3c-1.3,0.3-2.5,0.1-3.7,0.1s-2.5,0.1-3.7-0.1
			c-0.1,0.5-0.1,1-0.2,1.4c2.6,0,5.2,0,7.7,0C22.2,27.2,22.1,26.7,22.1,26.3z M21,15.2c-1.8,0-3.5,0-5.2,0c0,0.4,0,0.9,0,1.3
			c1.8,0,3.5,0,5.2,0C21,16.1,21,15.7,21,15.2z M24.3,15.2c0.3-2.5-0.9-3.3-1.9-3.2c0,1.1,0,2.1,0,3.2C23,15.2,23.7,15.2,24.3,15.2z
			 M14.4,13.9c0-0.7,0-1.3,0-1.9c-0.6-0.1-1,0.1-1.4,0.5c-0.3,0.4-0.7,0.9-1,1.3c0.5,0.4,0.9,0.7,1.3,1.1
			C13.7,14.5,13.8,14,14.4,13.9z M17.7,37c-0.7,0-1.4,0-2.1,0c-0.1,0-0.2,0-0.2,0.1c-0.2,0.4-0.4,0.8-0.6,1.2c1,0,1.9,0,2.9,0
			C17.7,37.8,17.7,37.4,17.7,37z M21.9,38.3c-0.2-0.4-0.4-0.8-0.6-1.2L21.2,37c-0.7,0-1.4,0-2.1,0c0,0.5,0,0.9,0,1.3
			C20,38.3,21,38.3,21.9,38.3z M15.8,11.9c0,0.7,0,1.3,0,2c0.5,0,0.9,0,1.4,0c-0.4-0.6-0.7-1.2-1.1-1.8C16.1,12,15.9,12,15.8,11.9z
			 M21,12c-0.3,0-1.1,1.1-1.4,1.9c0.5,0,0.9,0,1.4,0C21,13.2,21,12.6,21,12z M18.4,13.3c0.3-0.5,0.5-0.9,0.8-1.3c-0.5,0-1,0-1.6,0
			C17.9,12.4,18.1,12.8,18.4,13.3z"/>
		<path class="st0" d="M28.1,39.6c-0.4-0.2-0.4-0.7-0.5-1.1c-0.4-2.5-0.9-4.9-1.2-7.4c-0.4-3.2,1.7-5.5,4.3-6
			c2.8-0.5,5.4,1.3,6.1,4.1c0.2,0.9,0.1,1.9,0,2.8c-0.4,2.2-0.8,4.5-1.1,6.7c-0.1,0.4-0.2,0.6-0.5,0.8
			C32.7,39.6,30.4,39.6,28.1,39.6z M27.8,31.7c0.4,2.2,0.7,4.4,1.1,6.6c1.8,0,3.6,0,5.5,0c0.4-2.2,0.7-4.4,1.1-6.6
			C32.8,31.7,30.3,31.7,27.8,31.7z M35.5,30.4c-0.1-1.5-0.7-2.6-1.9-3.3c-1.4-0.9-2.9-0.8-4.3,0.1c-1.1,0.8-1.7,1.8-1.7,3.2
			C30.3,30.4,32.9,30.4,35.5,30.4z"/>
		<path class="st0" d="M19.3,1.5c0.8-1.4,2.2-1.7,3.3-1.3c1.1,0.4,1.8,1.5,1.7,2.7c-0.1,1.4-1,2.2-2.6,2.5c0,0.4,0,0.9-0.1,1.4
			c-0.4,1.5-1.7,2.5-3.1,2.5c-1.6,0-2.9-1-3.2-2.6c-0.2-1.2-0.3-2.4,0.3-3.6c0.7-1.3,2.1-2,3.6-1.7C19.2,1.5,19.2,1.5,19.3,1.5z
			 M16.5,6.3c0.1,1.4,1.7,2.1,2.9,1.4c0.9-0.5,1.3-2,0.9-3.1C19.1,5.4,17.8,5.9,16.5,6.3z M21.7,1.4c-0.4,0-0.7,0.2-1,0.5
			c-0.1,0.2-0.1,0.3,0,0.5c0.3,0.4,0.6,0.9,0.8,1.4C21.6,4,21.7,4.1,21.9,4C22.5,3.9,23,3.3,23,2.6S22.4,1.4,21.7,1.4z M19.8,3.3
			c-0.6-0.7-1.5-0.8-2.3-0.4c-0.7,0.4-1.2,1.2-1,2C17.7,4.6,18.8,4.1,19.8,3.3z"/>
	</g>
</g>
</svg>
