<?xml version="1.0" encoding="utf-8"?>
<!-- Generator: Adobe Illustrator 26.0.0, SVG Export Plug-In . SVG Version: 6.00 Build 0)  -->
<svg version="1.1" id="Layer_1" xmlns="http://www.w3.org/2000/svg" xmlns:xlink="http://www.w3.org/1999/xlink" x="0px" y="0px"
	 width="30px" height="30px" viewBox="0 0 30 30" style="enable-background:new 0 0 30 30;" xml:space="preserve">
<style type="text/css">
	.st0{fill:#FFFFFF;}
</style>
<g>
	<g>
		<path class="st0" d="M6.6,8.5c0,3.2,2.6,5.9,5.9,5.9s5.9-2.6,5.9-5.9s-2.6-5.8-5.9-5.8l0,0C9.3,2.7,6.6,5.3,6.6,8.5z M16.1,8.5
			c0,1.9-1.6,3.5-3.5,3.5s-3.5-1.6-3.5-3.5S10.6,5,12.6,5C14.4,5,16,6.5,16.1,8.5L16.1,8.5L16.1,8.5z"/>
		<path class="st0" d="M17.8,26.1c1-0.4,1.9-1.1,2.7-1.7c0.6-0.5,0.8-1.4,0.4-2.1l-1.6-3.1c-0.4-0.9-1.3-1.4-2.2-1.4H7.8
			c-0.9,0-1.8,0.6-2.2,1.4L4,22.3c-0.3,0.7-0.1,1.6,0.4,2.1c1.1,0.9,2.4,1.7,3.8,2.2C11.4,27.7,14.8,27.5,17.8,26.1z"/>
	</g>
	<g>
		<g>
			<path class="st0" d="M19,6C19,6,19,6,19,6c0.2,0.6,0.3,1.3,0.4,1.9c1.4,0.2,2.5,1.4,2.6,2.9c0,1.6-1.3,2.9-2.9,2.9
				c-0.6,0-1.1-0.2-1.6-0.5c-0.5,0.5-1,0.9-1.6,1.2c0.8,0.7,1.9,1.2,3.1,1.2c2.7,0,4.8-2.2,4.8-4.8S21.7,6,19,6z"/>
		</g>
		<path class="st0" d="M26,22.2l-1.3-2.5c-0.4-0.7-1.1-1.1-1.9-1.1h-3c0.1,0.1,0.2,0.3,0.3,0.4l1.8,3.6c0.4,0.8,0.2,1.8-0.5,2.4
			c-0.6,0.5-1.2,1-1.9,1.4c1.3-0.1,2.6-0.4,3.8-1c0.8-0.4,1.5-0.9,2.2-1.4C26.1,23.5,26.3,22.8,26,22.2z"/>
	</g>
</g>
</svg>
