<?xml version="1.0" encoding="utf-8"?>
<!-- Generator: Adobe Illustrator 24.2.0, SVG Export Plug-In . SVG Version: 6.00 Build 0)  -->
<svg version="1.1" id="Layer_1" xmlns="http://www.w3.org/2000/svg" xmlns:xlink="http://www.w3.org/1999/xlink" x="0px" y="0px"
	 width="79.3px" height="79.3px" viewBox="0 0 79.3 79.3" style="enable-background:new 0 0 79.3 79.3;" xml:space="preserve">
<style type="text/css">
	.st0{fill:#FFFFFF;}
</style>
<path class="st0" d="M54.6,39.6L76.2,18c4.1-4.1,4.1-10.8,0-14.9C72.1-1,65.4-1,61.2,3.1L39.6,24.7L18,3.1C13.9-1,7.2-1,3.1,3.1
	C-1,7.2-1,13.8,3.1,18l21.6,21.6L3.1,61.2C-1,65.3-1,72,3.1,76.2c2.1,2.1,4.8,3.1,7.4,3.1c2.7,0,5.4-1,7.4-3.1l21.6-21.6l21.6,21.6
	c2.1,2.1,4.8,3.1,7.4,3.1c2.7,0,5.4-1,7.4-3.1c4.1-4.1,4.1-10.8,0-14.9L54.6,39.6z"/>
</svg>
