<?xml version="1.0" encoding="utf-8"?>
<!-- Generator: Adobe Illustrator 26.0.0, SVG Export Plug-In . SVG Version: 6.00 Build 0)  -->
<svg version="1.1" id="Layer_1" xmlns="http://www.w3.org/2000/svg" xmlns:xlink="http://www.w3.org/1999/xlink" x="0px" y="0px"
	 width="11.9px" height="12.4px" viewBox="0 0 11.9 12.4" style="enable-background:new 0 0 11.9 12.4;" xml:space="preserve">
<style type="text/css">
	.st0{fill-rule:evenodd;clip-rule:evenodd;fill:#4338ca;}
	.st1{fill:#4338ca;}
</style>
<g>
	<path class="st0" d="M10.2,7c0.3-0.3,0.8-0.4,1.2,0l0.3,0.2c0.3,0.3,0.4,0.8,0,1.2l-3.7,4l-1.4,0.1L6.5,11L10.2,7z M11,7.3
		c-0.1-0.1-0.3-0.1-0.4,0l-0.3,0.3L11,8.2l0.3-0.3c0.1-0.1,0.1-0.3,0-0.4L11,7.3z M10.6,8.6L10,8l-2.9,3.1l0,0.6l0.6,0L10.6,8.6z"/>
	<path class="st1" d="M5.5,10.8V8.1h2.3l0.7-0.8h-3v-3h4v1.9l0.8-0.9V0.6C10.3,0.3,10,0,9.7,0H0.6C0.3,0,0,0.3,0,0.6v10.4
		c0,0.3,0.3,0.6,0.6,0.6h4.1L5.5,10.8z M5.5,0.8h4v2.8h-4V0.8z M0.8,0.8h4v2.8h-4V0.8z M0.8,4.3h4v3h-4V4.3z M0.8,8.1h4v2.8h-4V8.1z
		"/>
</g>
</svg>
