<?xml version="1.0" encoding="utf-8"?>
<!-- Generator: Adobe Illustrator 26.0.0, SVG Export Plug-In . SVG Version: 6.00 Build 0)  -->
<svg version="1.1" id="Layer_1" xmlns="http://www.w3.org/2000/svg" xmlns:xlink="http://www.w3.org/1999/xlink" x="0px" y="0px"
	 width="79.3px" height="79.3px" viewBox="0 0 79.3 79.3" style="enable-background:new 0 0 79.3 79.3;" xml:space="preserve">
<style type="text/css">
	.st0{fill:#FFFFFF;}
</style>
<g>
	<rect x="45.3" y="17" class="st0" width="17" height="17"/>
	<path class="st0" d="M8.5,0C3,0,0,3,0,8.5v62.3c0,5.5,3,8.5,8.5,8.5h62.3c5.5,0,8.5-3,8.5-8.5V8.5c0-5.5-3-8.5-8.5-8.5H8.5z
		 M70.8,68c0,1.4-1.4,2.8-2.8,2.8H11.3c-1.4,0-2.8-1.4-2.8-2.8V11.3c0-1.4,1.4-2.8,2.8-2.8H68c1.4,0,2.8,1.4,2.8,2.8L70.8,68
		L70.8,68z"/>
	<rect x="17" y="17" class="st0" width="17" height="17"/>
	<rect x="45.3" y="45.3" class="st0" width="17" height="17"/>
	<rect x="17" y="45.3" class="st0" width="17" height="17"/>
</g>
</svg>
