<?xml version="1.0" encoding="utf-8"?>
<!-- Generator: Adobe Illustrator 26.0.0, SVG Export Plug-In . SVG Version: 6.00 Build 0)  -->
<svg version="1.1" id="Layer_1" xmlns="http://www.w3.org/2000/svg" xmlns:xlink="http://www.w3.org/1999/xlink" x="0px" y="0px"
	 width="34.4px" height="17.2px" viewBox="0 0 34.4 17.2" style="enable-background:new 0 0 34.4 17.2;" xml:space="preserve">
<style type="text/css">
	.st0{fill:#1F272E;}
</style>
<g>
	<path class="st0" d="M34,16.3V0.4C34,0.2,33.8,0,33.5,0h-9.5c-0.2,0-0.4,0.2-0.4,0.4v6.5h-5.6c-0.2,0-0.4,0.2-0.4,0.4v9
		c-0.2,0-0.4,0.2-0.4,0.4s0.2,0.4,0.4,0.4H34c0.2,0,0.4-0.2,0.4-0.4S34.2,16.3,34,16.3z M21.9,16.3h-1.7v-1.7h1.7V16.3z M23.7,16.3
		h-0.9v-2.1c0-0.2-0.2-0.4-0.4-0.4h-2.6c-0.2,0-0.4,0.2-0.4,0.4v2.1h-0.9V7.7h5.2V16.3z M28.4,16.3h-1.7v-2.6h1.7V16.3z M31,16.3
		h-1.7v-2.6H31V16.3z M33.1,16.3h-1.3v-3c0-0.2-0.2-0.4-0.4-0.4h-5.2c-0.2,0-0.4,0.2-0.4,0.4v3h-1.3V0.9h8.6V16.3z"/>
	<path class="st0" d="M25.8,4.7H28c0.2,0,0.4-0.2,0.4-0.4V2.6c0-0.2-0.2-0.4-0.4-0.4h-2.1c-0.2,0-0.4,0.2-0.4,0.4v1.7
		C25.4,4.5,25.6,4.7,25.8,4.7z M26.2,3h1.3v0.9h-1.3V3z"/>
	<path class="st0" d="M29.7,4.7h2.1c0.2,0,0.4-0.2,0.4-0.4V2.6c0-0.2-0.2-0.4-0.4-0.4h-2.1c-0.2,0-0.4,0.2-0.4,0.4v1.7
		C29.2,4.5,29.4,4.7,29.7,4.7z M30.1,3h1.3v0.9h-1.3V3z"/>
	<path class="st0" d="M25.8,8.2H28c0.2,0,0.4-0.2,0.4-0.4V6c0-0.2-0.2-0.4-0.4-0.4h-2.1c-0.2,0-0.4,0.2-0.4,0.4v1.7
		C25.4,8,25.6,8.2,25.8,8.2z M26.2,6.5h1.3v0.9h-1.3V6.5z"/>
	<path class="st0" d="M29.7,8.2h2.1c0.2,0,0.4-0.2,0.4-0.4V6c0-0.2-0.2-0.4-0.4-0.4h-2.1c-0.2,0-0.4,0.2-0.4,0.4v1.7
		C29.2,8,29.4,8.2,29.7,8.2z M30.1,6.5h1.3v0.9h-1.3V6.5z"/>
	<path class="st0" d="M25.8,11.6H28c0.2,0,0.4-0.2,0.4-0.4V9.5C28.4,9.2,28.2,9,28,9h-2.1c-0.2,0-0.4,0.2-0.4,0.4v1.7
		C25.4,11.4,25.6,11.6,25.8,11.6z M26.2,9.9h1.3v0.9h-1.3V9.9z"/>
	<path class="st0" d="M29.7,11.6h2.1c0.2,0,0.4-0.2,0.4-0.4V9.5c0-0.2-0.2-0.4-0.4-0.4h-2.1c-0.2,0-0.4,0.2-0.4,0.4v1.7
		C29.2,11.4,29.4,11.6,29.7,11.6z M30.1,9.9h1.3v0.9h-1.3V9.9z"/>
	<path class="st0" d="M20.2,9.5h1.7c0.2,0,0.4-0.2,0.4-0.4s-0.2-0.4-0.4-0.4h-1.7c-0.2,0-0.4,0.2-0.4,0.4S20,9.5,20.2,9.5z"/>
	<path class="st0" d="M20.2,11.2h1.7c0.2,0,0.4-0.2,0.4-0.4c0-0.2-0.2-0.4-0.4-0.4h-1.7c-0.2,0-0.4,0.2-0.4,0.4
		C19.8,11,20,11.2,20.2,11.2z"/>
	<path class="st0" d="M20.2,12.9h1.7c0.2,0,0.4-0.2,0.4-0.4S22.2,12,21.9,12h-1.7c-0.2,0-0.4,0.2-0.4,0.4S20,12.9,20.2,12.9z"/>
</g>
</svg>
