<svg xmlns="http://www.w3.org/2000/svg" xmlns:xlink="http://www.w3.org/1999/xlink" version="1.1" id="Layer_1" x="0px" y="0px" width="20" height="20" viewBox="0 0 104.6 79.3" style="enable-background:new 0 0 104.6 79.3;" xml:space="preserve">
<style type="text/css">
	.st0{fill:#FFFFFF;}
</style>
<path class="st0" d="M100.7,46H100v-5.2c0-3.8-2.2-7.3-5.8-9.2V13.2C94.3,5.9,87.8,0,79.9,0H24.7c-7.9,0-14.3,5.9-14.3,13.2v18.4  c-3.6,2-5.8,5.4-5.8,9.2V46H4.1c-0.1,0-0.3,0-0.5,0C1.5,46.2,0,47.9,0,50v13.8c0,2.2,1.8,4,4,4h0.6v7.5c0,2.2,1.8,4,4,4h11.5  c2.2,0,4-1.8,4-4v-7.5h56.5v7.5c0,2.2,1.8,4,4,4H96c2.2,0,4-1.8,4-4v-7.5h0.6c2.2,0,4-1.8,4-4V50C104.6,47.8,102.8,46,100.7,46z   M92.1,67.8v3.5h-3.5v-3.5H92.1z M16.1,67.8v3.5h-3.5v-3.5H16.1z M31,24.7c0-1.7,1.3-2.9,2.9-2.9h11.5c1.7,0,2.9,1.3,2.9,2.9V27  c0,1.7-1.3,2.9-2.9,2.9H33.9c-1.7,0-2.9-1.3-2.9-2.9V24.7z M56.3,24.7c0-1.7,1.3-2.9,2.9-2.9h11.5c1.7,0,2.9,1.3,2.9,2.9V27  c0,1.7-1.3,2.9-2.9,2.9H59.2c-1.7,0-2.9-1.3-2.9-2.9V24.7z M86.3,29.9h-5.1c0.3-1,0.4-1.9,0.4-2.9v-2.3c0-6-4.9-10.9-10.9-10.9H59.2  c-2.5,0-5,0.9-6.9,2.5c-1.9-1.6-4.4-2.5-6.9-2.5H33.9c-6,0-10.9,4.9-10.9,10.9V27c0,1,0.1,2,0.4,2.9h-5.1V13.2  c0-2.8,2.9-5.2,6.4-5.2h55.2c3.5,0,6.4,2.4,6.4,5.2V29.9z M12.6,46v-5.2c0-1.3,1.8-2.9,4.1-2.9H88c2.3,0,4.1,1.6,4.1,2.9V46H12.6z   M96.7,54v5.8H8V54H96.7z"/>
</svg>