<?xml version="1.0" encoding="utf-8"?>
<!-- Generator: Adobe Illustrator 24.2.0, SVG Export Plug-In . SVG Version: 6.00 Build 0)  -->
<svg version="1.1" id="Layer_1" xmlns="http://www.w3.org/2000/svg" xmlns:xlink="http://www.w3.org/1999/xlink" x="0px" y="0px"
	 width="39.3px" height="39.5px" viewBox="0 0 39.3 39.5" style="enable-background:new 0 0 39.3 39.5;" xml:space="preserve">
<style type="text/css">
	.st0{fill:#FFFFFF;}
</style>
<circle class="st0" cx="8.7" cy="8.7" r="2.8"/>
<path class="st0" d="M8,23.8c0,2.1,1.7,3.7,3.7,3.7s3.7-1.7,3.7-3.7S13.8,20,11.7,20l0,0C9.7,20,8,21.7,8,23.8z M14,23.8
	c0,1.2-1,2.2-2.2,2.2c-1.2,0-2.2-1-2.2-2.2c0-1.2,1-2.2,2.2-2.2C13,21.5,14,22.5,14,23.8L14,23.8z"/>
<path class="st0" d="M7.3,30.6l-1,2c-0.2,0.5-0.1,1,0.3,1.3C7.3,34.5,8.1,35,9,35.3c2,0.7,4.2,0.6,6.1-0.3c0.6-0.3,1.2-0.7,1.7-1.1
	c0.4-0.3,0.5-0.9,0.3-1.3l-1-2c-0.3-0.5-0.8-0.9-1.4-0.9h-6C8.1,29.7,7.6,30.1,7.3,30.6z"/>
<path class="st0" d="M20.5,4.5c4-4,10.5-4,14.5,0S39,15,35,19c-1.9,1.9-4.5,3-7.2,3v1.5c6.5,0,11.7-5.3,11.7-11.8S34.2,0,27.7,0
	c-3.1,0-6.1,1.2-8.3,3.4c-4.6,4.6-4.7,12.1-0.2,16.8C23.1,24.4,23,31,19,35c-4,4-10.5,4-14.5,0s-4-10.5,0-14.5c1.9-1.9,4.5-3,7.2-3
	V16C5.3,16,0,21.3,0,27.8c0,6.5,5.3,11.7,11.8,11.7c3.1,0,6.1-1.2,8.3-3.4c4.6-4.6,4.7-12.1,0.2-16.8C16.3,15.1,16.4,8.5,20.5,4.5z"
	/>
<path class="st0" d="M24,7.7c0,2.1,1.7,3.7,3.7,3.7s3.7-1.7,3.7-3.7S29.8,4,27.7,4l0,0C25.7,4,24,5.7,24,7.7z M30,7.7
	C30,9,29,10,27.8,10c-1.2,0-2.2-1-2.2-2.2c0-1.2,1-2.2,2.2-2.2C29,5.5,30,6.5,30,7.7L30,7.7L30,7.7z"/>
<path class="st0" d="M31.1,19c0.6-0.3,1.2-0.7,1.7-1.1c0.4-0.3,0.5-0.9,0.3-1.3l-1-2c-0.3-0.5-0.8-0.9-1.4-0.9h-6
	c-0.6,0-1.2,0.3-1.4,0.9l-1,2c-0.2,0.5-0.1,1,0.3,1.3c0.7,0.6,1.5,1.1,2.4,1.4C27,20,29.2,19.9,31.1,19z"/>
<polygon class="st0" points="2.5,2.5 13.7,2.5 13.7,1 1,1 1,13.7 2.5,13.7 "/>
<circle class="st0" cx="30.7" cy="30.8" r="2.8"/>
<polygon class="st0" points="37,37 25.7,37 25.7,38.5 38.5,38.5 38.5,25.8 37,25.8 "/>
</svg>
