<?xml version="1.0" encoding="utf-8"?>
<!-- Generator: Adobe Illustrator 26.0.0, SVG Export Plug-In . SVG Version: 6.00 Build 0)  -->
<svg version="1.1" id="Layer_1" xmlns="http://www.w3.org/2000/svg" xmlns:xlink="http://www.w3.org/1999/xlink" x="0px" y="0px"
	 width="30px" height="30px" viewBox="0 0 30 30" style="enable-background:new 0 0 30 30;" xml:space="preserve">
<style type="text/css">
	.st0{fill:#495057;}
</style>
<g>
	<g>
		<path class="st0" d="M6.1,8.5c0,3.2,2.6,5.9,5.9,5.9s5.9-2.6,5.9-5.9S15.3,2.7,12,2.7l0,0C8.8,2.7,6.1,5.3,6.1,8.5z M15.6,8.5
			c0,1.9-1.6,3.5-3.5,3.5s-3.5-1.6-3.5-3.5S10.1,5,12.1,5C13.9,5,15.5,6.5,15.6,8.5L15.6,8.5L15.6,8.5z"/>
		<path class="st0" d="M17.3,26.1c1-0.4,1.9-1.1,2.7-1.7c0.6-0.5,0.8-1.4,0.4-2.1l-1.6-3.1c-0.4-0.9-1.3-1.4-2.2-1.4H7.3
			c-0.9,0-1.8,0.6-2.2,1.4l-1.6,3.1c-0.3,0.7-0.1,1.6,0.4,2.1c1.1,0.9,2.4,1.7,3.8,2.2C10.9,27.7,14.3,27.5,17.3,26.1z"/>
	</g>
	<g>
		<path class="st0" d="M18.4,3.7c-0.4,0-0.7,0-1.1,0.1c0.6,0.6,1,1.3,1.3,2.1c1.7,0.1,3.1,1.5,3.2,3.3c0,1.8-1.5,3.4-3.4,3.4
			c-0.2,0-0.4,0-0.6-0.1c-0.5,0.7-1.1,1.4-1.9,1.9c0.7,0.3,1.5,0.5,2.3,0.5c3.2,0,5.7-2.5,5.7-5.7C24,6.1,21.5,3.7,18.4,3.7z"/>
	</g>
	<path class="st0" d="M26.4,22.5l-1.5-3c-0.4-0.9-1.2-1.3-2.1-1.3h-3.2c0,0,0.1,0.1,0.1,0.1l2.1,4c0.5,0.9,0.3,2.1-0.5,2.7
		c-1,0.8-2.2,1.7-3.5,2.2c0,0-0.1,0-0.1,0c2,0.1,4-0.3,5.9-1.1c1-0.4,1.8-1.1,2.6-1.6C26.6,24,26.8,23.2,26.4,22.5z"/>
</g>
</svg>
