<?xml version="1.0" encoding="utf-8"?>
<!-- Generator: Adobe Illustrator 24.2.0, SVG Export Plug-In . SVG Version: 6.00 Build 0)  -->
<svg version="1.1" id="Layer_1" focusable="false" xmlns="http://www.w3.org/2000/svg" xmlns:xlink="http://www.w3.org/1999/xlink"
	 x="0px" y="0px" width="28.6px" height="17.8px" viewBox="0 0 28.6 17.8" style="enable-background:new 0 0 28.6 17.8;"
	 xml:space="preserve">
<style type="text/css">
	.st0{fill:url(#SVGID_1_);}
	.st1{fill:url(#SVGID_2_);}
</style>
<linearGradient id="SVGID_1_" gradientUnits="userSpaceOnUse" x1="22.2808" y1="8.567" x2="28.5595" y2="8.567">
	<stop  offset="0" style="stop-color:#03242A"/>
	<stop  offset="1" style="stop-color:#00232A"/>
</linearGradient>
<path class="st0" d="M28.6,10.1l-0.4-3.4c0,0,0,0,0,0C28,6,27.5,5.4,26.9,5.2c-0.1-0.1-0.3,0-0.4,0c0,0-0.1,0-0.2,0.1V4.9
	c0.3-0.2,0.6-0.6,0.8-1c0,0,0,0,0,0c0,0,0,0,0.1,0c0.3,0,0.6-0.2,0.6-0.6c0-0.2,0-0.4-0.1-0.5c0,0,0,0,0,0c0-0.2,0.1-0.3,0.1-0.5V2
	c0-1.1-1-2-2.1-2h-0.4c-1.2,0-2.1,0.9-2.1,2v0.3c0,0.2,0,0.3,0.1,0.5c0,0,0,0,0,0C23,3,23,3.2,23,3.3c0.1,0.3,0.3,0.6,0.6,0.6
	c0,0,0,0,0.1,0c0,0,0,0,0,0c0.2,0.4,0.5,0.8,0.8,1v0.3c-0.1,0-0.1,0-0.2-0.1c-0.1-0.1-0.3-0.1-0.4,0c-0.6,0.2-1.1,0.8-1.3,1.5
	l-0.4,3.4c0,0.1,0,0.1,0,0.1c0,0,0,0,0,0l0,0.1c0,0.2,0,0.4,0.2,0.5c0.1,0.1,0.3,0.2,0.5,0.2h0.3l0,0.1l0,4.6
	c-0.4,0.1-0.7,0.5-0.7,0.9v0.1c0,0.1,0.1,0.3,0.3,0.3l2.1,0c0.1,0,0.3-0.1,0.3-0.3v-0.4c0-0.1,0-0.2-0.1-0.3
	c0.1-0.1,0.1-0.1,0.1-0.2l0.1-4.2c0-0.1,0-0.1,0-0.1s0,0,0,0.1l0.1,4.2c0,0.1,0,0.2,0.1,0.2c0,0.1-0.1,0.2-0.1,0.3v0.4
	c0,0.1,0.1,0.3,0.3,0.3H28c0.1,0,0.3-0.1,0.3-0.3v-0.1c0-0.4-0.3-0.8-0.7-0.9l0-4.6l0-0.1h0.3c0.2,0,0.4-0.1,0.5-0.2
	c0.1-0.1,0.2-0.3,0.2-0.5l0-0.1c0,0,0,0,0,0C28.5,10.3,28.6,10.2,28.6,10.1L28.6,10.1z M28.2,10h-0.6l0-0.1L28.2,10L28.2,10z
	 M28.1,9.5h-0.6l0-0.1L28.1,9.5L28.1,9.5z M26.3,6.6l0.1,0.5l-0.6,0.4l0.8-1.7l0.2,0.4l-0.4,0.3C26.3,6.4,26.3,6.5,26.3,6.6
	L26.3,6.6z M24.5,6.4L24,6.1l0.2-0.4L25,7.4l-0.6-0.4l0.1-0.5C24.5,6.5,24.5,6.4,24.5,6.4L24.5,6.4z M24.6,5.6c0.1,0,0.1,0,0.2,0
	L25,6.3c0,0,0,0,0,0l0,0.1L24.6,5.6z M25.5,6.1h-0.2l-0.1-0.4c0.1,0,0.1,0,0.2,0c0.1,0,0.1,0,0.2,0L25.5,6.1z M25.3,6.5h0.2L25.6,7
	l-0.2,0.4L25.3,7L25.3,6.5z M25.9,6.3C25.9,6.3,25.9,6.3,25.9,6.3L26,5.7c0.1,0,0.2,0,0.2,0L25.9,6.3L25.9,6.3z M27.5,3.3
	c0,0.1-0.1,0.3-0.2,0.3c0.1-0.2,0.1-0.4,0.1-0.6c0,0,0.1,0,0.1,0.1C27.4,3.1,27.5,3.2,27.5,3.3L27.5,3.3z M23.4,3.3
	c0-0.1,0-0.2,0.1-0.2c0,0,0,0,0.1-0.1c0,0.2,0.1,0.4,0.1,0.6C23.5,3.5,23.4,3.4,23.4,3.3L23.4,3.3z M23.7,2.1
	c-0.1,0-0.2,0.1-0.2,0.1c0,0.1,0,0.3-0.1,0.4c0,0,0,0,0,0c0-0.1,0-0.2,0-0.3V2c0-0.9,0.8-1.6,1.8-1.6h0.4c1,0,1.8,0.7,1.8,1.6v0.3
	c0,0.1,0,0.2,0,0.3c0,0,0,0,0,0c0-0.1,0-0.3-0.1-0.4c0-0.1-0.1-0.1-0.2-0.1c-0.6,0-1.1-0.3-1.4-0.7c-0.1-0.1-0.4-0.1-0.5,0
	C24.8,1.8,24.3,2.1,23.7,2.1L23.7,2.1z M23.9,2.7c0-0.1,0-0.2,0-0.3c0.6,0,1.1-0.3,1.5-0.7c0.4,0.4,0.9,0.7,1.5,0.7
	c0,0.1,0,0.2,0,0.3c0,1-0.7,2.1-1.5,2.1S23.9,3.7,23.9,2.7L23.9,2.7z M24.9,5.1c0.2,0.1,0.3,0.1,0.5,0.1c0.2,0,0.3,0,0.5-0.1v0.2
	c-0.1,0-0.3,0-0.5,0c-0.2,0-0.3,0-0.5,0V5.1z M23,6.8c0.1-0.5,0.4-0.9,0.8-1.2l-0.2,0.5c0,0.1,0,0.2,0.1,0.2l0.4,0.3L24,7.1
	c0,0.1,0,0.2,0.1,0.2L25.3,8c0,0,0.1,0,0.1,0c0,0,0.1,0,0.1,0L26,7.7l0.7-0.4c0.1,0,0.1-0.1,0.1-0.2l-0.1-0.5l0.4-0.3
	c0.1-0.1,0.1-0.2,0.1-0.2L27,5.6c0.4,0.2,0.7,0.7,0.8,1.1l0.3,2.3h-0.5l-0.1-1.3c0-0.1-0.1-0.2-0.2-0.2c-0.1,0-0.2,0.1-0.2,0.2
	c0,0,0,0,0,0l0.1,2.6l-3.6,0l0.1-2.6c0,0,0,0,0,0c0-0.1-0.1-0.2-0.2-0.2c-0.1,0-0.2,0.1-0.2,0.2l-0.1,1.3h-0.6L23,6.8z M23.3,9.5
	h-0.6l0-0.1L23.3,9.5L23.3,9.5z M22.7,9.9h0.6l0,0.1L22.7,9.9L22.7,9.9z M23,10.8c-0.1,0-0.2,0-0.2-0.1c-0.1-0.1-0.1-0.1-0.1-0.2
	l0-0.1h0.5l0,0.1c0,0.1,0,0.1,0.1,0.1c0,0,0,0,0.1,0l0,0.1L23,10.8z M24.8,16.8H23c0-0.3,0.2-0.5,0.4-0.5c0,0,0.1,0.1,0.1,0.1h1.2
	c0,0,0.1,0.1,0.1,0.1V16.8z M25.4,11.3c-0.2,0-0.4,0.2-0.4,0.4l-0.1,4.2h-1.2l0-4.7l0-0.6h3.4l0,0.6l0,4.7H26l-0.1-4.2
	C25.8,11.5,25.6,11.3,25.4,11.3L25.4,11.3z M27.9,16.8H26v-0.3c0-0.1,0-0.1,0.1-0.1h1.2c0.1,0,0.1,0,0.1-0.1
	C27.7,16.3,27.9,16.5,27.9,16.8L27.9,16.8z M28,10.7c-0.1,0.1-0.1,0.1-0.2,0.1h-0.4l0-0.1c0,0,0,0,0.1,0c0,0,0.1-0.1,0.1-0.1l0-0.1
	h0.5l0,0.1C28.1,10.6,28.1,10.6,28,10.7L28,10.7z M25.2,8.6c0-0.1,0.1-0.2,0.2-0.2c0.1,0,0.2,0.1,0.2,0.2c0,0.1-0.1,0.2-0.2,0.2
	C25.3,8.9,25.2,8.8,25.2,8.6z M25.2,9.3c0-0.1,0.1-0.2,0.2-0.2c0.1,0,0.2,0.1,0.2,0.2c0,0.1-0.1,0.2-0.2,0.2
	C25.3,9.5,25.2,9.4,25.2,9.3z M25.2,9.9c0-0.1,0.1-0.2,0.2-0.2c0.1,0,0.2,0.1,0.2,0.2c0,0.1-0.1,0.2-0.2,0.2
	C25.3,10.1,25.2,10,25.2,9.9z M25.4,4.2c-0.3,0-0.5-0.2-0.5-0.4c0-0.1,0.1-0.1,0.1-0.1c0.1,0,0.1,0.1,0.1,0.1c0,0,0.1,0.1,0.2,0.1
	c0.2,0,0.2-0.1,0.2-0.1c0-0.1,0.1-0.1,0.1-0.1c0.1,0,0.1,0.1,0.1,0.1C25.9,4.1,25.7,4.2,25.4,4.2L25.4,4.2z M24.9,3
	c0,0.1-0.1,0.3-0.2,0.3S24.4,3.2,24.4,3s0.1-0.3,0.2-0.3C24.8,2.8,24.9,2.9,24.9,3z M26,3c0-0.1,0.1-0.3,0.2-0.3
	c0.1,0,0.2,0.1,0.2,0.3s-0.1,0.3-0.2,0.3S26,3.2,26,3z"/>
<linearGradient id="SVGID_2_" gradientUnits="userSpaceOnUse" x1="2.729252e-02" y1="9.5727" x2="24.0273" y2="9.5727">
	<stop  offset="0" style="stop-color:#FFAC37"/>
	<stop  offset="1" style="stop-color:#00232A"/>
</linearGradient>
<path class="st1" d="M21.7,7L20,3.2c-0.4-1.1-1.5-1.9-2.8-1.9H6.8C5.6,1.3,4.5,2.1,4,3.3L2.3,7c-0.2,0.4,0,0.8,0.4,1
	c0.4,0.2,0.8,0,1-0.4c0,0,0,0,0,0l1.7-3.8c0.2-0.6,0.8-1,1.4-1h10.4c0.6,0,1.2,0.4,1.4,1l1.7,3.8c0.2,0.4,0.6,0.6,1,0.4
	C21.7,7.9,21.9,7.4,21.7,7C21.7,7,21.7,7,21.7,7z M0.8,14v1.5c0,1.2,1,2.3,2.3,2.3s2.3-1,2.3-2.3v-1.5c0-0.4-0.3-0.8-0.8-0.8
	s-0.8,0.3-0.8,0.8v1.5c0,0.4-0.3,0.8-0.8,0.8S2.3,16,2.3,15.6V14c0-0.4-0.3-0.8-0.8-0.8S0.8,13.6,0.8,14z M21.8,14v1.5
	c0,0.4-0.3,0.8-0.8,0.8s-0.8-0.3-0.8-0.8v-1.5c0-0.4-0.3-0.8-0.8-0.8s-0.8,0.3-0.8,0.8v1.5c0,1.2,1,2.3,2.3,2.3s2.3-1,2.3-2.3V14
	c0-0.4-0.3-0.8-0.8-0.8S21.8,13.6,21.8,14z M19.9,11.1c-0.2,0-0.4-0.2-0.4-0.4c0,0.4,0.3,0.8,0.8,0.8s0.8-0.3,0.8-0.8
	c0-0.6-0.5-1.1-1.1-1.1c-0.4,0-0.8,0.3-0.8,0.8S19.5,11.1,19.9,11.1z M20.3,10.7c0,0.2-0.2,0.4-0.4,0.4c0.4,0,0.8-0.3,0.8-0.8
	s-0.3-0.8-0.8-0.8c-0.6,0-1.1,0.5-1.1,1.1c0,0.4,0.3,0.8,0.8,0.8S20.3,11.1,20.3,10.7z M19.9,10.3c0.2,0,0.4,0.2,0.4,0.4
	c0-0.4-0.3-0.8-0.8-0.8s-0.8,0.3-0.8,0.8c0,0.6,0.5,1.1,1.1,1.1c0.4,0,0.8-0.3,0.8-0.8S20.3,10.3,19.9,10.3z M19.5,10.7
	c0-0.2,0.2-0.4,0.4-0.4c-0.4,0-0.8,0.3-0.8,0.8s0.3,0.8,0.8,0.8c0.6,0,1.1-0.5,1.1-1.1c0-0.4-0.3-0.8-0.8-0.8S19.5,10.3,19.5,10.7z
	 M4.2,9.6C3.5,9.6,3,10.1,3,10.7c0,0.4,0.3,0.8,0.8,0.8s0.8-0.3,0.8-0.8c0,0.2-0.2,0.4-0.4,0.4c0.4,0,0.8-0.3,0.8-0.8
	S4.6,9.6,4.2,9.6z M5.3,10.7c0-0.6-0.5-1.1-1.1-1.1c-0.4,0-0.8,0.3-0.8,0.8s0.3,0.8,0.8,0.8c-0.2,0-0.4-0.2-0.4-0.4
	c0,0.4,0.3,0.8,0.8,0.8S5.3,11.1,5.3,10.7z M4.2,11.8c0.6,0,1.1-0.5,1.1-1.1c0-0.4-0.3-0.8-0.8-0.8s-0.8,0.3-0.8,0.8
	c0-0.2,0.2-0.4,0.4-0.4c-0.4,0-0.8,0.3-0.8,0.8S3.7,11.8,4.2,11.8z M3,10.7c0,0.6,0.5,1.1,1.1,1.1c0.4,0,0.8-0.3,0.8-0.8
	s-0.3-0.8-0.8-0.8c0.2,0,0.4,0.2,0.4,0.4c0-0.4-0.3-0.8-0.8-0.8S3,10.3,3,10.7z M2.8,8.1h18.5c0.7,0,1.3,0.6,1.3,1.3v3.8
	c0,0.1-0.1,0.3-0.3,0.3H1.8c-0.1,0-0.3-0.1-0.3-0.3V9.3C1.5,8.6,2.1,8.1,2.8,8.1z M2.8,6.6C1.3,6.6,0,7.8,0,9.3v3.8
	c0,1,0.8,1.8,1.8,1.8h20.5c1,0,1.8-0.8,1.8-1.8V9.3c0-1.5-1.2-2.8-2.8-2.8H2.8z"/>
</svg>
