<?xml version="1.0" encoding="utf-8"?>
<!-- Generator: Adobe Illustrator 26.0.0, SVG Export Plug-In . SVG Version: 6.00 Build 0)  -->
<svg version="1.1" id="Layer_1" xmlns="http://www.w3.org/2000/svg" xmlns:xlink="http://www.w3.org/1999/xlink" x="0px" y="0px"
	 width="79.3px" height="79.3px" viewBox="0 0 79.3 79.3" style="enable-background:new 0 0 79.3 79.3;" xml:space="preserve">
<style type="text/css">
	.st0{fill:#4338ca;}
</style>
<path class="st0" d="M47.8,31.5V8.1c0-4.5-3.6-8.1-8.1-8.1c-4.5,0-8.1,3.6-8.1,8.1l0,23.4l-23.4,0c-4.5,0-8.1,3.6-8.1,8.1
	s3.6,8,8.1,8.1h23.4l0,23.4c0,4.5,3.6,8.1,8.1,8.1c2.3,0,4.3-0.9,5.7-2.3c1.5-1.5,2.4-3.5,2.3-5.7V47.8h23.4c2.3,0,4.3-0.9,5.7-2.3
	c1.5-1.5,2.4-3.5,2.3-5.7c0-4.5-3.6-8.1-8.1-8.1L47.8,31.5z"/>
</svg>
