<svg version="1.2" xmlns="http://www.w3.org/2000/svg" viewBox="0 0 27 18" width="27" height="18"><defs><linearGradient id="P" gradientUnits="userSpaceOnUse"/><radialGradient id="g1" cx="20.7" cy="13.2" r="3.6" href="#P"><stop stop-color="#fff" stop-opacity="1"/><stop offset=".49" stop-color="#c8cacc" stop-opacity=".9"/><stop offset="1" stop-opacity=".6"/></radialGradient><linearGradient id="g2" x1="-8" y1="15.2" x2="6.7" y2="15.2" href="#P"><stop stop-color="#fff" stop-opacity="0"/><stop offset="1" stop-color="#1f272e" stop-opacity="1"/></linearGradient><linearGradient id="g3" x1="-0.6" y1="5.8" x2="9.4" y2="5.8" href="#P"><stop stop-color="#fff" stop-opacity="0"/><stop offset="1" stop-color="#333" stop-opacity="1"/></linearGradient><linearGradient id="g4" x1="-3.3" y1="9" x2="8.5" y2="9" href="#P"><stop stop-color="#fff" stop-opacity="0"/><stop offset="1" stop-color="#414042" stop-opacity="1"/></linearGradient><linearGradient id="g5" x1="-6.3" y1="12.1" x2="7.7" y2="12.1" href="#P"><stop stop-color="#fff" stop-opacity="0"/><stop offset="1" stop-color="#414042" stop-opacity="1"/></linearGradient></defs><style>.a{fill:url(#g1)}.b{fill:#1f272e}.c{fill:url(#g2)}.d{fill:url(#g3)}.e{fill:url(#g4)}.f{fill:url(#g5)}</style><path class="a" d="m24.3 13.2c-0.5 2-2.5 3.6-4.5 3.6-2 0-3.1-1.6-2.6-3.6 0.5-2 2.5-3.6 4.5-3.6 2 0 3.1 1.6 2.6 3.6z"/><path fill-rule="evenodd" class="b" d="m14.9 8l-0.2 1.2c-0.1 0.4-0.6 0.8-1 0.8h-1.2c-0.5 0-0.7-0.4-0.6-0.8l0.3-1.2c0.1-0.4 0.6-0.8 1-0.8h1.2c0.4 0 0.7 0.4 0.5 0.8zm-1 1.2l0.3-1.2h-1.2l-0.3 1.2z"/><path fill-rule="evenodd" class="b" d="m13.9 12l-0.3 1.2c-0.1 0.4-0.6 0.8-1 0.8h-1.2c-0.5 0-0.7-0.4-0.6-0.8l0.3-1.2c0.1-0.4 0.6-0.8 1-0.8h1.2c0.5 0 0.7 0.3 0.6 0.8zm-1.1 1.1l0.3-1.2h-1.2l-0.3 1.2z"/><path fill-rule="evenodd" class="b" d="m16 9.2l0.3-1.2c0.1-0.4 0.6-0.8 1-0.8h1.2c0.5 0 0.7 0.4 0.6 0.8l-0.3 1.2c-0.1 0.4-0.6 0.8-1 0.8h-1.2c-0.4 0-0.7-0.4-0.6-0.8zm0.8 0h1.2l0.3-1.2h-1.2z"/><path fill-rule="evenodd" class="b" d="m23.2 15.6c-1.7 1.8-4.3 2.1-5.7 0.8h-7.5c-1.1 0-1.8-0.9-1.5-2l2.8-10.7c0.3-1.1 1.4-2 2.5-2h0.8l0.1-0.4c0.2-0.7 0.8-1.2 1.5-1.2 0.7 0 1.1 0.5 0.9 1.2l-0.1 0.4h4.6l0.1-0.4c0.2-0.7 0.8-1.2 1.5-1.2 0.7 0 1.1 0.5 0.9 1.2l-0.1 0.4h0.8c1.1 0 1.8 0.9 1.5 2l-1.8 7.1c0.7 1.4 0.2 3.3-1.3 4.8zm-1-12.7c0 0.2 0.1 0.4 0.3 0.4 0.2 0 0.4-0.2 0.5-0.4l0.4-1.6c0-0.2-0.1-0.4-0.3-0.4-0.2 0-0.4 0.2-0.5 0.4zm-7.1 0c0 0.2 0.1 0.4 0.3 0.4 0.2 0 0.4-0.2 0.5-0.4l0.4-1.6c0-0.2-0.1-0.4-0.3-0.4-0.2 0-0.4 0.2-0.5 0.4zm-3 0.8l-0.4 1.6h13.5l0.4-1.6c0.1-0.7-0.2-1.2-0.9-1.2h-0.8l-0.1 0.4c-0.2 0.7-0.8 1.2-1.5 1.2-0.7 0-1.1-0.5-0.9-1.2l0.1-0.4h-4.7l-0.1 0.4c-0.2 0.7-0.8 1.2-1.5 1.2-0.7 0-1.1-0.5-0.9-1.2l0.1-0.4h-0.8c-0.6 0-1.3 0.5-1.5 1.2zm-1.8 11.9h6.7c-0.2-0.5-0.3-1-0.3-1.6h-0.9c-0.5 0-0.7-0.4-0.6-0.8l0.3-1.2c0.1-0.4 0.6-0.8 1-0.8h1.3c0.6-0.8 1.4-1.4 2.3-1.7q0-0.2 0-0.3l0.3-1.2c0.1-0.4 0.6-0.8 1-0.8h1.2c0.5 0 0.7 0.4 0.6 0.8l-0.2 1.2c0 0.1-0.1 0.1-0.1 0.2 0.4 0.1 0.7 0.3 1 0.6l1-4h-13.4l-2.1 8.3c-0.2 0.7 0.2 1.2 0.9 1.3zm11.9-6.4l0.3-1.2h-1.2l-0.3 1.2zm-4.9 2.7h-1l-0.3 1.2h0.8c0.1-0.4 0.2-0.8 0.5-1.2zm6.6 1.2c0.5-1.8-0.6-3.2-2.3-3.2-1.8 0-3.5 1.5-4 3.2-0.5 1.8 0.6 3.2 2.3 3.2 1.7 0 3.5-1.4 4-3.2z"/><path class="b" d="m21.5 12.2l-0.7 0.6-0.8-1.2c-0.1-0.2-0.4-0.2-0.6 0-0.2 0.2-0.3 0.4-0.1 0.6l1 1.4c0.1 0.2 0.4 0.2 0.6 0l1.1-0.8c0.2-0.2 0.3-0.4 0.1-0.6-0.1-0.1-0.4-0.1-0.6 0z"/><path class="c" d="m6.7 14.7h-14.7v1h14.5z"/><path class="d" d="m9.4 5.4h-10v0.9h9.7z"/><path class="e" d="m8.5 8.5h-11.8v0.9h11.6z"/><path class="f" d="m7.7 11.6h-14v1h13.7z"/></svg>