<?xml version="1.0" encoding="utf-8"?>
<!-- Generator: Adobe Illustrator 24.2.0, SVG Export Plug-In . SVG Version: 6.00 Build 0)  -->
<svg version="1.1" id="Layer_1" xmlns="http://www.w3.org/2000/svg" xmlns:xlink="http://www.w3.org/1999/xlink" x="0px" y="0px"
	 width="154.7px" height="79.3px" viewBox="0 0 154.7 79.3" style="enable-background:new 0 0 154.7 79.3;" xml:space="preserve">
<style type="text/css">
	.st0{fill:#FFFFFF;}
</style>
<g>
	<path class="st0" d="M93.3,30.3H49.8v10h39C89.3,35.7,90.1,33.4,93.3,30.3z"/>
	<g>
		<path class="st0" d="M125.6,21.2c-16,0-29.1,13-29.1,29.1s13,29.1,29.1,29.1s29.1-13,29.1-29.1S141.6,21.2,125.6,21.2z
			 M147.1,50.6c0,11.6-9.8,21.5-21.5,21.5s-21.5-9.8-21.5-21.5s9.8-21.5,21.5-21.5S147.1,39,147.1,50.6z"/>
		<polygon class="st0" points="129.9,35.3 121.3,35.3 121.3,46.3 110.3,46.3 110.3,54.3 121.3,54.3 121.3,65.8 129.9,65.8 
			129.9,54.3 141,54.3 141,46.3 129.9,46.3 		"/>
	</g>
	<path class="st0" d="M34.6,69.5l-7.2-59.4h109.4l1.6,6.2c4.5,1.2,7,2.6,11.4,6.6L145,0.1H16.9L0.1,70.5h24.4l1.1,8.8h71.7
		c-2.1-3-3.9-6.3-5.2-9.8H34.6z M13.2,60.4L20,31.6l3.8,28.9H13.2z"/>
</g>
</svg>
