<?xml version="1.0" encoding="utf-8"?>
<!-- Generator: Adobe Illustrator 24.2.0, SVG Export Plug-In . SVG Version: 6.00 Build 0)  -->
<svg version="1.1" id="Layer_1" xmlns="http://www.w3.org/2000/svg" xmlns:xlink="http://www.w3.org/1999/xlink" x="0px" y="0px"
	 width="29.8px" height="39.4px" viewBox="0 0 29.8 39.4" style="enable-background:new 0 0 29.8 39.4;" xml:space="preserve">
<style type="text/css">
	.st0{fill:#FFFFFF;}
</style>
<g>
	<g>
		<path class="st0" d="M19.7,14.6c-0.4,0-1.1-0.1-1.6-0.2s-0.7-0.4-0.6-0.7c0.1-0.3,0.4-0.5,0.8-0.4c3.2,0.7,6.2-0.8,7.4-3.8
			c1.6-4.2-1.7-8.8-6.3-8.4C16.9,1.3,14.8,3,14,5.3c-0.2,0.6-0.5,0.8-0.8,0.7c-0.4-0.1-0.4-0.5-0.3-1c1.1-3.2,4.2-5.3,7.6-5
			s6.2,2.9,6.7,6.3C27.8,10.6,24.3,14.6,19.7,14.6z"/>
		<path class="st0" d="M22.3,9c0,0.7-0.6,1.4-1.4,1.7c-0.2,0.1-0.4,0.1-0.5,0.5c0,0.3-0.3,0.4-0.6,0.4c-0.3,0-0.5-0.2-0.5-0.4
			c0-0.3-0.2-0.3-0.4-0.4c-0.9-0.3-1.5-0.9-1.5-1.7c0-0.4,0.2-0.6,0.5-0.7c0.3-0.1,0.6,0.1,0.7,0.5c0.1,0.3,0.2,0.5,0.5,0.6
			c0.5,0.3,1.1,0.3,1.6,0c0.6-0.3,0.6-0.9,0.1-1.3c-0.3-0.2-0.7-0.4-1-0.5c-0.4-0.2-0.8-0.3-1.2-0.5c-0.8-0.4-1.2-1.1-1-2
			c0.1-0.8,0.7-1.3,1.4-1.6c0.1,0,0.3,0,0.3-0.3s0.3-0.4,0.5-0.4c0.3,0,0.5,0.2,0.5,0.4c0,0.3,0.2,0.3,0.4,0.4
			c0.8,0.2,1.3,0.7,1.5,1.5c0.1,0.4-0.1,0.7-0.5,0.8c-0.3,0.1-0.6-0.1-0.7-0.6c-0.1-0.3-0.2-0.4-0.4-0.6c-0.6-0.3-1.2-0.3-1.7,0
			S18.4,5.6,18.8,6c0.4,0.3,0.8,0.4,1.2,0.6c0.5,0.2,1,0.4,1.4,0.7C22,7.8,22.3,8.3,22.3,9z"/>
	</g>
	<g>
		<path class="st0" d="M29.7,38.6c-0.1-0.4-0.4-0.4-0.8-0.4c-0.4,0-0.9,0-1.3,0c-0.3,0-0.4-0.1-0.4-0.4c0-5.8,0-11.5,0-17.3
			c0-0.7-0.2-0.9-0.9-0.9c-3.3,0-6.6,0-9.9,0c-0.4,0-0.4-0.1-0.4-0.4c0-3.7,0-7.4,0-11.1c0-0.7-0.2-0.9-0.9-0.9c-2.3,0-4.5,0-6.8,0
			c-0.8,0-0.9,0.1-0.9,0.9c0,4.5,0,9,0,13.5c0,0.3-0.1,0.5-0.4,0.5c-1.3,0-2.5,0-3.8,0c-0.5,0-0.7,0.2-0.7,0.7c0,0.9,0,1.7,0,2.6
			c0,4.1,0,8.2,0,12.4c0,0.3-0.1,0.4-0.4,0.4c-0.4,0-0.9,0-1.3,0c-0.3,0-0.6,0-0.8,0.4c-0.1,0.4,0.1,0.6,0.3,0.8
			c9.6,0,19.2,0,28.8,0C29.6,39.2,29.8,38.9,29.7,38.6z M25.1,32c-0.1,0-0.2,0-0.3,0c-0.3,0-0.7,0-1,0c-0.2,0-0.3,0-0.3-0.3
			c0-1.1,0-1.1,1-1.1c0.4,0,0.8,0,1.3,0c0.2,0,0.3,0,0.3,0.2C26.1,32,26.1,32,25.1,32z M25,29.5c-0.1,0-0.2,0-0.3,0
			c-0.3,0-0.7,0-1,0c-0.2,0-0.3-0.1-0.3-0.3c0-1.1,0-1.1,1-1.1c0.4,0,0.9,0,1.3,0c0.2,0,0.3,0.1,0.3,0.3
			C26.1,29.5,26.1,29.5,25,29.5z M16.1,21.1c0-0.2,0-0.3,0.3-0.3c3.1,0,6.3,0,9.4,0c0.2,0,0.3,0.1,0.3,0.3c0,1,0,1-1,1
			c-2.2,0-4.5,0-6.7,0c-0.1,0-0.3,0-0.4,0c-0.3,0-0.5,0.2-0.5,0.5s0.1,0.5,0.4,0.6c0.1,0,0.3,0,0.5,0c2.5,0,4.9,0,7.4,0
			c0.3,0,0.4,0.1,0.4,0.4c0,1,0,1-1,1c-2.3,0-4.5,0-6.8,0c-0.1,0-0.3,0-0.4,0c-0.3,0-0.5,0.2-0.5,0.5s0.1,0.5,0.4,0.6
			c0.2,0.1,0.3,0,0.5,0c2.5,0,4.9,0,7.4,0c0.3,0,0.4,0.1,0.4,0.4c0,0.9,0,0.9-0.9,0.9c-1.4,0-2.7,0-4.1,0c-1.5,0-3.1,0-4.6,0
			c-0.3,0-0.3-0.1-0.3-0.3C16.1,24.9,16.1,23,16.1,21.1z M14.1,8.4c0.9,0,0.9,0,0.9,0.9c0,2.8,0,5.6,0,8.4c0,3,0,6,0,9
			c0,0.3-0.1,0.4-0.4,0.4c-0.9,0-0.9,0-0.9-1c0-5.7,0-11.5,0-17.2C13.6,8.5,13.7,8.4,14.1,8.4z M11.5,8.4c0.9,0,1,0,1,1
			c0,5.8,0,11.5,0,17.3c0,0.3-0.1,0.4-0.4,0.4c-0.9,0-0.9,0-0.9-0.9c0-2.8,0-5.6,0-8.4c0-3,0-5.9,0-8.9C11.1,8.5,11.2,8.4,11.5,8.4z
			 M9,8.4c0.3,0,0.7-0.1,0.9,0.1C10.1,8.7,10,9.1,10,9.4c0,4.1,0,8.2,0,12.3c0,0.3-0.1,0.4-0.4,0.4c-0.9,0-0.9,0-0.9-0.9
			c0-2,0-4,0-5.9c0-2.1,0-4.3,0-6.4C8.7,8.5,8.7,8.4,9,8.4z M7.5,37.9c0,0.2,0,0.3-0.3,0.3c-1.1,0-2.2,0-3.3,0
			c-0.2,0-0.2-0.1-0.2-0.2c0-0.7,0-1.4,0-2.1c0-0.2,0.1-0.2,0.3-0.2c0.6,0,1.1,0,1.7,0c0.5,0,1.1,0,1.6,0c0.2,0,0.3,0.1,0.3,0.3
			C7.5,36.6,7.5,37.3,7.5,37.9z M22.4,37.8c0,0.3-0.1,0.4-0.4,0.4c-2.2,0-4.3,0-6.5,0c-2.2,0-4.3,0-6.5,0c-0.3,0-0.4-0.1-0.4-0.4
			c0-2.1,0-4.2,0-6.2c0-0.2,0-0.3,0-0.5c-0.1-0.3-0.3-0.4-0.6-0.4c-0.3,0.1-0.5,0.3-0.5,0.6c0,0.5,0,1.1,0,1.6c0,0.4,0,0.8,0,1.3
			c0,0.2,0,0.2-0.2,0.2l0,0c-1.1,0-1.1,0-1.1-1c0-2.7,0-5.4,0-8.1c0-0.4-0.2-0.7-0.5-0.7S5.1,24.7,5,25.1c0,0.1,0,0.3,0,0.4
			c0,2.9,0,5.8,0,8.6c0,0.3-0.1,0.4-0.4,0.4c-0.3,0-0.7,0.1-0.9-0.1c-0.2-0.2-0.1-0.6-0.1-0.9c0-3.3,0-6.6,0-9.9
			c0-0.3,0.1-0.4,0.4-0.4c1.9,0,3.7,0,5.6,0c0.3,0,0.4,0,0.4,0.3c0,1.1,0,2.1,0,3.2C10,27,9.9,27,9.7,27c-1,0-1,0-1-1
			c0-0.3,0-0.6,0-0.9c0-0.4-0.2-0.6-0.6-0.6c-0.3,0-0.6,0.2-0.6,0.6c0,0.6,0,1.2,0,1.7c0,0.6,0,1.2,0,1.8c0,0.4,0.2,0.7,0.6,0.7
			s0.6-0.3,0.6-0.7c0-0.5,0-0.5,0.5-0.5c4.3,0,8.5,0,12.8,0c0.3,0,0.4,0.1,0.4,0.4C22.4,31.7,22.4,34.7,22.4,37.8z M26.1,38
			c0,0.2-0.1,0.2-0.2,0.2c-0.7,0-1.4,0-2.1,0c-0.2,0-0.2,0-0.2-0.2c0-0.4,0-0.7,0-1.1c0-0.3-0.2-0.9,0.1-1.1
			c0.2-0.2,0.8-0.1,1.2-0.1s0.7,0,1.1,0c0.2,0,0.2,0,0.2,0.2C26.1,36.6,26.1,37.3,26.1,38z M25.1,34.5c-0.1,0-0.2,0-0.3,0
			s-0.2,0-0.3,0c-0.3,0-0.8,0.1-0.9-0.1c-0.2-0.3,0-0.7-0.1-1.1c0-0.1,0.1-0.2,0.2-0.2c0.7,0,1.4,0,2.2,0c0.1,0,0.2,0,0.2,0.2
			C26.2,34.5,26.2,34.5,25.1,34.5z"/>
		<path class="st0" d="M20.9,30.8H10.1c0,0-0.4,0-0.4-0.6c0-0.5,0.4-0.6,0.4-0.6h10.8c0,0,0.6,0.1,0.6,0.6
			C21.5,30.6,20.9,30.8,20.9,30.8z"/>
		<path class="st0" d="M20.9,33.2H10.1c0,0-0.4,0-0.4-0.6c0-0.5,0.4-0.6,0.4-0.6h10.8c0,0,0.6,0.1,0.6,0.6
			C21.5,33,20.9,33.2,20.9,33.2z"/>
		<path class="st0" d="M20.9,35.6H10.1c0,0-0.4,0-0.4-0.6c0-0.5,0.4-0.6,0.4-0.6h10.8c0,0,0.6,0.1,0.6,0.6
			C21.5,35.4,20.9,35.6,20.9,35.6z"/>
	</g>
</g>
</svg>
