<?xml version="1.0" encoding="utf-8"?>
<!-- Generator: Adobe Illustrator 26.0.0, SVG Export Plug-In . SVG Version: 6.00 Build 0)  -->
<svg version="1.1" id="Layer_1" xmlns="http://www.w3.org/2000/svg" xmlns:xlink="http://www.w3.org/1999/xlink" x="0px" y="0px"
	 width="45.6px" height="38.9px" viewBox="0 0 45.6 38.9" style="enable-background:new 0 0 45.6 38.9;" xml:space="preserve">
<style type="text/css">
	.st0{fill:#4D555D;}
</style>
<g>
	<g>
		<path class="st0" d="M23.2,33.4c0.1,0,0.2,0,0.3,0l6.4-2.1c0.2-0.1,0.3-0.2,0.5-0.3l14.5-16.7c1.1-1.2,0.9-3.1-0.3-4.2l-2.3-2
			c-0.6-0.5-1.4-0.8-2.2-0.7c-0.8,0.1-1.5,0.4-2,1l-5.4,6.2V1c0-0.6-0.4-1-1-1H1C0.4,0,0,0.4,0,1v36.9c0,0.6,0.4,1,1,1h30.7
			c0.6,0,1-0.4,1-1v-4.6c0-0.6-0.4-1-1-1s-1,0.4-1,1v3.6H2V2h28.7v14.9l-7.1,8.2c-0.1,0.1-0.2,0.3-0.2,0.5l-1.1,6.6
			c-0.1,0.3,0.1,0.7,0.3,0.9C22.8,33.3,23,33.4,23.2,33.4z M39.6,9.7c0.2-0.2,0.4-0.3,0.7-0.3s0.5,0.1,0.7,0.2l2.3,2
			c0.4,0.4,0.5,1,0.1,1.4l-1.6,1.9L38,11.6L39.6,9.7z M25.3,26.2l11.4-13.1l3.8,3.3L29.1,29.5L24.5,31L25.3,26.2z"/>
		<path class="st0" d="M8.3,7.8h16c0.6,0,1-0.4,1-1s-0.4-1-1-1h-16c-0.6,0-1,0.4-1,1S7.8,7.8,8.3,7.8z"/>
		<path class="st0" d="M8.3,13.5h16c0.6,0,1-0.4,1-1s-0.4-1-1-1h-16c-0.6,0-1,0.4-1,1S7.8,13.5,8.3,13.5z"/>
		<path class="st0" d="M25.4,18.1c0-0.6-0.4-1-1-1h-16c-0.6,0-1,0.4-1,1s0.4,1,1,1h16C24.9,19.1,25.4,18.7,25.4,18.1z"/>
		<path class="st0" d="M8.3,31.4c-0.6,0-1,0.4-1,1c0,0.6,0.4,1,1,1H17c0.6,0,1-0.4,1-1c0-0.6-0.4-1-1-1H8.3z"/>
	</g>
</g>
</svg>
