<?xml version="1.0" encoding="utf-8"?>
<!-- Generator: Adobe Illustrator 26.0.0, SVG Export Plug-In . SVG Version: 6.00 Build 0)  -->
<svg version="1.1" id="Layer_1" xmlns="http://www.w3.org/2000/svg" xmlns:xlink="http://www.w3.org/1999/xlink" x="0px" y="0px"
	 width="34.4px" height="17.2px" viewBox="0 0 34.4 17.2" style="enable-background:new 0 0 34.4 17.2;" xml:space="preserve">
<style type="text/css">
	.st0{fill:#1F272E;}
</style>
<g>
	<g>
		<path class="st0" d="M23.2,0C18.7,0,15,3.7,15,8.3s3.7,8.3,8.3,8.3c0.3,0,0.6-0.3,0.6-0.6c0-0.3-0.3-0.6-0.6-0.6
			c-3.9,0-7.1-3.2-7.1-7.1c0-3.9,3.2-7.1,7.1-7.1s7.1,3.2,7.1,7.1c0,0.3,0.3,0.6,0.6,0.6s0.6-0.3,0.6-0.6C31.5,3.7,27.8,0,23.2,0z"
			/>
		<path class="st0" d="M34.3,13.2c-0.9-2.1-3-3.5-5.3-3.5s-4.4,1.4-5.3,3.5c-0.1,0.1-0.1,0.3,0,0.4c0.9,2.1,3,3.5,5.3,3.5
			s4.4-1.4,5.3-3.5C34.4,13.5,34.4,13.4,34.3,13.2z M33.2,13.5C32.4,15,30.8,16,29,16s-3.4-1-4.2-2.6c0.8-1.6,2.4-2.6,4.2-2.6
			S32.4,11.9,33.2,13.5z"/>
		<path class="st0" d="M29.1,12.3c-0.7,0-1.2,0.5-1.2,1.2c0,0.7,0.5,1.2,1.2,1.2c0.7,0,1.2-0.5,1.2-1.2
			C30.3,12.8,29.7,12.3,29.1,12.3z M29.5,13.5c0,0.2-0.2,0.4-0.4,0.4c-0.2,0-0.4-0.2-0.4-0.4c0-0.2,0.2-0.4,0.4-0.4
			C29.3,13.1,29.5,13.2,29.5,13.5z"/>
		<path class="st0" d="M26.2,8h-3.8v0.6c0,0.3,0.3,0.6,0.6,0.6h3.2c0.3,0,0.6-0.3,0.6-0.6C26.8,8.2,26.5,8,26.2,8z"/>
	</g>
	<path class="st0" d="M22.6,2.7v0.6c-0.6,0.1-1,0.6-1,1.2c0,0.6,0.5,1,1.3,1.2c0.5,0.1,0.7,0.3,0.7,0.5c0,0.2-0.3,0.5-0.7,0.5
		c-0.3,0-0.7-0.2-0.7-0.5V6h-0.8v0.1c0,0.6,0.4,1,1,1.2V8h0.8V7.3c0.6-0.1,1-0.6,1-1.2c0-0.6-0.5-1-1.3-1.2
		c-0.5-0.1-0.7-0.3-0.7-0.5C22.3,4.2,22.6,4,23,4c0.3,0,0.7,0.2,0.7,0.5v0.1h0.8V4.5c0-0.6-0.4-1-1-1.2V2.7H22.6z"/>
</g>
</svg>
