<?xml version="1.0" encoding="utf-8"?>
<!-- Generator: Adobe Illustrator 26.0.0, SVG Export Plug-In . SVG Version: 6.00 Build 0)  -->
<svg version="1.1" id="Layer_1" xmlns="http://www.w3.org/2000/svg" xmlns:xlink="http://www.w3.org/1999/xlink" x="0px" y="0px"
	 width="30px" height="30px" viewBox="0 0 30 30" style="enable-background:new 0 0 30 30;" xml:space="preserve">
<style type="text/css">
	.st0{fill:#FFFFFF;}
</style>
<g>
	<g>
		<g>
			<path class="st0" d="M5.2,10.3c0,3.2,2.6,5.9,5.9,5.9s5.9-2.6,5.9-5.9s-2.6-5.8-5.9-5.8l0,0C7.9,4.5,5.2,7.1,5.2,10.3z
				 M14.7,10.3c0,1.9-1.6,3.5-3.5,3.5s-3.5-1.6-3.5-3.5s1.5-3.5,3.5-3.5C13,6.8,14.6,8.3,14.7,10.3L14.7,10.3L14.7,10.3z"/>
			<path class="st0" d="M16.4,27.9c1-0.4,1.9-1.1,2.7-1.7c0.6-0.5,0.8-1.4,0.4-2.1L17.9,21c-0.4-0.9-1.3-1.4-2.2-1.4H6.4
				c-0.9,0-1.8,0.6-2.2,1.4l-1.6,3.1c-0.3,0.7-0.1,1.6,0.4,2.1c1.1,0.9,2.4,1.7,3.8,2.2C10,29.5,13.4,29.3,16.4,27.9z"/>
		</g>
	</g>
	<g>
		<path class="st0" d="M20,2.1c-1.9,0-3.6,1.1-4.5,2.7c0.7,0.4,1.2,0.9,1.7,1.6c0.4-1.3,1.5-2.2,3-2.2c1.6,0,3,1.3,3.1,3.1
			c0,1.7-1.4,3.1-3.1,3.1c-0.7,0-1.3-0.2-1.8-0.6c0,0.1,0,0.2,0,0.3c0,0.7-0.1,1.4-0.3,2c0.6,0.3,1.3,0.4,2.1,0.4
			c2.9,0,5.2-2.3,5.2-5.2S22.9,2.1,20,2.1z"/>
	</g>
	<path class="st0" d="M27.4,19.3L26,16.6c-0.4-0.8-1.1-1.2-1.9-1.2h-8.2c-0.8,0-1.6,0.5-1.9,1.2l-0.6,1.1h4.2c1.1,0,2.1,0.6,2.6,1.7
		l1.9,3.7c0.1,0.1,0.1,0.3,0.2,0.4c0.8-0.2,1.6-0.4,2.4-0.8c0.9-0.4,1.7-1,2.4-1.5C27.6,20.7,27.7,19.9,27.4,19.3z"/>
</g>
</svg>
