<?xml version="1.0" encoding="utf-8"?>
<!-- Generator: Adobe Illustrator 26.0.0, SVG Export Plug-In . SVG Version: 6.00 Build 0)  -->
<svg version="1.1" id="Layer_1" xmlns="http://www.w3.org/2000/svg" xmlns:xlink="http://www.w3.org/1999/xlink" x="0px" y="0px"
	 width="29.8px" height="39.4px" viewBox="0 0 29.8 39.4" style="enable-background:new 0 0 29.8 39.4;" xml:space="preserve">
<style type="text/css">
	.st0{fill:#FFFFFF;}
</style>
<g>
	<g>
		<path class="st0" d="M22.2,14.6c-0.4,0-1.1-0.1-1.6-0.2c-0.5-0.1-0.7-0.4-0.6-0.7s0.4-0.5,0.8-0.4C24,14,27,12.5,28.2,9.6
			c1.6-4.2-1.7-8.8-6.3-8.4c-2.5,0.2-4.6,1.9-5.4,4.2C16.3,6,16,6.2,15.7,6.1c-0.4-0.1-0.4-0.5-0.3-1c1.1-3.2,4.2-5.3,7.6-5
			s6.2,2.9,6.7,6.3C30.3,10.6,26.8,14.6,22.2,14.6z"/>
		<path class="st0" d="M19.9,5.6c0-0.7,0.6-1.4,1.4-1.7c0.2-0.1,0.4-0.1,0.5-0.5c0-0.3,0.3-0.4,0.6-0.4c0.3,0,0.5,0.2,0.5,0.4
			c0,0.3,0.2,0.3,0.4,0.4c0.9,0.3,1.5,0.9,1.5,1.7c0,0.4-0.2,0.6-0.5,0.7c-0.3,0.1-0.6-0.1-0.7-0.5c-0.1-0.3-0.2-0.5-0.5-0.6
			c-0.5-0.3-1.1-0.3-1.6,0c-0.6,0.3-0.6,0.9-0.1,1.3c0.3,0.2,0.7,0.4,1,0.5c0.4,0.2,0.8,0.3,1.2,0.5c0.8,0.4,1.2,1.1,1,2
			c-0.1,0.8-0.7,1.3-1.4,1.6c-0.1,0-0.3,0-0.3,0.3s-0.3,0.4-0.5,0.4c-0.3,0-0.5-0.2-0.5-0.4c0-0.3-0.2-0.3-0.4-0.4
			c-0.8-0.2-1.3-0.7-1.5-1.5c-0.1-0.4,0.1-0.7,0.5-0.8c0.3-0.1,0.6,0.1,0.7,0.6c0.1,0.3,0.2,0.4,0.4,0.6c0.6,0.3,1.2,0.3,1.7,0
			c0.5-0.3,0.5-0.8,0.1-1.2C23,8.3,22.6,8.2,22.2,8c-0.5-0.2-1-0.4-1.4-0.7C20.2,6.8,19.9,6.3,19.9,5.6z"/>
	</g>
	<g>
		<path class="st0" d="M0,38.7c0,0.4,0.4,0.7,0.7,0.7h28.4c0.4,0,0.7-0.4,0.7-0.7c0-0.4-0.4-0.7-0.7-0.7V22.5c0-0.4-0.4-0.7-0.7-0.7
			h-9.7V10.5c0-0.4-0.4-0.7-0.7-0.7H1.6c-0.6,0-0.9,0.4-0.9,0.7v27.4C0.4,37.9,0,38.3,0,38.7z M21.7,34.9h3v3h-3V34.9z M18.6,37.9
			l-0.1-14.8h9v14.8H26v-3.6c0-0.4-0.4-0.7-0.7-0.7h-4.5c-0.4,0-0.7,0.4-0.7,0.7v3.6H18.6L18.6,37.9z M10.4,33.4h3v4.5h-3V33.4z
			 M5.9,33.4h3v4.5h-3V33.4z M2.2,11.3h14.9V38h-2.2v-5.2c0-0.4-0.4-0.7-0.7-0.7h-9c-0.4,0-0.7,0.4-0.7,0.7v5.1H2.3
			C2.3,37.9,2.3,11.3,2.2,11.3z"/>
		<path class="st0" d="M15.5,17.2v-3c0-0.4-0.4-0.7-0.7-0.7h-3.7c-0.4,0-0.7,0.4-0.7,0.7v3c0,0.4,0.4,0.7,0.7,0.7h3.8
			C15.3,17.9,15.6,17.6,15.5,17.2z M14.2,16.6H12V15h2.2C14.2,15,14.2,16.6,14.2,16.6z"/>
		<path class="st0" d="M8.9,17.2v-3c0-0.4-0.4-0.7-0.7-0.7H4.6c-0.4,0-0.7,0.4-0.7,0.7v3c0,0.4,0.4,0.7,0.7,0.7h3.6
			C8.7,17.9,9,17.6,8.9,17.2z M7.4,16.6H5.2V15h2.2V16.6z"/>
		<path class="st0" d="M15.5,23.2v-3c0-0.4-0.4-0.7-0.7-0.7h-3.7c-0.4,0-0.7,0.4-0.7,0.7v3.1c0,0.4,0.4,0.7,0.7,0.7h3.8
			C15.3,24,15.6,23.7,15.5,23.2z M14.2,22.6H12V21h2.2C14.2,21,14.2,22.6,14.2,22.6z"/>
		<path class="st0" d="M8.9,23.2v-3c0-0.4-0.4-0.7-0.7-0.7H4.6c-0.4,0-0.7,0.4-0.7,0.7v3.1c0,0.4,0.4,0.7,0.7,0.7h3.6
			C8.7,24,9,23.7,8.9,23.2z M7.4,22.6H5.2V21h2.2V22.6z"/>
		<path class="st0" d="M15.5,29v-3c0-0.4-0.4-0.7-0.7-0.7h-3.7c-0.4,0-0.7,0.4-0.7,0.9v3c0,0.4,0.4,0.7,0.7,0.7h3.8
			C15.3,29.8,15.6,29.5,15.5,29z M14.2,28.5H12v-1.6h2.2C14.2,26.9,14.2,28.5,14.2,28.5z"/>
		<path class="st0" d="M8.9,29.2v-3c0-0.4-0.4-0.7-0.7-0.7H4.6c-0.4,0-0.7,0.4-0.7,0.7v3c0,0.4,0.4,0.7,0.7,0.7h3.6
			C8.7,29.8,9,29.5,8.9,29.2z M7.4,28.5H5.2v-1.6h2.2V28.5z"/>
		<path class="st0" d="M25.3,25.6c0-0.4-0.4-0.7-0.7-0.7h-3c-0.3,0-0.7,0.2-0.7,0.6s0.4,0.7,0.7,0.7h3C25,26.2,25.3,25.9,25.3,25.6z
			"/>
		<path class="st0" d="M25.3,28.5c0-0.4-0.4-0.7-0.7-0.7h-3c-0.4,0-0.7,0.4-0.7,0.7c0,0.4,0.4,0.7,0.7,0.7h3
			C25,29.2,25.3,28.9,25.3,28.5z"/>
		<path class="st0" d="M25.3,31.1c0-0.4-0.4-0.7-0.7-0.7h-3c-0.5,0-0.7,0.5-0.7,0.9c0,0.4,0.4,0.7,0.7,0.7h3
			C25,32,25.3,31.5,25.3,31.1z"/>
	</g>
</g>
</svg>
