<?xml version="1.0" encoding="utf-8"?>
<!-- Generator: Adobe Illustrator 26.0.0, SVG Export Plug-In . SVG Version: 6.00 Build 0)  -->
<svg version="1.1" id="Layer_1" xmlns="http://www.w3.org/2000/svg" xmlns:xlink="http://www.w3.org/1999/xlink" x="0px" y="0px"
	 width="70.2px" height="90.3px" viewBox="0 0 70.2 90.3" style="enable-background:new 0 0 70.2 90.3;" xml:space="preserve">
<style type="text/css">
	.st0{fill-rule:evenodd;clip-rule:evenodd;fill:#1F272E;}
	.st1{fill:#1F272E;}
</style>
<g>
	<g transform="matrix(6.12323e-17,1,-1,6.12323e-17,100,0)">
		<path class="st0" d="M88.2,100c0.8,0,1.5-0.4,1.8-1.1c0.4-0.7,0.3-1.5-0.1-2.1l-5.2-8l5-6c0.6-0.7,0.6-1.8,0.1-2.6l-5.1-7l5.1-7
			c0.5-0.7,0.5-1.7,0-2.4l-5.1-7l5.1-7c0.5-0.7,0.5-1.7,0-2.4l-5.1-7l5.1-7c0.5-0.6,0.5-1.5,0.2-2.2c-0.4-0.7-1.1-1.1-1.9-1.1h-86
			C0.9,30.1,0,31,0,32.2v66c0,1.2,0.9,2.1,2.1,2.1h86.1V100z M84.4,95.8H4.3V34h79.8l-3.6,4.9c-0.5,0.7-0.5,1.7,0,2.4l5.1,7l-5.1,7
			C80,56,80,57,80.5,57.7l5.1,7l-5.1,7c-0.5,0.7-0.5,1.7,0,2.4l5,6.9l-5,5.9C80,88,79.9,89,80.4,89.7L84.4,95.8z"/>
	</g>
	<g transform="matrix(1.21459,0,0,1.21459,-1.17064,29.7055)">
		<path class="st0" d="M12.6,26h23.1c0.9,0,1.7-0.8,1.7-1.7c0-0.9-0.8-1.7-1.7-1.7H12.6c-0.9,0-1.7,0.8-1.7,1.7
			C10.8,25.2,11.6,26,12.6,26z"/>
	</g>
	<g transform="matrix(0.0867567,0,0,0.0867567,66.845,47.6218)">
		<path class="st0" d="M-147.1,157.4h23.1c13.3,0,24-10.8,24-24c0-13.3-10.8-24-24-24h-23.1c-13.3,0-24,10.8-24,24
			C-171.1,146.6-160.4,157.4-147.1,157.4z"/>
	</g>
	<g transform="matrix(1.21459,0,0,1.21459,-1.17064,41.7055)">
		<path class="st0" d="M12.6,26h23.1c0.9,0,1.7-0.8,1.7-1.7c0-0.9-0.8-1.7-1.7-1.7H12.6c-0.9,0-1.7,0.8-1.7,1.7
			C10.8,25.2,11.6,26,12.6,26z"/>
	</g>
	<g transform="matrix(0.0867567,0,0,0.0867567,66.845,59.6218)">
		<path class="st0" d="M-147.1,157.4h23.1c13.3,0,24-10.8,24-24c0-13.3-10.8-24-24-24h-23.1c-13.3,0-24,10.8-24,24
			C-171.1,146.6-160.4,157.4-147.1,157.4z"/>
	</g>
</g>
<g>
	<g transform="translate(0,-952.36218)">
		<path class="st1" d="M34.7,962c-0.5,0-1.1,0.4-1.4,0.9l-7.6,16.6l-13.2-5.4c-0.9-0.4-1.8,0-2.2,0.9c-0.2,0.4-0.2,0.7,0,1.1
			l6.5,19.3v5.2c0,0.9,0.7,1.6,1.6,1.6h32.7c0.9,0,1.6-0.7,1.6-1.6v-5.2l6.5-19.3c0.4-0.9-0.2-1.8-1.1-2c-0.4-0.2-0.7-0.2-1.1,0
			l-13.2,5.4l-7.6-16.6C36,962.3,35.4,962,34.7,962z M34.9,967.6l6.7,14.6c0.4,0.9,1.3,1.1,2,0.9l11.4-4.7l-5.1,15.2H19.7l-5.1-15.2
			l11.4,4.7c0.9,0.4,1.8,0,2-0.9L34.9,967.6z M20.1,996.9h29.5v2.2H20.1V996.9z"/>
	</g>
	<path class="st1" d="M34.9,29.1c-3.1,2.2-3.3,5.6-3.1,7.6h-1.1c-0.2-1.3-0.9-2.7-2.5-3.8c-3.1,2.2-2.5,5.2-2.4,6.5h6.5l2.4-2.4
		l2.4,2.4h6.5c0.4-1.3,0.7-4.3-2.4-6.5c-1.6,1.1-2.2,2.5-2.5,3.8h-1.1C38.2,34.7,38,31.4,34.9,29.1z"/>
</g>
</svg>
