<svg xmlns:xlink="http://www.w3.org/1999/xlink" xmlns="http://www.w3.org/2000/svg" id="Layer_1" data-name="Layer 1" viewBox="0 0 48 48" width="48"  height="48" ><defs><style>.cls-1{fill:#fff;}</style></defs><circle class="cls-1" cx="13" cy="13" r="2.75"/><path class="cls-1" d="M12.26,28A3.74,3.74,0,1,0,16,24.26,3.75,3.75,0,0,0,12.26,28Zm6,0A2.24,2.24,0,1,1,16,25.76,2.24,2.24,0,0,1,18.24,28Z"/><path class="cls-1" d="M11.56,34.88l-1,1.95a1.09,1.09,0,0,0,.29,1.31,8.17,8.17,0,0,0,2.42,1.39,8,8,0,0,0,6.11-.29,8.33,8.33,0,0,0,1.73-1.1,1.09,1.09,0,0,0,.29-1.31l-1-1.95A1.59,1.59,0,0,0,19,34H13A1.59,1.59,0,0,0,11.56,34.88Z"/><path class="cls-1" d="M24.75,8.75A10.25,10.25,0,1,1,32,26.25v1.5A11.75,11.75,0,1,0,23.69,7.69a12.08,12.08,0,0,0-.22,16.84,10.55,10.55,0,0,1-.22,14.72A10.25,10.25,0,1,1,16,21.75v-1.5a11.75,11.75,0,1,0,8.31,20.06,12.08,12.08,0,0,0,.22-16.84A10.55,10.55,0,0,1,24.75,8.75Z"/><path class="cls-1" d="M28.26,12A3.74,3.74,0,1,0,32,8.26,3.75,3.75,0,0,0,28.26,12Zm6,0A2.24,2.24,0,1,1,32,9.76,2.24,2.24,0,0,1,34.24,12Z"/><path class="cls-1" d="M35.4,23.24a8.33,8.33,0,0,0,1.73-1.1,1.09,1.09,0,0,0,.29-1.31l-1-1.95A1.59,1.59,0,0,0,35,18H29a1.59,1.59,0,0,0-1.42.88l-1,1.95a1.09,1.09,0,0,0,.29,1.31,8.17,8.17,0,0,0,2.42,1.39A8,8,0,0,0,35.4,23.24Z"/><polygon class="cls-1" points="6.75 6.75 18 6.75 18 5.25 5.25 5.25 5.25 18 6.75 18 6.75 6.75"/><circle class="cls-1" cx="35" cy="35" r="2.75"/><polygon class="cls-1" points="41.25 41.25 30 41.25 30 42.75 42.75 42.75 42.75 30 41.25 30 41.25 41.25"/></svg>