<?xml version="1.0" encoding="utf-8"?>
<!-- Generator: Adobe Illustrator 26.0.0, SVG Export Plug-In . SVG Version: 6.00 Build 0)  -->
<svg version="1.1" id="Layer_1" xmlns="http://www.w3.org/2000/svg" xmlns:xlink="http://www.w3.org/1999/xlink" x="0px" y="0px"
	 width="96.1px" height="73.9px" viewBox="0 0 96.1 73.9" style="enable-background:new 0 0 96.1 73.9;" xml:space="preserve">
<style type="text/css">
	.st0{fill:#495057;}
</style>
<g>
	<path class="st0" d="M94.7,24.2C93.6,22.8,91.9,22,90,22h-2.4v-9.4c0-3.3-2.7-6-6-6H50l-1.7-3.1c-1.1-1.9-3.1-3.1-5.3-3.1H14.5
		c-3.3,0-6,2.7-6,6V22H6c-1.8,0-3.5,0.8-4.7,2.2c-1.1,1.4-1.6,3.3-1.2,5.1l8.5,39.8c0.6,2.8,3.1,4.8,5.9,4.8h67c2.8,0,5.3-2,5.9-4.8
		L96,29.3C96.3,27.5,95.9,25.7,94.7,24.2z M13.8,6.4c0-0.4,0.3-0.7,0.7-0.7H43c0.3,0,0.5,0.1,0.7,0.4l2.4,4.5
		c0.5,0.9,1.4,1.4,2.3,1.4h33.1c0.4,0,0.7,0.3,0.7,0.7V22H13.8V6.4z M82.3,68c-0.1,0.3-0.4,0.6-0.7,0.6h-67c-0.3,0-0.7-0.2-0.7-0.6
		L5.3,28.2c0-0.2,0-0.5,0.1-0.6c0.1-0.2,0.4-0.3,0.6-0.3h5.1H85H90c0.2,0,0.4,0.1,0.6,0.3c0.1,0.2,0.2,0.4,0.2,0.6L82.3,68z"/>
</g>
</svg>
