<?xml version="1.0" encoding="utf-8"?>
<!-- Generator: Adobe Illustrator 24.2.0, SVG Export Plug-In . SVG Version: 6.00 Build 0)  -->
<svg version="1.1" id="Layer_1" xmlns="http://www.w3.org/2000/svg" xmlns:xlink="http://www.w3.org/1999/xlink" x="0px" y="0px"
	 width="56px" height="39.7px" viewBox="0 0 56 39.7" style="enable-background:new 0 0 56 39.7;" xml:space="preserve">
<style type="text/css">
	.st0{fill:#FFFFFF;}
</style>
<g>
	<g>
		<g>
			<g>
				<path class="st0" d="M20.8,14.9c0.4-0.3,0.8-0.5,1.2-0.8c-0.8-1.6-2.1-2.9-3.7-3.5c1-0.8,1.6-2,1.6-3.3c0-2.3-1.9-4.2-4.2-4.2
					S11.5,5,11.5,7.3c0,1.3,0.6,2.5,1.6,3.3C11.2,11.4,9.7,13,9,15.1c0.5,0,1,0.1,1.4,0.3c0.8-2.2,2.9-3.8,5.3-3.8
					C18,11.6,19.9,12.9,20.8,14.9z M12.9,7.3c0-1.5,1.3-2.8,2.8-2.8s2.8,1.3,2.8,2.8s-1.3,2.8-2.8,2.8S12.9,8.9,12.9,7.3z"/>
				<path class="st0" d="M18.9,16.6h-6.8c0.4,0.4,0.6,0.9,0.8,1.4h4.8C18.1,17.5,18.5,17,18.9,16.6z"/>
			</g>
			<g>
				<path class="st0" d="M38.8,18h4.5c0.2-0.5,0.5-1,0.9-1.4h-6.7C38,17,38.4,17.5,38.8,18z"/>
				<path class="st0" d="M43.2,10.7c1-0.8,1.6-2,1.6-3.3c0-2.3-1.9-4.2-4.2-4.2s-4.2,1.9-4.2,4.2c0,1.3,0.6,2.5,1.6,3.3
					c-1.7,0.7-3,2-3.8,3.7c0.4,0.2,0.9,0.4,1.3,0.7c0.9-2,2.8-3.5,5.1-3.5c2.5,0,4.6,1.7,5.3,3.9c0.4-0.1,0.8-0.2,1.2-0.2
					c0.1,0,0.1,0,0.2,0C46.7,13.2,45.2,11.5,43.2,10.7z M40.6,10.1c-1.5,0-2.8-1.3-2.8-2.8s1.3-2.8,2.8-2.8s2.8,1.3,2.8,2.8
					S42.2,10.1,40.6,10.1z"/>
			</g>
			<path class="st0" d="M50.4,23.9c1.2-1,2-2.5,2-4.1c0-2.9-2.4-5.3-5.3-5.3c-2.9,0-5.3,2.4-5.3,5.3c0,1.7,0.8,3.2,2,4.1
				c-0.8,0.3-1.6,0.8-2.3,1.4c0,1.1-0.1,2.1-0.4,3.1c1.3-2,3.4-3.4,5.9-3.4c3.5,0,6.5,2.7,7,6.3H40v-0.1c-0.3,0.7-0.7,1.3-1.2,1.9
				h1.3h14.1h1.3H56c0-0.2,0-0.4,0-0.7C56,28.6,53.7,25.3,50.4,23.9z M47.2,23.3c-1.9,0-3.5-1.6-3.5-3.5s1.6-3.5,3.5-3.5
				s3.5,1.6,3.5,3.5S49.1,23.3,47.2,23.3z"/>
			<path class="st0" d="M16,31.3L16,31.3H2C2.5,27.8,5.4,25,9,25c2.8,0,5.2,1.7,6.3,4.1c-0.2-0.9-0.3-1.8-0.3-2.7c0-0.2,0-0.4,0-0.6
				c-0.8-0.8-1.8-1.5-2.8-1.9c1.2-1,2-2.5,2-4.1c0-2.9-2.4-5.3-5.3-5.3s-5.3,2.4-5.3,5.3c0,1.7,0.8,3.2,2,4.1
				C2.3,25.2,0,28.5,0,32.4c0,0.2,0,0.4,0,0.7h0.3h1.5h14.3h0.8C16.6,32.5,16.3,31.9,16,31.3z M5.5,19.8c0-1.9,1.6-3.5,3.5-3.5
				s3.5,1.6,3.5,3.5s-1.6,3.5-3.5,3.5S5.5,21.7,5.5,19.8z"/>
			<path class="st0" d="M21.2,14.8c0.9-0.6,1.9-1.1,3-1.4h-1.7c0.4-2.8,2.8-5,5.6-5s5.2,2.2,5.6,5h-1.6c1.1,0.3,2.1,0.8,3,1.4l0,0
				c0-0.2,0-0.4,0-0.5c0-3.1-1.9-5.7-4.5-6.8c1-0.8,1.6-2,1.6-3.3C32.2,1.9,30.3,0,28,0s-4.2,1.9-4.2,4.2c0,1.3,0.6,2.5,1.6,3.3
				c-2.6,1.1-4.5,3.7-4.5,6.8c0,0.2,0,0.4,0,0.5H21.2z M25.3,4.1c0-1.5,1.3-2.8,2.8-2.8s2.8,1.3,2.8,2.8s-1.3,2.8-2.8,2.8
				C26.6,6.9,25.3,5.7,25.3,4.1z"/>
		</g>
		<g>
			<g>
				<path class="st0" d="M28.1,39.7c-7.6,0-13.8-6.2-13.8-13.8s6.2-13.8,13.8-13.8s13.8,6.2,13.8,13.8S35.7,39.7,28.1,39.7z
					 M28.1,13.8c-6.7,0-12.1,5.4-12.1,12.1S21.4,38,28.1,38s12.1-5.4,12.1-12.1C40.2,19.3,34.8,13.8,28.1,13.8z"/>
			</g>
			<g>
				<path class="st0" d="M28.1,36.6c-5.9,0-10.7-4.8-10.7-10.7s4.8-10.7,10.7-10.7S38.8,20,38.8,25.9S34,36.6,28.1,36.6z M28.1,17
					c-4.9,0-8.9,4-8.9,8.9s4,8.9,8.9,8.9s8.9-4,8.9-8.9S33,17,28.1,17z"/>
			</g>
		</g>
	</g>
	<g>
		<path class="st0" d="M28.5,29.6c-0.2,0.2-0.4,0.5-0.6,0.7c-0.3,0.3-0.5,0.5-0.6,0.5c-0.5,0-1.4-0.5-2.5-1.5l1.3-1.7
			c0.3,0.5,0.7,0.9,1.1,1.3C27.6,29.3,28.1,29.5,28.5,29.6z M28.8,33.3l-1.1,0.5c-0.2-0.3-0.2-0.7-0.2-1.1c0-0.5,0.2-1,0.6-1.4
			s0.7-0.7,1.1-1.1c0.4-0.5,0.6-1,0.6-1.6c0-0.7-0.4-1.3-1.1-1.7c-0.7-0.4-1.3-0.7-2-1.1c-0.7-0.5-1.1-1.1-1.1-1.8
			c0-0.7,0.2-1.3,0.7-1.8s1-0.7,1.6-0.7c0.2,0,0.3,0,0.4,0.1c0-0.2,0.1-0.4,0.1-0.6c0-0.7-0.2-1.3-0.7-1.7l1.2-0.8
			c0.2,0.2,0.3,0.6,0.3,1c0,0.5-0.1,1-0.4,1.5c-0.3,0.4-0.5,0.8-0.8,1.1c-0.3,0.4-0.4,0.8-0.4,1.2c0,0.4,0.3,0.8,1,1.2
			c1,0.6,1.6,1.1,1.9,1.3c0.7,0.6,1,1.4,1,2.3c0,0.8-0.3,1.5-1,2c-0.5,0.4-1.2,0.7-1.9,0.8c-0.1,0.3-0.2,0.7-0.2,1.1
			C28.4,32.5,28.5,32.9,28.8,33.3z M31,21.7l-0.7,2.1c-0.1-0.3-0.4-0.6-0.7-0.9c-0.3-0.2-0.6-0.3-1-0.4l0.6-0.9
			c0.3,0,0.6-0.1,0.9-0.1C30.6,21.5,30.9,21.5,31,21.7z"/>
	</g>
</g>
</svg>
