<svg xmlns="http://www.w3.org/2000/svg" xmlns:xlink="http://www.w3.org/1999/xlink" version="1.1" id="Layer_1" x="0px" y="0px" width="26px" height="24.1px" viewBox="0 0 26 24.1" style="enable-background:new 0 0 26 24.1;" xml:space="preserve">
<style type="text/css">
	.st0{fill:#009D81;}
</style>
<desc>Created with Sketch.</desc>
<g id="Page-1">
	<g id="_x23_Guest-Card---Info-new-2" transform="translate(-528.000000, -197.000000)">
		<g id="Group-51" transform="translate(528.000000, 197.500000)">
			<g id="Group-28-Copy">
				<path id="Combined-Shape" class="st0" d="M17.9,17.2l0.3,0.3c1.2,1.2,2.9,1.8,4.6,1.8c1,0,2-0.2,2.9-0.6l0.4-0.2v4.1      c0,0.5-0.4,1-0.9,1.1l-0.2,0H1.1c-0.5,0-1-0.4-1.1-0.9l0-0.2v-4.1c1,0.6,2.1,0.9,3.3,0.9c1.6,0,3.1-0.6,4.3-1.6l0.3-0.2l0.3-0.3      l0.3,0.3c1.2,1.2,2.9,1.9,4.6,1.9c1.6,0,3.1-0.6,4.3-1.6l0.3-0.2L17.9,17.2z M7.1,5.1c0.2,0,0.4,0.1,0.4,0.3l0,0.1v4.7h4V5.5      c0-0.2,0.1-0.4,0.3-0.4l0.1,0h2.2c0.2,0,0.4,0.1,0.4,0.3l0,0.1v4.7h4V5.5c0-0.2,0.1-0.4,0.3-0.4l0.1,0h2.2      c0.2,0,0.4,0.1,0.4,0.3l0,0.1v4.7h1.1c1.7,0,3.1,1.3,3.3,3l0,0.2v2.7c-0.9,0.9-2,1.3-3.3,1.3c-1.1,0-2.2-0.4-3-1.1l-0.2-0.2      l-1.6-1.6l-1.6,1.6c-0.9,0.9-2,1.3-3.3,1.3c-1.1,0-2.2-0.4-3-1.1l-0.2-0.2l-1.6-1.6l-1.6,1.6c-0.9,0.9-2,1.3-3.3,1.3      c-1.1,0-2.2-0.4-3-1.1L0,16.1v-2.7c0-1.7,1.4-3.1,3-3.2l0.2,0h1.2V5.5c0-0.2,0.1-0.4,0.3-0.4l0.1,0H7.1z M13-0.5l1.5,1.9      c0.6,0.9,0.4,2.1-0.5,2.6l-0.2,0.1l-0.1,0.1c0.1-0.3,0.1-0.7,0-1l-0.1-0.2L13,2.2l-0.7,0.9c-0.2,0.3-0.3,0.6-0.2,1l0.1,0.2      l-0.1-0.1c-1-0.4-1.3-1.7-0.8-2.6l0.1-0.2L13-0.5z M6-0.5l1.5,1.9C8.1,2.3,7.9,3.6,7,4.1L6.8,4.2L6.7,4.2c0.1-0.3,0.1-0.7,0-1      L6.6,3.1L6,2.2L5.3,3.1c-0.2,0.3-0.3,0.6-0.2,1l0.1,0.2L5.1,4.2c-1-0.4-1.3-1.7-0.8-2.6l0.1-0.2L6-0.5z M20-0.5l1.5,1.9      c0.7,0.9,0.4,2.3-0.7,2.7l0,0l-0.1,0.1c0.2-0.3,0.1-0.8-0.1-1.1l0,0L20,2.2l-0.7,0.9c-0.2,0.3-0.3,0.8-0.1,1.1l0,0l-0.1-0.1      c-1-0.4-1.4-1.8-0.7-2.7l0,0L20-0.5z"/>
			</g>
		</g>
	</g>
</g>
</svg>