<svg version="1.2" xmlns="http://www.w3.org/2000/svg" viewBox="0 0 155 80" width="155" height="80"><style>.a{fill:#fff}</style><path fill-rule="evenodd" class="a" d="m97.3 79.3h-71.7l-1.1-8.8h-24.4l16.8-70.4h78.1c-8.9 2.3-12.6 6.4-14.2 10h-53.4l7.2 59.4h57.6c1.3 3.5 3 6.8 5.1 9.8zm-84.1-18.8h10.6l-3.8-28.9-6.8 28.8z"/><path class="a" d="m65.3 30.3h-15.5v10h11c0.5-4.6 1.3-6.9 4.5-10z"/><path fill-rule="evenodd" class="a" d="m154.7 50.3c0 16.1-13 29.1-29.1 29.1-16.1 0-29.1-13-29.1-29.1 0-16.1 13.1-29.1 29.1-29.1 16 0 29.1 13 29.1 29.1zm-29.1-21.2c-11.7 0-21.5 9.8-21.5 21.5 0 11.7 9.8 21.5 21.5 21.5 11.7 0 21.5-9.9 21.5-21.5 0-11.6-9.8-21.5-21.5-21.5z"/><path class="a" d="m129.9 35.3h-8.6v11h-11v8h11v11.5h8.6v-11.5h11.1v-8h-11.1z"/><path class="a" d="m100.2 26.9c4.4-4.7 9.7-8.2 15.5-10-2.1-0.6-3.6-2.5-3.6-4.7 0-2.6 2.3-4.9 4.9-4.9 2.6 0 4.9 2.3 4.9 4.9 0 1.4-0.7 2.7-1.7 3.6 1.8-0.3 3.5-0.5 5.4-0.5 1.1 0 2.1 0.1 3.1 0.2 0.3-1 0.4-2 0.4-3.1 0-6.8-5.5-12.3-12.3-12.3-6.8 0-12.3 5.5-12.3 12.3 0 2.8 0.9 5.4 2.6 7.6-2.9 1.8-5.2 4.2-6.9 6.9z"/><path fill-rule="evenodd" class="a" d="m86.8 28.9c-1.7-2.2-2.6-4.8-2.6-7.6 0-6.8 5.5-12.3 12.3-12.3 6.4 0 11.7 4.9 12.3 11.1-5.5 3.2-10.2 7.9-13.8 13.7-0.6 0.1-1.1 0.2-1.6 0.4-2.5-1.9-5.3-3.3-8.4-4.1 0.6-0.4 1.2-0.9 1.8-1.2zm5.1-7.9c0 2.7 2.2 4.9 4.9 4.9 2.6 0 4.9-2.3 4.9-4.9 0-2.6-2.3-4.9-4.9-4.9-2.6 0-4.9 2.3-4.9 4.9z"/><path class="a" d="m154.7 27.3c-1.2-1.3-2.6-2.4-4.1-3.3 1.7-2.2 2.6-4.8 2.6-7.6 0-6.8-5.5-12.3-12.3-12.3-6.5 0-11.8 5-12.3 11.4 2.7 0.2 5.3 0.8 7.7 1.7-0.1-0.3-0.1-0.6-0.1-1 0-2.6 2.3-4.9 4.9-4.9 2.6 0 4.9 2.3 4.9 4.9 0 1.8-1.1 3.5-2.7 4.3 4.4 2.7 8.2 6.4 11.4 10.9z"/><path fill-rule="evenodd" class="a" d="m90.9 65.2h-28.8v-3.2c0-7.2 3.7-13.7 9.7-17.3-1.7-2.2-2.6-4.8-2.6-7.6 0-6.8 5.5-12.3 12.3-12.3 6.5 0 11.8 5 12.3 11.4-2.4 4.9-3.9 10.5-4.2 16.4-2.1-2-4.9-3.2-7.8-3.2-5 0-9.5 3.5-11.2 8.3h19.1q0.3 3.9 1.2 7.5zm-14-28.4c0 2.7 2.2 4.9 4.9 4.9 2.6 0 4.9-2.3 4.9-4.9 0-2.6-2.3-4.9-4.9-4.9-2.6 0-4.9 2.3-4.9 4.9z"/></svg>