<?xml version="1.0" encoding="utf-8"?>
<!-- Generator: Adobe Illustrator 26.0.0, SVG Export Plug-In . SVG Version: 6.00 Build 0)  -->
<svg version="1.1" id="Layer_1" xmlns:sketch="http://www.bohemiancoding.com/sketch/ns"
	 xmlns="http://www.w3.org/2000/svg" xmlns:xlink="http://www.w3.org/1999/xlink" x="0px" y="0px" width="90px" height="59.4px"
	 viewBox="0 0 90 59.4" style="enable-background:new 0 0 90 59.4;" xml:space="preserve">
<style type="text/css">
	.st0{fill-rule:evenodd;clip-rule:evenodd;fill:#dfe2e4;}
</style>
<desc>Created with Sketch.</desc>
<g sketch:type="MSPage">
	<path sketch:type="MSShapeGroup" class="st0" d="M79,29H59v5h20V29L79,29z M73,37H59v5h14V37L73,37z M85,47.4H64.2
		c-3.2,0-7.4,1.3-10.1,3L52,51.7V24h33V47.4L85,47.4z M86,19H51c-1.2,0-2.3,0.5-3,1.4c-0.6,0.7-1,1.6-1,2.6v34c0,2.2,1.5,3,3.3,1.8
		l6.5-4.3c1.8-1.2,5.1-2.2,7.4-2.2H86c2.2,0,4-1.8,4-4V23C90,20.8,88.2,19,86,19L86,19L86,19z M31,10H11v5h20V10L31,10z M38,32.7
		l-2.1-1.4c-1.6-1-3.7-1.9-5.9-2.4c-1.5-0.4-2.9-0.6-4.2-0.6H5V5h33V32.7L38,32.7z M39,0H4C1.8,0,0,1.8,0,4v25.4c0,2.2,1.8,4,4,4
		h21.8c2.2,0,5.5,1,7.4,2.2l6.5,4.3c0.9,0.6,1.7,0.7,2.3,0.4c0.6-0.3,1-1.1,1-2.2V4C43,1.8,41.2,0,39,0L39,0L39,0z M25,19H11v5h14
		V19L25,19z"/>
</g>
</svg>
