<?xml version="1.0" encoding="utf-8"?>
<!-- Generator: Adobe Illustrator 26.0.0, SVG Export Plug-In . SVG Version: 6.00 Build 0)  -->
<svg version="1.1" id="Layer_1" xmlns="http://www.w3.org/2000/svg" xmlns:xlink="http://www.w3.org/1999/xlink" x="0px" y="0px"
	 width="70.2px" height="90.3px" viewBox="0 0 70.2 90.3" style="enable-background:new 0 0 70.2 90.3;" xml:space="preserve">
<style type="text/css">
	.st0{fill-rule:evenodd;clip-rule:evenodd;fill:#1F272E;}
	.st1{fill:#1F272E;}
</style>
<g>
	<g transform="matrix(6.12323e-17,1,-1,6.12323e-17,100,0)">
		<path class="st0" d="M88.3,99.7c0.8,0,1.5-0.4,1.8-1.1c0.4-0.7,0.3-1.5-0.1-2.1l-5.2-8l5-6c0.6-0.7,0.6-1.8,0.1-2.6l-5.1-7l5.1-7
			c0.5-0.7,0.5-1.7,0-2.4l-5.1-7l5.1-7c0.5-0.7,0.5-1.7,0-2.4l-5.1-7l5.1-7c0.5-0.6,0.5-1.5,0.2-2.2c-0.4-0.7-1.1-1.1-1.9-1.1h-86
			c-1.2,0-2.1,0.9-2.1,2.1v66c0,1.2,0.9,2.1,2.1,2.1h86.1V99.7z M84.5,95.5H4.4V33.7h79.8l-3.6,4.9c-0.5,0.7-0.5,1.7,0,2.4l5.1,7
			l-5.1,7c-0.5,0.7-0.5,1.7,0,2.4l5.1,7l-5.1,7c-0.5,0.7-0.5,1.7,0,2.4l5,6.9l-5,5.9c-0.5,1.1-0.6,2.1-0.1,2.8L84.5,95.5z"/>
	</g>
	<g transform="matrix(1.21459,0,0,1.21459,-1.17064,29.7055)">
		<path class="st0" d="M12.8,26.1h23.1c0.9,0,1.7-0.8,1.7-1.7c0-0.9-0.8-1.7-1.7-1.7H12.8c-0.9,0-1.7,0.8-1.7,1.7
			C11,25.3,11.8,26.1,12.8,26.1z"/>
	</g>
	<g transform="matrix(0.0867567,0,0,0.0867567,66.845,47.6218)">
		<path class="st0" d="M-143.6,158.3h23.1c13.3,0,24-10.8,24-24c0-13.3-10.8-24-24-24h-23.1c-13.3,0-24,10.8-24,24
			S-156.9,158.3-143.6,158.3z"/>
	</g>
	<g transform="matrix(1.21459,0,0,1.21459,-1.17064,41.7055)">
		<path class="st0" d="M12.8,26.1h23.1c0.9,0,1.7-0.8,1.7-1.7c0-0.9-0.8-1.7-1.7-1.7H12.8c-0.9,0-1.7,0.8-1.7,1.7
			C11,25.3,11.8,26.1,12.8,26.1z"/>
	</g>
	<g transform="matrix(0.0867567,0,0,0.0867567,66.845,59.6218)">
		<path class="st0" d="M-143.6,158.3h23.1c13.3,0,24-10.8,24-24c0-13.3-10.8-24-24-24h-23.1c-13.3,0-24,10.8-24,24
			S-156.9,158.3-143.6,158.3z"/>
	</g>
</g>
<g>
	<path class="st1" d="M24.9,18.8c0,5.5,4.5,10.2,10.2,10.2s10.2-4.5,10.2-10.2S40.8,8.8,35.1,8.8l0,0C29.6,8.8,24.9,13.3,24.9,18.8z
		 M41.4,18.8c0,3.3-2.8,6.1-6.1,6.1s-6.1-2.8-6.1-6.1s2.6-6.1,6.1-6.1C38.4,12.8,41.2,15.4,41.4,18.8L41.4,18.8L41.4,18.8z"/>
	<path class="st1" d="M44.3,49.4c1.7-0.7,3.3-1.9,4.7-2.9c1-0.9,1.4-2.4,0.7-3.6l-2.8-5.4c-0.7-1.6-2.3-2.4-3.8-2.4H27
		c-1.6,0-3.1,1-3.8,2.4l-2.8,5.4c-0.5,1.2-0.2,2.8,0.7,3.6c1.9,1.6,4.2,2.9,6.6,3.8C33.2,52.1,39.1,51.8,44.3,49.4z"/>
</g>
</svg>
