<?xml version="1.0" encoding="utf-8"?>
<!-- Generator: Adobe Illustrator 26.0.0, SVG Export Plug-In . SVG Version: 6.00 Build 0)  -->
<svg version="1.1" id="Layer_1" xmlns="http://www.w3.org/2000/svg" xmlns:xlink="http://www.w3.org/1999/xlink" x="0px" y="0px"
	 width="34.4px" height="17.2px" viewBox="0 0 34.4 17.2" style="enable-background:new 0 0 34.4 17.2;" xml:space="preserve">
<style type="text/css">
	.st0{fill:none;}
	.st1{fill:#1F272E;}
</style>
<g>
	<rect x="25.3" y="9" class="st0" width="3.3" height="1.5"/>
	<path class="st0" d="M22.8,9.7C22.8,9.3,22.4,9,22,9h-0.7c-0.4,0-0.7,0.3-0.7,0.7v0.8h2.1V9.7z"/>
	<rect x="25.1" y="6.8" class="st0" width="1.4" height="0.5"/>
	<path class="st0" d="M18.6,4.1c0,0.4,0.3,0.7,0.8,0.7s0.8-0.3,0.8-0.7V2.2h-1.5V4.1z"/>
	<rect x="16.6" y="11.2" class="st0" width="14.8" height="4.6"/>
	<path class="st0" d="M30.5,10.5V5.5c-0.3-0.1-0.6-0.2-0.8-0.5c-0.1,0.1-0.1,0.1-0.2,0.2c-0.6,0.5-1.6,0.4-2.1-0.2
		c-0.1,0.1-0.1,0.1-0.2,0.2c-0.6,0.5-1.5,0.4-2.1-0.2c-0.1,0.1-0.1,0.1-0.2,0.2c-0.6,0.5-1.6,0.4-2.1-0.2c-0.1,0.1-0.1,0.1-0.2,0.2
		c-0.6,0.5-1.5,0.4-2.1-0.2c-0.1,0.1-0.1,0.1-0.2,0.2c-0.6,0.5-1.5,0.4-2.1-0.2c-0.2,0.2-0.5,0.4-0.8,0.5v4.9h2.4V9.7
		c0-0.8,0.7-1.5,1.5-1.5h0.7c0.8,0,1.5,0.7,1.5,1.5v0.8h1V8.6c0-0.2,0.2-0.4,0.4-0.4h0.4V7.8h-0.9V6.2H27v1.6h-0.9v0.4h2.8
		c0.2,0,0.4,0.2,0.4,0.4v1.9H30.5z M21.7,8.1c-0.7,0-1.3-0.6-1.3-1.2s0.6-1.2,1.3-1.2S23,6.2,23,6.9S22.4,8.1,21.7,8.1z"/>
	<path class="st0" d="M21.7,7.4c0.3,0,0.5-0.2,0.5-0.5S22,6.4,21.7,6.4s-0.5,0.2-0.5,0.5S21.5,7.4,21.7,7.4z"/>
	<path class="st0" d="M16.3,4.1c0,0.4,0.3,0.7,0.8,0.7c0.4,0,0.8-0.3,0.8-0.7V2.2h-1.5V4.1z"/>
	<rect x="16.3" y="0.8" class="st0" width="15.4" height="0.6"/>
	<path class="st0" d="M31.7,4.1V2.2h-1.5v1.9c0,0.4,0.3,0.7,0.8,0.7C31.4,4.8,31.7,4.5,31.7,4.1z"/>
	<path class="st0" d="M27.9,4.1c0,0.4,0.3,0.7,0.8,0.7s0.8-0.3,0.8-0.7V2.2h-1.5V4.1z"/>
	<path class="st0" d="M25.6,4.1c0,0.4,0.3,0.7,0.8,0.7s0.8-0.3,0.8-0.7V2.2h-1.5V4.1z"/>
	<path class="st0" d="M23.3,4.1c0,0.4,0.3,0.7,0.8,0.7c0.4,0,0.8-0.3,0.8-0.7V2.2h-1.5V4.1z"/>
	<path class="st0" d="M20.9,4.1c0,0.4,0.3,0.7,0.8,0.7s0.8-0.3,0.8-0.7V2.2h-1.5V4.1z"/>
	<path class="st1" d="M31.3,10.5V5.5c0.7-0.2,1.2-0.8,1.2-1.5V0.4c0-0.2-0.2-0.4-0.4-0.4H16c-0.2,0-0.4,0.2-0.4,0.4v3.6
		c0,0.7,0.5,1.3,1.2,1.5v4.9h-1.4v0.8h0.6v5c0,0.2,0.2,0.4,0.4,0.4h1v0.6h0.8v-0.6H30v0.6h0.8v-0.6h1c0.2,0,0.4-0.2,0.4-0.4v-5h0.6
		v-0.8H31.3z M31.4,11.2v4.6H16.6v-4.6H31.4z M28.9,8.2h-2.8V7.8H27V6.2h-2.5v1.6h0.9v0.4h-0.4c-0.2,0-0.4,0.2-0.4,0.4v1.9h-1V9.7
		c0-0.8-0.7-1.5-1.5-1.5h-0.7c-0.8,0-1.5,0.7-1.5,1.5v0.8h-2.4V5.5c0.3-0.1,0.6-0.2,0.8-0.5c0.5,0.6,1.4,0.7,2.1,0.2
		c0.1-0.1,0.2-0.1,0.2-0.2c0.5,0.6,1.4,0.7,2.1,0.2c0.1-0.1,0.2-0.1,0.2-0.2c0.5,0.6,1.4,0.7,2.1,0.2c0.1-0.1,0.2-0.1,0.2-0.2
		c0.5,0.6,1.4,0.7,2.1,0.2c0.1-0.1,0.2-0.1,0.2-0.2c0.5,0.6,1.4,0.7,2.1,0.2c0.1-0.1,0.2-0.1,0.2-0.2c0.2,0.2,0.5,0.4,0.8,0.5v4.9
		h-1.2V8.6C29.3,8.4,29.1,8.2,28.9,8.2z M28.5,9v1.5h-3.3V9H28.5z M25.1,7.3V6.8h1.4v0.5H25.1z M20.7,9.7C20.7,9.3,21,9,21.4,9H22
		c0.4,0,0.7,0.3,0.7,0.7v0.8h-2.1V9.7z M20.2,4.1c0,0.4-0.3,0.7-0.8,0.7s-0.8-0.3-0.8-0.7V2.2h1.5V4.1z M22.5,4.1
		c0,0.4-0.3,0.7-0.8,0.7s-0.8-0.3-0.8-0.7V2.2h1.5V4.1z M24.8,4.1c0,0.4-0.3,0.7-0.8,0.7c-0.4,0-0.8-0.3-0.8-0.7V2.2h1.5V4.1z
		 M27.1,4.1c0,0.4-0.3,0.7-0.8,0.7s-0.8-0.3-0.8-0.7V2.2h1.5V4.1z M29.4,4.1c0,0.4-0.3,0.7-0.8,0.7s-0.8-0.3-0.8-0.7V2.2h1.5V4.1z
		 M17.9,4.1c0,0.4-0.3,0.7-0.8,0.7c-0.4,0-0.8-0.3-0.8-0.7V2.2h1.5V4.1z M30.2,4.1V2.2h1.5v1.9c0,0.4-0.3,0.7-0.8,0.7
		C30.5,4.8,30.2,4.5,30.2,4.1z M16.3,1.4V0.8h15.4v0.6H16.3z"/>
	<path class="st1" d="M21.7,5.7c-0.7,0-1.3,0.6-1.3,1.2s0.6,1.2,1.3,1.2S23,7.6,23,6.9S22.4,5.7,21.7,5.7z M21.7,6.4
		c0.3,0,0.5,0.2,0.5,0.5S22,7.4,21.7,7.4s-0.5-0.2-0.5-0.5S21.5,6.4,21.7,6.4z"/>
</g>
</svg>
