<?xml version="1.0" encoding="utf-8"?>
<!-- Generator: Adobe Illustrator 26.0.0, SVG Export Plug-In . SVG Version: 6.00 Build 0)  -->
<svg version="1.1" id="Layer_1" xmlns="http://www.w3.org/2000/svg" xmlns:xlink="http://www.w3.org/1999/xlink" x="0px" y="0px"
	 width="45.6px" height="38.9px" viewBox="0 0 45.6 38.9" style="enable-background:new 0 0 45.6 38.9;" xml:space="preserve">
<style type="text/css">
	.st0{fill:#FFFFFF;}
</style>
<g>
	<path class="st0" d="M23.2,33.5h0.3l6.5-2.1c0.1-0.1,0.2-0.1,0.3-0.2c0.1,0,0.1-0.1,0.2-0.1l14.3-16.4c1.2-1.3,1.1-3.5-0.3-4.8
		l-2.3-2c-0.7-0.6-1.7-0.9-2.5-0.8c-1,0.1-1.7,0.5-2.3,1.1L33,13.4v-12C33,0.6,32.3,0,31.5,0h-30C0.6,0,0,0.6,0,1.5v36
		c0,0.8,0.6,1.5,1.5,1.5h30c0.8,0,1.5-0.6,1.5-1.5V33c0-0.8-0.6-1.5-1.5-1.5c-0.9,0-1.5,0.6-1.5,1.5v3H2.9V2.9H30v13.9l-6.8,7.8
		c-0.2,0.2-0.3,0.5-0.3,0.8l-1.1,6.4c-0.2,0.5,0.1,1.1,0.4,1.4C22.5,33.4,22.8,33.5,23.2,33.5z M38.3,11.7l1.2-1.5
		c0.2-0.2,0.5-0.2,0.7,0l2.2,1.9c0.2,0.2,0.3,0.5,0.1,0.7l-1.2,1.5L38.3,11.7z M25.1,30l0.6-3.8l10.7-12.3l3,2.6L28.7,28.8L25.1,30z
		"/>
	<path class="st0" d="M8.6,8.6h15.6c0.9,0,1.5-0.6,1.5-1.5s-0.6-1.5-1.5-1.5H8.6c-0.8,0-1.5,0.6-1.5,1.5C7.1,7.9,7.8,8.6,8.6,8.6z"
		/>
	<path class="st0" d="M8.6,14.1h15.6c0.9,0,1.5-0.6,1.5-1.5s-0.6-1.5-1.5-1.5H8.6c-0.8,0-1.5,0.6-1.5,1.5
		C7.1,13.5,7.8,14.1,8.6,14.1z"/>
	<path class="st0" d="M25.8,18.1c0-0.8-0.6-1.5-1.5-1.5H8.7c-0.9,0-1.5,0.6-1.5,1.5s0.6,1.5,1.5,1.5h15.6
		C25.2,19.6,25.8,18.9,25.8,18.1z"/>
	<path class="st0" d="M8.6,30.6c-0.9,0-1.5,0.6-1.5,1.5c0,0.8,0.6,1.5,1.5,1.5h8.5c0.8,0,1.5-0.6,1.5-1.5c0-0.9-0.6-1.5-1.5-1.5H8.6
		z"/>
</g>
</svg>
