<?xml version="1.0" encoding="utf-8"?>
<!-- Generator: Adobe Illustrator 24.2.0, SVG Export Plug-In . SVG Version: 6.00 Build 0)  -->
<svg version="1.1" id="Layer_1" xmlns="http://www.w3.org/2000/svg" xmlns:xlink="http://www.w3.org/1999/xlink" x="0px" y="0px"
	 width="65.7px" height="39.5px" viewBox="0 0 65.7 39.5" style="enable-background:new 0 0 65.7 39.5;" xml:space="preserve">
<style type="text/css">
	.st0{fill:#FFFFFF;}
	.st1{fill:none;}
</style>
<g>
	<g>
		<path class="st0" d="M52.4,39.5c-7.3,0-13.3-6-13.3-13.3s6-13.3,13.3-13.3s13.3,6,13.3,13.3S59.7,39.5,52.4,39.5z M52.4,15.4
			c-6,0-11,5-11,11s5,11,11,11s11-5,11-11S58.4,15.4,52.4,15.4z"/>
	</g>
	<g>
		<path class="st0" d="M59.1,27.6h-5.3V33H51v-5.5h-5.3V25H51v-5.3h2.8v5.5h5.3V27.6z"/>
	</g>
</g>
<path class="st1" d="M56.1,10.2c0,1.6,1.3,2.8,2.8,2.8c0.3,0,0.6-0.1,0.8-0.1l-1.1-5.4C57.3,7.5,56.1,8.7,56.1,10.2z"/>
<polygon class="st1" points="2.7,27.4 10.6,27.4 7.8,5.5 "/>
<path class="st1" d="M60.4,16.4l-0.3-1.8c-0.4-0.1-0.8-0.1-1.2-0.1c-2.8,0-5.2,2.2-5.6,5H55h7.9h1.6c-0.2-1.5-1-2.9-2.2-3.8l0.6,3.2
	C62.2,17.9,61.4,17.1,60.4,16.4z"/>
<path class="st1" d="M61.7,10.2c0-0.7-0.3-1.4-0.8-1.9l0.6,3C61.6,10.9,61.7,10.6,61.7,10.2z"/>
<path class="st0" d="M39.2,30.6L39.2,30.6c0-0.2,0-0.4,0-0.5c0-3.1-1.9-5.7-4.5-6.8c1-0.8,1.6-2,1.6-3.3c0-2.3-1.9-4.2-4.2-4.2
	s-4.2,1.9-4.2,4.2c0,1.3,0.6,2.5,1.6,3.3C26.9,24.4,25,27,25,30.1c0,0.2,0,0.4,0,0.5H39.2z M28.3,29.2h-1.7c0.4-2.8,2.8-5,5.6-5
	s5.2,2.2,5.6,5h-1.6H28.3z M29.4,19.9c0-1.5,1.3-2.8,2.8-2.8s2.8,1.3,2.8,2.8s-1.3,2.8-2.8,2.8C30.7,22.7,29.4,21.5,29.4,19.9z"/>
<path class="st0" d="M30.4,15.6h-9.5v2.2h7C28.4,16.8,29.3,16.1,30.4,15.6z"/>
<g>
	<path class="st0" d="M40,19.8h-3.2c0,0.3,0,0.6,0,0.9c0,0.2-0.1,0.3-0.1,0.5h2.7C39.5,20.7,39.7,20.2,40,19.8z"/>
	<path class="st0" d="M41.1,18c0.3-0.4,0.6-0.7,0.9-1.1c-0.8-1.4-2-2.4-3.5-3c1-0.8,1.6-2,1.6-3.3c0-2.3-1.9-4.2-4.2-4.2
		s-4.2,1.9-4.2,4.2c0,1.3,0.6,2.5,1.6,3.3c-0.8,0.3-1.5,0.8-2.2,1.4c0.2,0,0.4,0,0.5,0c0.6,0,1.1,0.1,1.7,0.2
		c0.8-0.5,1.7-0.7,2.7-0.7C38.3,14.8,40.2,16.1,41.1,18z M36.1,13.3c-1.5,0-2.8-1.2-2.8-2.8c0-1.5,1.3-2.8,2.8-2.8s2.8,1.3,2.8,2.8
		S37.6,13.3,36.1,13.3z"/>
</g>
<path class="st0" d="M45.3,14.3h-2h-1.7c0.4-2.8,2.8-5,5.6-5c2.1,0,4,1.3,5,3.1c0,0,0.1,0,0.1,0c0.5,0,0.9,0,1.4,0.1
	c-0.7-1.9-2.2-3.3-4-4.1c1-0.8,1.6-2,1.6-3.3c0-2.3-1.9-4.2-4.2-4.2s-4.2,1.9-4.2,4.2c0,1.3,0.6,2.5,1.6,3.3
	c-2.6,1.1-4.5,3.7-4.5,6.8c0,0.2,0,0.4,0,0.5h3.3C43.9,15.2,44.6,14.7,45.3,14.3z M44.4,5c0-1.5,1.3-2.8,2.8-2.8S50,3.5,50,5
	s-1.3,2.8-2.8,2.8S44.4,6.6,44.4,5z"/>
<path class="st0" d="M60.5,15.1c1.7,0.6,3,2,3.6,3.7c0.5,0.7,0.9,1.5,1.2,2.3h0.4c0-0.2,0-0.4,0-0.5c0-3.1-1.9-5.7-4.5-6.8
	c1-0.8,1.6-2,1.6-3.3c0-2.3-1.9-4.2-4.2-4.2c-2.3,0-4.2,1.9-4.2,4.2c0,0.8,0.2,1.5,0.6,2.1C57,13.1,58.9,14,60.5,15.1z M58.7,7.7
	c1.5,0,2.8,1.3,2.8,2.8s-1.3,2.8-2.8,2.8s-2.8-1.2-2.8-2.8C55.9,9,57.2,7.7,58.7,7.7z"/>
<path class="st0" d="M59.3,0H7L0,29.4h10.6l0.5,4h31.5c-0.3-0.5-0.6-1.2-0.9-1.9H12.9L9.3,2h33.8c0.9-1.2,2.4-2,4-2s3.1,0.8,4,2h6.5
	l0.8,4.1c0.1,0,0.3,0,0.4,0c0.6,0,1.2,0.1,1.7,0.4L59.3,0z M10.6,27.4H2.7L7.8,5.5L10.6,27.4z"/>
</svg>
