<?xml version="1.0" encoding="utf-8"?>
<!-- Generator: Adobe Illustrator 26.0.0, SVG Export Plug-In . SVG Version: 6.00 Build 0)  -->
<svg version="1.1" id="Layer_1" xmlns="http://www.w3.org/2000/svg" xmlns:xlink="http://www.w3.org/1999/xlink" x="0px" y="0px"
	 width="34.4px" height="17.2px" viewBox="0 0 34.4 17.2" style="enable-background:new 0 0 34.4 17.2;" xml:space="preserve">
<style type="text/css">
	.st0{fill:#1F272E;}
</style>
<g>
	<g>
		<path class="st0" d="M34.4,11.8c0-3-2.4-5.4-5.4-5.4V0.5C29,0.2,28.7,0,28.5,0H17.7c-0.3,0-0.5,0.2-0.5,0.5v16.1
			c0,0.3,0.2,0.5,0.5,0.5H29c0,0,0,0,0,0C32,17.2,34.4,14.8,34.4,11.8z M18.2,16.1V1.1h9.7v5.5c-2.5,0.5-4.3,2.7-4.3,5.3
			c0,1.8,0.9,3.3,2.2,4.3H18.2z M29,16.1c-2.4,0-4.3-1.9-4.3-4.3s1.9-4.3,4.3-4.3s4.3,1.9,4.3,4.3S31.4,16.1,29,16.1z"/>
		<path class="st0" d="M29.5,11.3h-1.1c-0.3,0-0.5-0.2-0.5-0.5c0-0.3,0.2-0.5,0.5-0.5h1.6c0.3,0,0.5-0.2,0.5-0.5
			c0-0.3-0.2-0.5-0.5-0.5h-0.5V8.9c0-0.3-0.2-0.5-0.5-0.5s-0.5,0.2-0.5,0.5v0.3c-0.9,0-1.6,0.7-1.6,1.6c0,0.9,0.7,1.6,1.6,1.6h1.1
			c0.3,0,0.5,0.2,0.5,0.5s-0.2,0.5-0.5,0.5h-1.6c-0.3,0-0.5,0.2-0.5,0.5c0,0.3,0.2,0.5,0.5,0.5h0.5v0.3c0,0.3,0.2,0.5,0.5,0.5
			s0.5-0.2,0.5-0.5v-0.3c0.9,0,1.6-0.7,1.6-1.6S30.4,11.3,29.5,11.3z"/>
		<path class="st0" d="M19.9,5.9h6.5c0.3,0,0.5-0.2,0.5-0.5V2.7c0-0.3-0.2-0.5-0.5-0.5h-6.5c-0.3,0-0.5,0.2-0.5,0.5v2.7
			C19.3,5.7,19.6,5.9,19.9,5.9z M20.4,3.2h5.4v1.6h-5.4V3.2z"/>
		<path class="st0" d="M23.1,7H22c-0.3,0-0.5,0.2-0.5,0.5c0,0.3,0.2,0.5,0.5,0.5h1.1c0.3,0,0.5-0.2,0.5-0.5C23.6,7.2,23.4,7,23.1,7z
			"/>
		<circle class="st0" cx="19.9" cy="7.5" r="0.5"/>
		<circle class="st0" cx="19.9" cy="9.7" r="0.5"/>
		<circle class="st0" cx="22" cy="9.7" r="0.5"/>
		<circle class="st0" cx="19.9" cy="11.8" r="0.5"/>
		<circle class="st0" cx="22" cy="11.8" r="0.5"/>
		<circle class="st0" cx="19.9" cy="14" r="0.5"/>
		<circle class="st0" cx="22" cy="14" r="0.5"/>
	</g>
</g>
</svg>
