<?xml version="1.0" encoding="utf-8"?>
<!-- Generator: Adobe Illustrator 24.2.0, SVG Export Plug-In . SVG Version: 6.00 Build 0)  -->
<svg version="1.1" id="Layer_1" xmlns="http://www.w3.org/2000/svg" xmlns:xlink="http://www.w3.org/1999/xlink" x="0px" y="0px"
	 width="79.3px" height="79.3px" viewBox="0 0 79.3 79.3" style="enable-background:new 0 0 79.3 79.3;" xml:space="preserve">
<style type="text/css">
	.st0{fill:#FFFFFF;}
</style>
<path class="st0" d="M5.7,0h58.1c1.5,0,2.9,0.6,4,1.7l9.9,9.9c1.1,1.1,1.7,2.5,1.7,4v58.1c0,3.1-2.5,5.7-5.7,5.7h-68
	c-3.1,0-5.7-2.5-5.7-5.7v-68C0,2.5,2.5,0,5.7,0L5.7,0z M17,5.7H7.6c-1,0-1.9,0.8-1.9,1.9v64.2c0,1,0.8,1.9,1.9,1.9h64.2
	c1,0,1.9-0.8,1.9-1.9V16.3c0-0.5-0.2-1-0.6-1.3l-8.8-8.8c-0.4-0.4-0.8-0.6-1.3-0.6h-0.9c-0.9,0-1.7,0.7-1.7,1.7v13.4
	c0,3.1-2.5,5.7-5.7,5.7H24.5c-3.1,0-5.7-2.5-5.7-5.7V7.6C18.9,6.5,18,5.7,17,5.7L17,5.7z M26.4,20.8h26.4c1,0,1.9-0.8,1.9-1.9V7.6
	c0-1-0.8-1.9-1.9-1.9H26.4c-1,0-1.9,0.8-1.9,1.9v11.3C24.5,19.9,25.4,20.8,26.4,20.8z M17,37.8h45.3c3.1,0,5.7,2.5,5.7,5.7v18.9
	c0,3.1-2.5,5.7-5.7,5.7H17c-3.1,0-5.7-2.5-5.7-5.7V43.4C11.3,40.3,13.9,37.8,17,37.8z M17,45.3v15.1c0,1,0.8,1.9,1.9,1.9h41.5
	c1,0,1.9-0.8,1.9-1.9V45.3c0-1-0.8-1.9-1.9-1.9H18.9C17.8,43.4,17,44.3,17,45.3L17,45.3z"/>
</svg>
