<svg xmlns="http://www.w3.org/2000/svg" xmlns:xlink="http://www.w3.org/1999/xlink" version="1.1" id="Layer_1" x="0px" y="0px" width="79.2px" height="79.2px" viewBox="0 0 69.2 79.3" style="enable-background:new 0 0 69.2 79.3;" xml:space="preserve">
<style type="text/css">
	.st0{fill:#364963;}
	.st1{display:none;fill:#364963;}
</style>
<g>
	<path class="st0" d="M54.3,32.1c-2.1,0-3.8,1.7-3.8,3.8v7.4c0,2.1,1.7,3.8,3.8,3.8c2.1,0,3.8-1.7,3.8-3.8V36   C58.1,33.9,56.4,32.1,54.3,32.1z"/>
	<path class="st0" d="M37.1,66.7H23.4c-0.6,0-1.1-0.5-1.1-1.1V48c0-2.1-1.7-3.8-3.8-3.8s-3.8,1.7-3.8,3.8v17.6   c0,4.8,3.9,8.7,8.7,8.7h13.7c2.1,0,3.8-1.7,3.8-3.8C40.9,68.4,39.2,66.7,37.1,66.7z"/>
	<path class="st0" d="M18.5,35.1c2.1,0,3.8-1.7,3.8-3.8V13.7c0-0.6,0.5-1.1,1.1-1.1H37c2.1,0,3.8-1.7,3.8-3.8S39.1,5,37,5H23.4   c-4.8,0-8.7,3.9-8.7,8.7v17.6C14.7,33.4,16.4,35.1,18.5,35.1z"/>
	<path class="st1" d="M3,43.5h26.7c2.1,0,3.8-1.7,3.8-3.8c0-2.1-1.7-3.8-3.8-3.8H3L8.8,30c0.7-0.7,1.1-1.7,1.1-2.7   c0-1-0.4-2-1.1-2.7c-1.4-1.4-3.9-1.4-5.4,0L-8.9,37c-0.4,0.4-0.6,0.8-0.8,1.2c-0.4,0.9-0.4,2,0,2.9l0,0c0.2,0.5,0.5,0.9,0.8,1.2   L3.5,54.7c0.7,0.7,1.7,1.1,2.7,1.1s2-0.4,2.7-1.1C9.6,54,10,53,10,52c0-1-0.4-2-1.1-2.7L3,43.5z"/>
	<path class="st0" d="M30.5,35.9H3.8c-2.1,0-3.8,1.7-3.8,3.8c0,2.1,1.7,3.8,3.8,3.8h26.7l-5.8,5.8C23.9,50,23.5,51,23.5,52   c0,1,0.4,2,1.1,2.7c1.4,1.4,3.9,1.4,5.4,0l12.3-12.3c0.4-0.4,0.6-0.8,0.8-1.2c0.4-0.9,0.4-2,0-2.9l0,0c-0.2-0.5-0.5-0.9-0.8-1.2   L30,24.6c-0.7-0.7-1.7-1.1-2.7-1.1c-1,0-2,0.4-2.7,1.1c-0.7,0.7-1.1,1.7-1.1,2.7c0,1,0.4,2,1.1,2.7L30.5,35.9z"/>
	<path class="st0" d="M63.1,5.3L51.3,0.6c-0.9-0.3-1.8-0.5-2.6-0.5c-3.9,0-6.9,3.2-6.9,7.5v26.2L45,37c0.4,0.4,0.6,0.8,0.8,1.2l0,0   c0.4,0.9,0.4,2,0,2.9c-0.2,0.5-0.5,0.9-0.8,1.2l-3.2,3.2v26.2c0,2.7,1.1,5,3.1,6.3c1.1,0.8,2.4,1.2,3.8,1.2c0.9,0,1.8-0.2,2.6-0.5   L63,74.1c4.3-1.6,6.2-4.2,6.2-8.5V13.7C69.2,9.4,67.3,6.8,63.1,5.3z M61.6,65.6c0,0.6-0.1,0.8,0,0.8c-0.1,0.1-0.3,0.2-1.3,0.6   l-10.8,4.3V8l10.9,4.4c1,0.4,1.2,0.5,1.1,0.5c0,0,0.1,0.2,0.1,0.9V65.6z"/>
</g>
</svg>