<?xml version="1.0" encoding="utf-8"?>
<!-- Generator: Adobe Illustrator 26.0.0, SVG Export Plug-In . SVG Version: 6.00 Build 0)  -->
<svg version="1.1" id="Layer_1" xmlns="http://www.w3.org/2000/svg" xmlns:xlink="http://www.w3.org/1999/xlink" x="0px" y="0px"
	 width="47.8px" height="60.8px" viewBox="0 0 47.8 60.8" style="enable-background:new 0 0 47.8 60.8;" xml:space="preserve">
<style type="text/css">
	.st0{opacity:0.63;fill:url(#SVGID_1_);enable-background:new    ;}
	.st1{fill:#999999;}
	.st2{fill:#FFD76B;}
</style>
<g>
	<g>
		
			<radialGradient id="SVGID_1_" cx="45.003" cy="123.8548" r="18.092" gradientTransform="matrix(1.398 0 0 0.2865 -38.7329 20.2004)" gradientUnits="userSpaceOnUse">
			<stop  offset="1.437700e-08" style="stop-color:#5E5E5E"/>
			<stop  offset="0.1191" style="stop-color:#666666;stop-opacity:0.8809"/>
			<stop  offset="0.2998" style="stop-color:#7B7B7B;stop-opacity:0.7002"/>
			<stop  offset="0.5197" style="stop-color:#9D9D9D;stop-opacity:0.4803"/>
			<stop  offset="0.7678" style="stop-color:#CCCCCC;stop-opacity:0.2322"/>
			<stop  offset="1" style="stop-color:#FFFFFF;stop-opacity:0"/>
		</radialGradient>
		<ellipse class="st0" cx="24.2" cy="55.7" rx="35.1" ry="14.6"/>
		<path class="st1" d="M13.8,6c-0.4-0.4-0.3-1.1,0.1-1.5c0,0,0,0,0,0c0.4-0.4,1-0.3,1.4,0.1c0.4,0.4,0.3,1-0.1,1.4
			C15,6.4,14.3,6.4,13.8,6C13.9,6,13.9,6,13.8,6z M44.9,13.7l-7.2-0.4C36.6,5.4,29.4,0,21.6,1c-1.7,0.2-3.3,0.7-4.7,1.5
			c-0.5,0.3-0.7,0.9-0.4,1.4c0.3,0.5,0.9,0.7,1.4,0.4l0,0c6-3.2,13.5-0.9,16.6,5.2c0.6,1.2,1,2.4,1.2,3.7l-4.3-0.2
			c-1.8-4.3-6.7-6.4-11-4.7c-2.1,0.9-3.8,2.6-4.7,4.7c0,0,0,0,0,0c-0.3,0.8-1,1.3-1.9,1.3c-0.7,0.1-1.4-0.2-1.8-0.8
			c-0.4-0.5-0.5-1.1-0.3-1.7c0.4-1.3,1-2.6,1.8-3.7c0.3-0.5,0.2-1.1-0.2-1.4c-0.4-0.3-1.1-0.2-1.4,0.2c-0.9,1.3-1.6,2.8-2.1,4.3
			c-0.6,2.1,0.6,4.3,2.7,4.9c0.3,0.1,0.7,0.2,1.1,0.2c0.5,0,1.1-0.1,1.6-0.2v0c0,2.5,1.1,4.9,3,6.5h-4.2c-2.6,0-4.7,2.1-4.7,4.7
			v26.3c0,0.6,0.4,1,1,1h26.7c0.6,0,1-0.4,1-1V19l7-0.4c1.3-0.1,2.4-1.2,2.3-2.6C47.1,14.8,46.2,13.8,44.9,13.7z M17.1,16.1
			c0-3.6,2.9-6.5,6.5-6.5c2.3,0,4.4,1.2,5.6,3.1l-5.5-0.3c-2-0.1-3.8,1.4-3.9,3.4s1.4,3.8,3.4,3.9c0.1,0,0.2,0,0.2,0
			c0.1,0,0.1,0,0.2,0l5.5-0.3c-1.8,3.1-5.8,4.1-8.9,2.2C18.2,20.5,17.1,18.4,17.1,16.1L17.1,16.1z M35.9,52.7H11.2V27.3
			c0-1.5,1.2-2.7,2.7-2.7c0,0,10.2,0,10.2,0c3.2-0.2,6-2.3,7.2-5.2l4.5-0.3L35.9,52.7z M44.8,16.5l-21.4,1.2
			c-0.9,0.1-1.7-0.6-1.8-1.6c-0.1-0.9,0.6-1.7,1.6-1.8c0,0,0.1,0,0.1,0h0.1l21.4,1.2c0.2,0,0.4,0.2,0.4,0.5
			C45.2,16.4,45,16.5,44.8,16.5L44.8,16.5z"/>
	</g>
	<path class="st2" d="M30.1,37.6C30.1,37.6,30.1,37.6,30.1,37.6C30.1,37.5,30.1,37.5,30.1,37.6c-2.2-3.7-6.9-4.8-10.5-2.6
		c-3.5,2.1-4.7,6.6-2.7,10.2c0,0,0,0,0,0c0,0,0,0,0,0.1c2.2,3.6,6.8,4.8,10.5,2.7C31,45.8,32.2,41.2,30.1,37.6z M21.6,36.1
		c0.6-0.2,1.3-0.3,1.9-0.3l0,0c1.7,0,3.2,0.7,4.3,2l-9.6,5.5C17.1,40.4,18.7,37.1,21.6,36.1z M25.4,46.7c-0.6,0.2-1.3,0.3-1.9,0.3
		l0,0c-1.7,0-3.2-0.7-4.3-2l9.6-5.5C29.9,42.4,28.4,45.6,25.4,46.7z"/>
</g>
</svg>
