<?xml version="1.0" encoding="utf-8"?>
<!-- Generator: Adobe Illustrator 26.0.0, SVG Export Plug-In . SVG Version: 6.00 Build 0)  -->
<svg version="1.1" id="Layer_1" xmlns="http://www.w3.org/2000/svg" xmlns:xlink="http://www.w3.org/1999/xlink" x="0px" y="0px"
	 width="34.4px" height="17.2px" viewBox="0 0 34.4 17.2" style="enable-background:new 0 0 34.4 17.2;" xml:space="preserve">
<style type="text/css">
	.st0{fill:#1F272E;}
</style>
<g>
	<path class="st0" d="M34,6c-0.2-0.2-0.5-0.3-0.8-0.4c-0.3,0-0.6,0.1-0.8,0.3l-6.1,6c-0.1,0.1-0.1,0.1-0.1,0.2l-0.1,1.2
		c0,0.1,0,0.2,0.1,0.3c0.1,0.1,0.2,0.1,0.3,0.1c0,0,0,0,0,0l1.2-0.1c0.1,0,0.2,0,0.2-0.1l6-6c0.2-0.2,0.3-0.5,0.3-0.8
		C34.3,6.4,34.2,6.2,34,6z M32.4,8.1L27.6,13L26.9,13l0.1-0.7l4.9-4.8L32.4,8.1z M33.2,6.3c0.1,0,0.2,0.1,0.3,0.2
		c0.1,0.1,0.1,0.2,0.2,0.3c0,0.1,0,0.2-0.1,0.3l-0.6,0.6L32.3,7l0.6-0.6C33,6.4,33.1,6.3,33.2,6.3z"/>
	<path class="st0" d="M30.8,11.4c-0.1,0.1-0.1,0.2-0.1,0.3v4.8l-11.2,0V4.8H23c0.2,0,0.4-0.2,0.4-0.4V1.7c0-0.1,0-0.2-0.1-0.3
		c-0.1-0.1-0.2-0.1-0.3-0.1c0,0,0,0,0,0c-0.2,0-0.4,0.2-0.4,0.4V4h-2.8l2.9-3.3h7.9v5.7c0,0.1,0,0.2,0.1,0.3c0.1,0.1,0.4,0.1,0.5,0
		c0.1-0.1,0.1-0.2,0.1-0.3V0.4C31.4,0.2,31.2,0,31,0h-8.5c-0.1,0-0.2,0-0.3,0.1l-3.5,4c-0.1,0.1-0.1,0.1-0.1,0.2v12.4
		c0,0.2,0.2,0.4,0.4,0.4l11.9,0c0.2,0,0.4-0.2,0.4-0.4v-5.1c0-0.1,0-0.2-0.1-0.3C31.1,11.3,30.9,11.3,30.8,11.4z"/>
	<path class="st0" d="M22.4,12.6h-1.7c-0.1,0-0.2,0-0.3,0.1c-0.1,0.1-0.1,0.2-0.1,0.3v1.6c0,0.1,0,0.2,0.1,0.3s0.2,0.1,0.3,0.1h1.7
		c0,0,0,0,0,0c0.1,0,0.2,0,0.3-0.1c0.1-0.1,0.1-0.2,0.1-0.3v-1.6c0-0.1,0-0.2-0.1-0.3C22.5,12.6,22.5,12.6,22.4,12.6
		C22.4,12.6,22.4,12.6,22.4,12.6z M22,13.3v0.8h-0.9v-0.8H22z"/>
	<path class="st0" d="M25.5,13.3c0.1,0,0.2,0,0.3-0.1c0.1-0.1,0.1-0.2,0.1-0.3s0-0.2-0.1-0.3c-0.1-0.1-0.2-0.1-0.3-0.1h-1.9
		c-0.2,0-0.4,0.2-0.4,0.4v1.6c0,0.2,0.2,0.4,0.4,0.4h5.8c0,0,0,0,0,0c0.1,0,0.2,0,0.3-0.1c0.1-0.1,0.1-0.2,0.1-0.3v-1.6
		c0-0.1,0-0.2-0.1-0.3c-0.1-0.1-0.2-0.1-0.3-0.1c0,0,0,0,0,0c-0.1,0-0.2,0-0.3,0.1c-0.1,0.1-0.1,0.2-0.1,0.3v1.2h-5.1v-0.8H25.5z"/>
	<path class="st0" d="M22.7,9.6c0-0.2-0.2-0.4-0.4-0.4h-1.7c-0.2,0-0.4,0.2-0.4,0.4v1.6c0,0.2,0.2,0.4,0.4,0.4h1.7
		c0.2,0,0.4-0.2,0.4-0.4V9.6z M22,9.9v0.8h-0.9V9.9H22z"/>
	<path class="st0" d="M27.8,9.9c0.1,0,0.2,0,0.3-0.1c0.1-0.1,0.1-0.2,0.1-0.3c0-0.1,0-0.2-0.1-0.3c-0.1-0.1-0.2-0.1-0.3-0.1h-4.2
		c-0.2,0-0.4,0.2-0.4,0.4v1.6c0,0.2,0.2,0.4,0.4,0.4h2.7c0,0,0,0,0,0c0.1,0,0.2,0,0.3-0.1c0.1-0.1,0.1-0.2,0.1-0.3s0-0.2-0.1-0.3
		c-0.1-0.1-0.2-0.1-0.3-0.1h-2.3V9.9H27.8z"/>
	<path class="st0" d="M22.7,6.2c0-0.2-0.2-0.4-0.4-0.4h-1.7c-0.1,0-0.2,0-0.3,0.1c-0.1,0.1-0.1,0.2-0.1,0.3v1.6c0,0.1,0,0.2,0.1,0.3
		c0.1,0.1,0.2,0.1,0.3,0.1h1.7c0.2,0,0.4-0.2,0.4-0.4V6.2z M22,6.6v0.8h-0.9V6.6H22z"/>
	<path class="st0" d="M29.8,7.8V6.2c0-0.2-0.2-0.4-0.4-0.4h-5.8c-0.2,0-0.4,0.2-0.4,0.4v1.6c0,0.2,0.2,0.4,0.4,0.4h5.8
		C29.6,8.1,29.8,8,29.8,7.8z M29,6.6v0.8h-5.1V6.6H29z"/>
</g>
</svg>
