<?xml version="1.0" encoding="utf-8"?>
<!-- Generator: Adobe Illustrator 26.0.0, SVG Export Plug-In . SVG Version: 6.00 Build 0)  -->
<svg version="1.1" id="Layer_1" xmlns="http://www.w3.org/2000/svg" xmlns:xlink="http://www.w3.org/1999/xlink" x="0px" y="0px"
	 width="34.4px" height="17.2px" viewBox="0 0 34.4 17.2" style="enable-background:new 0 0 34.4 17.2;" xml:space="preserve">
<style type="text/css">
	.st0{fill:#1F272E;}
</style>
<path class="st0" d="M26,15.5h-0.1v-0.2c-0.7-0.9-1.2-1.9-1.2-3.1v3.3h-4.9c-1,0-1.7-0.8-1.7-1.7V8.9h6.6v3.3c0-1.2,0.4-2.3,1.2-3.1
	V8.9H26c0.5-0.5,1-0.9,1.6-1.2h-1.8V1.2h4.9c1,0,1.7,0.8,1.7,1.7v4.9h-0.9c0.8,0.4,1.6,1,2.1,1.7V2.9c0-1.6-1.3-2.9-2.9-2.9H19.8
	c-1.6,0-2.9,1.3-2.9,2.9v10.9c0,1.6,1.3,2.9,2.9,2.9h7.8C27,16.4,26.4,16,26,15.5z M18.1,2.9c0-1,0.8-1.7,1.7-1.7h4.9v6.6h-6.6V2.9z
	"/>
<g>
	<path class="st0" d="M23.2,11.3h-1.4V9.9c0-0.3-0.3-0.6-0.6-0.6s-0.6,0.3-0.6,0.6v1.4h-1.4c-0.3,0-0.6,0.3-0.6,0.6
		c0,0.3,0.3,0.6,0.6,0.6h1.4v1.4c0,0.3,0.3,0.6,0.6,0.6s0.6-0.3,0.6-0.6v-1.4h1.4c0.3,0,0.6-0.3,0.6-0.6
		C23.8,11.5,23.6,11.3,23.2,11.3z"/>
	<path class="st0" d="M19.4,5.2h3.9c0.3,0,0.6-0.3,0.6-0.6S23.6,4,23.2,4h-3.9c-0.3,0-0.6,0.3-0.6,0.6C18.8,4.9,19.1,5.2,19.4,5.2z"
		/>
	<path class="st0" d="M28.2,4.6l-1,1c-0.2,0.2-0.2,0.6,0,0.8c0.1,0.1,0.3,0.2,0.4,0.2s0.3-0.1,0.4-0.2l1-1l1,1
		c0.1,0.1,0.3,0.2,0.4,0.2s0.3-0.1,0.4-0.2c0.2-0.2,0.2-0.6,0-0.8l-1-1l1-1C31,3.4,31,3,30.8,2.8s-0.6-0.2-0.8,0l-1,1l-1-1
		c-0.2-0.2-0.6-0.2-0.8,0s-0.2,0.6,0,0.8L28.2,4.6z"/>
</g>
<g>
	<path class="st0" d="M29.3,17.1c-2.8,0-5-2.2-5-5c0-2.8,2.2-5,5-5s5,2.2,5,5C34.3,14.9,32.1,17.1,29.3,17.1z M29.3,8.1
		c-2.2,0-4,1.8-4,4c0,2.2,1.8,4,4,4s4-1.8,4-4C33.3,9.9,31.5,8.1,29.3,8.1z"/>
</g>
<g>
	<rect x="28.8" y="7.7" transform="matrix(0.6732 -0.7395 0.7395 0.6732 0.6104 25.6467)" class="st0" width="1" height="8.9"/>
</g>
</svg>
