<?xml version="1.0" encoding="utf-8"?>
<!-- Generator: Adobe Illustrator 24.2.0, SVG Export Plug-In . SVG Version: 6.00 Build 0)  -->
<svg version="1.1" id="Layer_1" xmlns="http://www.w3.org/2000/svg" xmlns:xlink="http://www.w3.org/1999/xlink" x="0px" y="0px"
	 width="79.2px" height="79.3px" viewBox="0 0 79.2 79.3" style="enable-background:new 0 0 79.2 79.3;" xml:space="preserve">
<style type="text/css">
	.st0{fill:#364963;}
	.st1{display:none;fill:#364963;}
</style>
<g>
	<path class="st0" d="M64.3,32.1c-2.1,0-3.8,1.7-3.8,3.8v7.4c0,2.1,1.7,3.8,3.8,3.8c2.1,0,3.8-1.7,3.8-3.8V36
		C68.1,33.9,66.4,32.1,64.3,32.1z"/>
	<path class="st0" d="M73.1,5.3L61.3,0.6c-0.9-0.3-1.8-0.5-2.6-0.5c-3.9,0-6.9,3.2-6.9,7.5v64.2c0,2.7,1.1,5,3.1,6.3
		c1.1,0.8,2.4,1.2,3.8,1.2c0.9,0,1.8-0.2,2.6-0.5L73,74.1c4.3-1.6,6.2-4.2,6.2-8.5V13.7C79.2,9.4,77.3,6.8,73.1,5.3z M71.5,66.4
		c-0.1,0.1-0.3,0.2-1.3,0.6l-10.8,4.3V8l10.9,4.4c1,0.4,1.2,0.5,1.1,0.5c0,0,0.1,0.2,0.1,0.9v51.8C71.6,66.2,71.5,66.4,71.5,66.4z"
		/>
	<path class="st0" d="M47.1,66.7H33.4c-0.6,0-1.1-0.5-1.1-1.1V48c0-2.1-1.7-3.8-3.8-3.8s-3.8,1.7-3.8,3.8v17.6
		c0,4.8,3.9,8.7,8.7,8.7h13.7c2.1,0,3.8-1.7,3.8-3.8C50.9,68.4,49.2,66.7,47.1,66.7z"/>
	<path class="st0" d="M28.5,35.1c2.1,0,3.8-1.7,3.8-3.8V13.7c0-0.6,0.5-1.1,1.1-1.1H47c2.1,0,3.8-1.7,3.8-3.8S49.1,5,47,5H33.4
		c-4.8,0-8.7,3.9-8.7,8.7v17.6C24.7,33.4,26.4,35.1,28.5,35.1z"/>
	<path class="st0" d="M13,43.5h26.7c2.1,0,3.8-1.7,3.8-3.8c0-2.1-1.7-3.8-3.8-3.8H13l5.8-5.8c0.7-0.7,1.1-1.7,1.1-2.7
		c0-1-0.4-2-1.1-2.7c-1.4-1.4-3.9-1.4-5.4,0L1.1,37c-0.4,0.4-0.6,0.8-0.8,1.2c-0.4,0.9-0.4,2,0,2.9l0,0c0.2,0.5,0.5,0.9,0.8,1.2
		l12.3,12.3c0.7,0.7,1.7,1.1,2.7,1.1c1,0,2-0.4,2.7-1.1C19.6,54,20,53,20,52c0-1-0.4-2-1.1-2.7L13,43.5z"/>
	<path class="st1" d="M30.5,35.9H3.8c-2.1,0-3.8,1.7-3.8,3.8c0,2.1,1.7,3.8,3.8,3.8h26.7l-5.8,5.8C23.9,50,23.5,51,23.5,52
		c0,1,0.4,2,1.1,2.7c1.4,1.4,3.9,1.4,5.4,0l12.3-12.3c0.4-0.4,0.6-0.8,0.8-1.2c0.4-0.9,0.4-2,0-2.9l0,0c-0.2-0.5-0.5-0.9-0.8-1.2
		L30,24.6c-0.7-0.7-1.7-1.1-2.7-1.1c-1,0-2,0.4-2.7,1.1c-0.7,0.7-1.1,1.7-1.1,2.7c0,1,0.4,2,1.1,2.7L30.5,35.9z"/>
</g>
</svg>
