<?xml version="1.0" encoding="utf-8"?>
<!-- Generator: Adobe Illustrator 26.0.0, SVG Export Plug-In . SVG Version: 6.00 Build 0)  -->
<svg version="1.1" id="Layer_1" xmlns="http://www.w3.org/2000/svg" xmlns:xlink="http://www.w3.org/1999/xlink" x="0px" y="0px"
	 width="34.4px" height="17.2px" viewBox="0 0 34.4 17.2" style="enable-background:new 0 0 34.4 17.2;" xml:space="preserve">
<style type="text/css">
	.st0{fill:#1F272E;}
</style>
<g>
	<path class="st0" d="M34.1,6c-0.2-0.2-0.5-0.3-0.8-0.4c-0.3,0-0.6,0.1-0.8,0.3l-6.1,6c-0.1,0.1-0.1,0.1-0.1,0.2l-0.1,1.2
		c0,0.1,0,0.2,0.1,0.3c0.1,0.1,0.2,0.1,0.3,0.1l0,0l1.2-0.1c0.1,0,0.2,0,0.2-0.1l6-6c0.2-0.2,0.3-0.5,0.3-0.8
		C34.4,6.4,34.3,6.2,34.1,6z M32.5,8.1l-4.8,4.9h-0.7l0.1-0.7L32,7.5L32.5,8.1z M33.3,6.3c0.1,0,0.2,0.1,0.3,0.2
		c0.1,0.1,0.1,0.2,0.2,0.3c0,0.1,0,0.2-0.1,0.3l-0.6,0.6L32.4,7L33,6.4C33.1,6.4,33.2,6.3,33.3,6.3z"/>
	<path class="st0" d="M30.9,11.5c-0.1,0.1-0.1,0.2-0.1,0.3v4.8H19.5V4.8H23c0.2,0,0.4-0.2,0.4-0.4V1.7c0-0.1,0-0.2-0.1-0.3
		c-0.1-0.1-0.2-0.1-0.3-0.1l0,0c-0.2,0-0.4,0.2-0.4,0.4V4h-2.8l2.9-3.3h7.9v5.7c0,0.1,0,0.2,0.1,0.3c0.1,0.1,0.4,0.1,0.5,0
		c0.1-0.1,0.1-0.2,0.1-0.3v-6C31.5,0.2,31.3,0,31.1,0h-8.5c-0.1,0-0.2,0-0.3,0.1l-3.5,4c-0.1,0.1-0.1,0.1-0.1,0.2v12.5
		c0,0.2,0.2,0.4,0.4,0.4h12c0.2,0,0.4-0.2,0.4-0.4v-5.1c0-0.1,0-0.2-0.1-0.3C31.2,11.4,31,11.4,30.9,11.5z"/>
</g>
</svg>
