<?xml version="1.0" encoding="utf-8"?>
<!-- Generator: Adobe Illustrator 26.0.0, SVG Export Plug-In . SVG Version: 6.00 Build 0)  -->
<svg version="1.1" id="Layer_1" xmlns="http://www.w3.org/2000/svg" xmlns:xlink="http://www.w3.org/1999/xlink" x="0px" y="0px"
	 width="104.6px" height="79.3px" viewBox="0 0 104.6 79.3" style="enable-background:new 0 0 104.6 79.3;" xml:space="preserve">
<style type="text/css">
	.st0{fill:#FFFFFF;}
</style>
<g>
	<path class="st0" d="M52.6,59.8H8V54h44.4c0.2-2.8,0.7-5.5,1.6-8H12.6v-5.2c0-1.3,1.8-2.9,4.1-2.9h41.8c2.7-3.4,6.2-6.1,10.2-8
		h-9.5c-1.7,0-2.9-1.3-2.9-2.9v-2.3c0-1.7,1.3-2.9,2.9-2.9h11.5c1.7,0,2.9,1.3,2.9,2.9V27c0,0.4-0.1,0.8-0.2,1.2
		c2.4-0.6,4.8-1,7.4-1c0.3,0,0.6,0,0.9,0c0-0.1,0-0.2,0-0.3v-2.3c0-6-4.9-10.9-10.9-10.9H59.2c-2.5,0-5,0.9-6.9,2.5
		c-1.9-1.6-4.4-2.5-6.9-2.5H33.9c-6,0-10.9,4.9-10.9,10.9V27c0,1,0.1,2,0.4,2.9h-5.1V13.2c0-2.8,2.9-5.2,6.4-5.2h55.2
		c3.5,0,6.4,2.4,6.4,5.2v14.6c2.8,0.6,5.5,1.5,7.9,2.8V13.2C94.3,5.9,87.8,0,79.9,0H24.7c-7.9,0-14.3,5.9-14.3,13.2v18.4
		c-3.6,2-5.8,5.4-5.8,9.2V46H4.1c-0.1,0-0.3,0-0.5,0C1.5,46.2,0,47.9,0,50v13.8c0,2.2,1.8,4,4,4h0.6v7.5c0,2.2,1.8,4,4,4h11.5
		c2.2,0,4-1.8,4-4v-7.5H55C53.8,65.3,53,62.6,52.6,59.8z M31,24.7c0-1.7,1.3-2.9,2.9-2.9h11.5c1.7,0,2.9,1.3,2.9,2.9V27
		c0,1.7-1.3,2.9-2.9,2.9H33.9c-1.7,0-2.9-1.3-2.9-2.9V24.7z M16.1,71.3h-3.5v-3.5h3.5V71.3z"/>
</g>
<g>
	<path class="st0" d="M81,32c-13,0-23.6,10.6-23.6,23.6S67.9,79.3,81,79.3s23.6-10.6,23.6-23.6S94,32,81,32z M99.4,55.7
		c0,10.2-8.3,18.5-18.5,18.5c-10.2,0-18.5-8.3-18.5-18.5S70.8,37.2,81,37.2C91.2,37.2,99.4,45.5,99.4,55.7z"/>
	<path class="st0" d="M81,62.3c-1.7,0-3.1,1.4-3.1,3.1c0,1.7,1.4,3.1,3.1,3.1c1.7,0,3.1-1.4,3.1-3.1C84.1,63.7,82.7,62.3,81,62.3z"
		/>
	<path class="st0" d="M81,42.8c-2.7,0-3.6,2.2-3.6,3.6l1.1,12.6c0,1.4,1.2,2.6,2.6,2.6c1.4,0,2.6-1.2,2.6-2.5l1.1-12.7
		C84.6,45,83.6,42.8,81,42.8z"/>
</g>
</svg>
