<?xml version="1.0" encoding="utf-8"?>
<!-- Generator: Adobe Illustrator 26.0.0, SVG Export Plug-In . SVG Version: 6.00 Build 0)  -->
<svg version="1.1" id="Layer_1" xmlns="http://www.w3.org/2000/svg" xmlns:xlink="http://www.w3.org/1999/xlink" x="0px" y="0px"
	 width="34.4px" height="17.2px" viewBox="0 0 34.4 17.2" style="enable-background:new 0 0 34.4 17.2;" xml:space="preserve">
<style type="text/css">
	.st0{fill:#1F272E;}
</style>
<g>
	<g>
		<path class="st0" d="M24.1,11.9v0.5c-0.5,0.1-0.8,0.5-0.8,0.9c0,0.4,0.3,0.8,1,0.9c0.4,0.1,0.5,0.2,0.5,0.3c0,0.2-0.2,0.3-0.5,0.3
			c-0.3,0-0.5-0.2-0.5-0.3v-0.1h-0.6v0.1c0,0.4,0.3,0.8,0.8,0.9v0.5h0.6v-0.5c0.5-0.1,0.8-0.5,0.8-0.9c0-0.4-0.3-0.8-1-0.9
			c-0.4-0.1-0.5-0.2-0.5-0.3c0-0.2,0.2-0.3,0.5-0.3c0.3,0,0.5,0.2,0.5,0.3v0.1h0.6v-0.1c0-0.4-0.3-0.8-0.8-0.9v-0.5H24.1z"/>
	</g>
	<g transform="translate(0,-952.36218)">
		<path class="st0" d="M29.2,952.4c-1.4,0-2.6,1.2-2.6,2.6s1.2,2.6,2.6,2.6c1.4,0,2.6-1.2,2.6-2.6S30.7,952.4,29.2,952.4z
			 M29.2,953.4c0.9,0,1.7,0.7,1.7,1.7s-0.7,1.7-1.7,1.7c-0.9,0-1.7-0.7-1.7-1.7S28.3,953.4,29.2,953.4z M18,955.5v0.5v1.9v0.5h0.5
			h1.2v1.2h-2.1h-0.3l-0.1,0.3l-1.2,3h-1h-0.5v0.5v5.7v0.5h0.5h19h0.5V969v-5.7v-0.5h-0.5h-0.9v-0.9c0-2.1-1.7-3.8-3.8-3.8
			s-3.8,1.7-3.8,3.8v0.9h-1l-1.2-3l-0.1-0.3h-0.3h-2.1v-1.2h1.2h0.5v-0.5V956v-0.5h-0.5h-3.3H18z M18.9,956.5h2.4v0.9h-2.4V956.5z
			 M29.1,959.1c1.6,0,2.8,1.3,2.8,2.8v0.9h-5.7v-0.9C26.3,960.3,27.5,959.1,29.1,959.1z M17.8,960.5h4.6l0.9,2.4h-6.4L17.8,960.5z
			 M15.4,963.8h18v4.7h-18V963.8z"/>
	</g>
</g>
</svg>
