<?xml version="1.0" encoding="utf-8"?>
<!-- Generator: Adobe Illustrator 26.0.0, SVG Export Plug-In . SVG Version: 6.00 Build 0)  -->
<svg version="1.1" id="Layer_1" xmlns="http://www.w3.org/2000/svg" xmlns:xlink="http://www.w3.org/1999/xlink" x="0px" y="0px"
	 width="30px" height="30px" viewBox="0 0 30 30" style="enable-background:new 0 0 30 30;" xml:space="preserve">
<style type="text/css">
	.st0{fill:#167AFF;}
</style>
<path class="st0" d="M19.4,21.9c-1.7-0.2-2.8-1.3-4.1-2.7c-0.7-0.7-1.4-1.5-2.2-2.2c1.3-1.1,2.3-2.4,3.3-3.3s1.8-1.4,3-1.6v2.4
	l7.2-4.1l-7.2-4.1v2.5c-3.2,0.2-5.2,2.2-6.6,3.8c-0.8,0.8-1.5,1.6-2.1,2.1c-0.6,0.5-1.2,0.7-1.9,0.7l0,0H1.4v3.3l0,0l0,0
	c0,0,0,0,0.1,0h7.3c0.7,0,1.3,0.2,1.9,0.7c1,0.7,2,2.1,3.4,3.4c1.2,1.2,3,2.3,5.3,2.5v2.5l7.2-4.1l-7.2-4.1L19.4,21.9L19.4,21.9z"/>
</svg>
