<?xml version="1.0" encoding="utf-8"?>
<!-- Generator: Adobe Illustrator 24.2.0, SVG Export Plug-In . SVG Version: 6.00 Build 0)  -->
<svg version="1.1" id="Layer_1" xmlns="http://www.w3.org/2000/svg" xmlns:xlink="http://www.w3.org/1999/xlink" x="0px" y="0px"
	 width="65.7px" height="39.5px" viewBox="0 0 65.7 39.5" style="enable-background:new 0 0 65.7 39.5;" xml:space="preserve">
<style type="text/css">
	.st0{fill:#FFFFFF;}
</style>
<g>
	<polygon class="st0" points="46.8,15.6 20.9,15.6 20.9,17.8 45.5,17.8 	"/>
	<g>
		<path class="st0" d="M41.7,31.5H12.9L9.3,2h48.3l2.8,14.4c1,0.7,1.8,1.5,2.5,2.5L59.3,0H7l0,0L0,29.4h10.6l0.5,4h31.5
			C42.3,32.9,42,32.2,41.7,31.5z M2.7,27.4L7.8,5.5l2.8,21.9H2.7z"/>
	</g>
	<g>
		<g>
			<path class="st0" d="M52.4,39.5c-7.3,0-13.3-6-13.3-13.3s6-13.3,13.3-13.3s13.3,6,13.3,13.3S59.7,39.5,52.4,39.5z M52.4,15.4
				c-6,0-11,5-11,11s5,11,11,11s11-5,11-11S58.4,15.4,52.4,15.4z"/>
		</g>
		<g>
			<path class="st0" d="M59.1,27.6h-5.3V33H51v-5.5h-5.3v-2.5H51v-5.3h2.8v5.5h5.3V27.6z"/>
		</g>
	</g>
</g>
</svg>
