<?xml version="1.0" encoding="utf-8"?>
<!-- Generator: Adobe Illustrator 26.0.0, SVG Export Plug-In . SVG Version: 6.00 Build 0)  -->
<svg version="1.1" id="Layer_1" xmlns="http://www.w3.org/2000/svg" xmlns:xlink="http://www.w3.org/1999/xlink" x="0px" y="0px"
	 width="21.6px" height="23.6px" viewBox="0 0 21.6 23.6" style="enable-background:new 0 0 21.6 23.6;" xml:space="preserve">
<style type="text/css">
	.st0{fill:#FFFFFF;}
</style>
<g>
	<path class="st0" d="M2.8,5.9c0,3.2,2.6,5.9,5.9,5.9s5.9-2.6,5.9-5.9S12,0.1,8.7,0.1l0,0C5.5,0.1,2.8,2.7,2.8,5.9z M12.3,5.9
		c0,1.9-1.6,3.5-3.5,3.5S5.3,7.8,5.3,5.9s1.5-3.5,3.5-3.5C10.6,2.4,12.2,3.9,12.3,5.9L12.3,5.9L12.3,5.9z"/>
	<path class="st0" d="M9.1,17.8c0-1.4,0.4-2.8,1.2-3.8H4c-0.9,0-1.8,0.6-2.2,1.4l-1.6,3.1c-0.3,0.7-0.1,1.6,0.4,2.1
		c1.1,0.9,2.4,1.7,3.8,2.2c2.4,0.8,4.9,0.9,7.3,0.3C10.1,21.9,9.1,20,9.1,17.8z"/>
</g>
<g>
	<g>
		<path class="st0" d="M16.3,20.7L16.3,20.7c-0.4,0-0.7-0.3-0.7-0.7v-4.1c0-0.4,0.3-0.7,0.7-0.7l0,0c0.4,0,0.7,0.3,0.7,0.7V20
			C17,20.4,16.7,20.7,16.3,20.7z"/>
		<path class="st0" d="M13.6,17.9L13.6,17.9c0-0.4,0.3-0.7,0.7-0.7h4.1c0.4,0,0.7,0.3,0.7,0.7l0,0c0,0.4-0.3,0.7-0.7,0.7h-4.2
			C13.9,18.6,13.6,18.3,13.6,17.9z"/>
	</g>
	<path class="st0" d="M16.3,12.8c-2.9,0-5.2,2.3-5.2,5.2s2.3,5.2,5.2,5.2s5.2-2.3,5.2-5.2S19.2,12.8,16.3,12.8z M16.3,21.5
		c-2,0-3.5-1.6-3.5-3.5s1.6-3.5,3.5-3.5s3.5,1.6,3.5,3.5S18.3,21.5,16.3,21.5z"/>
</g>
</svg>
