<?xml version="1.0" encoding="utf-8"?>
<!-- Generator: Adobe Illustrator 26.0.0, SVG Export Plug-In . SVG Version: 6.00 Build 0)  -->
<svg version="1.1" id="Layer_1" xmlns="http://www.w3.org/2000/svg" xmlns:xlink="http://www.w3.org/1999/xlink" x="0px" y="0px"
	 width="70.2px" height="90.3px" viewBox="0 0 70.2 90.3" style="enable-background:new 0 0 70.2 90.3;" xml:space="preserve">
<style type="text/css">
	.st0{fill-rule:evenodd;clip-rule:evenodd;fill:#1F272E;}
	.st1{fill:#1F272E;}
</style>
<g>
	<g transform="matrix(6.12323e-17,1,-1,6.12323e-17,100,0)">
		<path class="st0" d="M88.3,99.7c0.8,0,1.5-0.4,1.8-1.1c0.4-0.7,0.3-1.5-0.1-2.1l-5.2-8l5-6c0.6-0.7,0.6-1.8,0.1-2.6l-5.1-7l5.1-7
			c0.5-0.7,0.5-1.7,0-2.4l-5.1-7l5.1-7c0.5-0.7,0.5-1.7,0-2.4l-5.1-7l5.1-7c0.5-0.6,0.5-1.5,0.2-2.2c-0.4-0.7-1.1-1.1-1.9-1.1h-86
			c-1.2,0-2.1,0.9-2.1,2.1v66c0,1.2,0.9,2.1,2.1,2.1h86.1V99.7z M84.5,95.5H4.4V33.7h79.8l-3.6,4.9c-0.5,0.7-0.5,1.7,0,2.4l5.1,7
			l-5.1,7c-0.5,0.7-0.5,1.7,0,2.4l5.1,7l-5.1,7c-0.5,0.7-0.5,1.7,0,2.4l5,6.9l-5,5.9c-0.5,1.1-0.6,2.1-0.1,2.8L84.5,95.5z"/>
	</g>
	<g transform="matrix(1.21459,0,0,1.21459,-1.17064,29.7055)">
		<path class="st0" d="M12.8,26.1h23.1c0.9,0,1.7-0.8,1.7-1.7c0-0.9-0.8-1.7-1.7-1.7H12.8c-0.9,0-1.7,0.8-1.7,1.7
			C11,25.3,11.8,26.1,12.8,26.1z"/>
	</g>
	<g transform="matrix(0.0867567,0,0,0.0867567,66.845,47.6218)">
		<path class="st0" d="M-143.6,158.3h23.1c13.3,0,24-10.8,24-24c0-13.3-10.8-24-24-24h-23.1c-13.3,0-24,10.8-24,24
			C-167.6,147.5-156.9,158.3-143.6,158.3z"/>
	</g>
	<g transform="matrix(1.21459,0,0,1.21459,-1.17064,41.7055)">
		<path class="st0" d="M12.8,26.1h23.1c0.9,0,1.7-0.8,1.7-1.7c0-0.9-0.8-1.7-1.7-1.7H12.8c-0.9,0-1.7,0.8-1.7,1.7
			C11,25.3,11.8,26.1,12.8,26.1z"/>
	</g>
	<g transform="matrix(0.0867567,0,0,0.0867567,66.845,59.6218)">
		<path class="st0" d="M-143.6,158.3h23.1c13.3,0,24-10.8,24-24c0-13.3-10.8-24-24-24h-23.1c-13.3,0-24,10.8-24,24
			C-167.6,147.5-156.9,158.3-143.6,158.3z"/>
	</g>
</g>
<g>
	<path class="st1" d="M55.6,50.6V9.7c0-0.5-0.5-1-1.3-1H29.9c-0.5,0-1,0.5-1,1v16.7H14.5c-0.5,0-1,0.5-1,1v23.1c-0.5,0-1,0.5-1,1
		c0,0.5,0.5,1,1,1h42.1c0.5,0,1-0.5,1-1C56.6,51.1,56.1,50.6,55.6,50.6z M24.5,50.6h-4.4v-4.4h4.4V50.6z M29.1,50.6h-2.3v-5.4
		c0-0.5-0.5-1-1-1h-6.7c-0.5,0-1,0.5-1,1v5.4h-2.3V28.5h13.4V50.6z M41.2,50.6h-4.4v-6.7h4.4V50.6z M47.9,50.6h-4.4v-6.7h4.4V50.6z
		 M53.3,50.6h-3.3v-7.7c0-0.5-0.5-1-1-1H35.6c-0.5,0-1,0.5-1,1v7.7h-3.3V11h22.1C53.3,11,53.3,50.6,53.3,50.6z"/>
	<path class="st1" d="M34.5,20.8h5.6c0.5,0,1-0.5,1-1v-4.4c0-0.5-0.5-1-1-1h-5.4c-0.5,0-1,0.5-1,1v4.4C33.5,20.3,34,20.8,34.5,20.8z
		 M35.6,16.4h3.3v2.3h-3.3V16.4z"/>
	<path class="st1" d="M44.5,20.8h5.4c0.5,0,1-0.5,1-1v-4.4c0-0.5-0.5-1-1-1h-5.4c-0.5,0-1,0.5-1,1v4.4
		C43.3,20.3,43.8,20.8,44.5,20.8z M45.6,16.4h3.3v2.3h-3.3V16.4z"/>
	<path class="st1" d="M34.5,29.8h5.6c0.5,0,1-0.5,1-1v-4.6c0-0.5-0.5-1-1-1h-5.4c-0.5,0-1,0.5-1,1v4.4C33.5,29.3,34,29.8,34.5,29.8z
		 M35.6,25.4h3.3v2.3h-3.3V25.4z"/>
	<path class="st1" d="M44.5,29.8h5.4c0.5,0,1-0.5,1-1v-4.6c0-0.5-0.5-1-1-1h-5.4c-0.5,0-1,0.5-1,1v4.4
		C43.3,29.3,43.8,29.8,44.5,29.8z M45.6,25.4h3.3v2.3h-3.3V25.4z"/>
	<path class="st1" d="M34.5,38.5h5.6c0.5,0,1-0.5,1-1v-4.4c0-0.8-0.5-1.3-1-1.3h-5.4c-0.5,0-1,0.5-1,1v4.4
		C33.5,38,34,38.5,34.5,38.5z M35.6,34.1h3.3v2.3h-3.3V34.1z"/>
	<path class="st1" d="M44.5,38.5h5.4c0.5,0,1-0.5,1-1v-4.4c0-0.5-0.5-1-1-1h-5.4c-0.5,0-1,0.5-1,1v4.4C43.3,38,43.8,38.5,44.5,38.5z
		 M45.6,34.1h3.3v2.3h-3.3V34.1z"/>
	<path class="st1" d="M20.2,33.1h4.4c0.5,0,1-0.5,1-1c0-0.5-0.5-1-1-1h-4.4c-0.5,0-1,0.5-1,1C19.1,32.6,19.6,33.1,20.2,33.1z"/>
	<path class="st1" d="M20.2,37.5h4.4c0.5,0,1-0.5,1-1c0-0.5-0.5-1-1-1h-4.4c-0.5,0-1,0.5-1,1C19.1,37,19.6,37.5,20.2,37.5z"/>
	<path class="st1" d="M20.2,41.8h4.4c0.5,0,1-0.5,1-1c0-0.5-0.3-1.3-1-1.3h-4.4c-0.5,0-1,0.5-1,1C19.1,41.1,19.6,41.8,20.2,41.8z"/>
</g>
</svg>
