<?xml version="1.0" encoding="utf-8"?>
<!-- Generator: Adobe Illustrator 26.0.0, SVG Export Plug-In . SVG Version: 6.00 Build 0)  -->
<svg version="1.1"
	 id="Layer_1" xmlns:cc="http://creativecommons.org/ns#" xmlns:dc="http://purl.org/dc/elements/1.1/" xmlns:inkscape="http://www.inkscape.org/namespaces/inkscape" xmlns:rdf="http://www.w3.org/1999/02/22-rdf-syntax-ns#" xmlns:sodipodi="http://sodipodi.sourceforge.net/DTD/sodipodi-0.dtd" xmlns:svg="http://www.w3.org/2000/svg"
	 xmlns="http://www.w3.org/2000/svg" xmlns:xlink="http://www.w3.org/1999/xlink" x="0px" y="0px" width="90px" height="74px"
	 viewBox="0 0 90 74" style="enable-background:new 0 0 90 74;" xml:space="preserve">
<style type="text/css">
	.st0{fill:#800080;}
</style>
<g>
	<g transform="translate(0,-952.36218)">
		<path class="st0" d="M44.8,952.4c-1.1,0.1-2.1,0.7-2.6,1.7l-13.8,30.4l-24.3-9.9c-1.5-0.6-3.3,0.1-3.9,1.7
			c-0.3,0.7-0.3,1.4-0.1,2.1l11.8,35.5v9.5c0,1.7,1.3,3,3,3h60c1.7,0,3-1.3,3-3v-9.5l11.8-35.5c0.5-1.6-0.3-3.3-1.9-3.8
			c-0.7-0.2-1.4-0.2-2.1,0.1l-24.3,9.9l-13.8-30.4C47.2,953,46.1,952.3,44.8,952.4z M45,962.6l12.3,27c0.7,1.5,2.4,2.1,3.8,1.5
			l21-8.5l-9.3,27.8H17.2l-9.3-27.8l21,8.5c1.5,0.6,3.2-0.1,3.8-1.5L45,962.6z M18,1016.4h54v4H18V1016.4z"/>
	</g>
	<path class="st0" d="M45,35.7c-5.7,4.1-5.9,10.3-5.5,14h-2c-0.4-2.3-1.6-4.9-4.5-7c-5.5,3.9-4.8,9.7-4.3,12h11.9l4.4-4.4l4.4,4.4
		h11.9c0.5-2.3,1.2-8.1-4.3-12c-2.9,2.1-4.1,4.7-4.5,7h-2C50.9,46,50.7,39.8,45,35.7z"/>
</g>
</svg>
