<svg xmlns:xlink="http://www.w3.org/1999/xlink" xmlns="http://www.w3.org/2000/svg" style="width: 20px; height: 20px; color: rgb(17, 191, 254);" width="18" height="18"><defs><symbol viewBox="0 0 18 18" id="repairs_18"><path d="M17.383 11.769l-1.598-1.586.799-.8a1.12 1.12 0 000-1.585L8.63-.156a1.12 1.12 0 00-1.586 0L4.625 2.229a1.12 1.12 0 000 1.586l7.954 7.954a1.12 1.12 0 001.586 0l.799.798-1.564 1.587-5.625-5.558a1.12 1.12 0 00-1.586 0l-6.311 6.356a1.13 1.13 0 00-.012 1.587l.012.011 1.597 1.575c.214.202.495.326.788.326.303 0 .585-.112.798-.326L8.686 12.5l-1.462-1.339 5.389 5.389a1.12 1.12 0 001.586 0l3.184-3.184a1.134 1.134 0 000-1.597zM13.4 9.384L7.044 3.028l.787-.8L14.2 8.597l-.799.788z" fill="#e80000"></path></symbol></defs><use xlink:href="#repairs_18"></use></svg>